<svg width="1029" height="585" viewBox="0 0 1029 585" fill="none" xmlns="http://www.w3.org/2000/svg">
<rect y="0.039917" width="1029" height="584" fill="#D9D9D9"/>
<path fill-rule="evenodd" clip-rule="evenodd" d="M457.346 584.007L552.621 575.73C647.897 567.94 838.447 551.386 914.667 535.324C990.887 519.261 952.776 502.717 952.776 486.657C952.775 470.597 990.885 454.05 971.829 437.991C952.773 421.932 876.552 405.389 876.551 389.329C876.551 373.27 952.771 356.72 895.605 340.663C838.439 324.606 647.887 308.067 647.886 292.007C647.885 275.948 984.362 312.47 933.711 243.331C883.06 174.191 981.847 167.702 990.875 194.663C999.902 221.624 876.543 162.062 724.101 146.008C571.659 129.954 342.997 113.417 228.665 97.362C114.334 81.3069 114.333 64.7606 95.2776 48.7018C76.2219 32.643 38.111 16.0982 19.0555 8.31249L6.18972e-05 0.0401001L1028.98 -1.21173e-05L1028.98 8.27312C1028.98 16.0596 1028.98 32.6058 1028.98 48.6654C1028.98 64.725 1028.98 81.2712 1028.98 97.3308C1028.98 113.39 1028.98 129.937 1028.98 145.996C1028.98 162.056 1028.98 178.602 1028.98 194.662C1028.99 210.721 1028.99 227.267 1028.99 243.327C1028.99 259.387 1028.99 275.933 1028.99 291.992C1028.99 308.052 1028.99 324.598 1028.99 340.658C1028.99 356.717 1028.99 373.264 1028.99 389.323C1028.99 405.383 1028.99 421.929 1028.99 437.989C1028.99 454.048 1029 470.594 1029 486.654C1029 502.714 1029 519.26 1029 535.319C1029 551.379 1029 567.925 1029 575.712L1029 583.985L457.346 584.007Z" fill="#293728"/>
<path fill-rule="evenodd" clip-rule="evenodd" d="M803.945 0.0401611L836.726 24.0402C872.488 49.0402 941.03 97.0402 976.791 146.04C1009.57 195.04 1009.57 243.04 1018.51 292.04C1027.45 341.04 1045.33 390.04 994.672 438.04C941.03 487.04 818.846 536.04 759.244 560.04L696.662 584.04H646V560.04C646 536.04 646 487.04 646 438.04C646 390.04 646 341.04 646 292.04C646 243.04 646 195.04 646 146.04C646 97.0402 646 49.0402 646 24.0402V0.0401611L803.945 0.0401611Z" fill="#364435"/>
<path fill-rule="evenodd" clip-rule="evenodd" d="M836.404 0.0401611L862.431 24.3735C888.458 48.7068 940.512 97.3735 875.445 146.04C810.377 194.707 628.189 243.374 667.229 292.04C706.27 340.707 966.539 389.374 1018.59 438.04C1070.65 486.707 914.485 535.374 836.404 559.707L758.324 584.04L446 584.04V559.707C446 535.374 446 486.707 446 438.04C446 389.374 446 340.707 446 292.04C446 243.374 446 194.707 446 146.04C446 97.3735 446 48.7068 446 24.3735V0.0401611L836.404 0.0401611Z" fill="#3E513D"/>
<path fill-rule="evenodd" clip-rule="evenodd" d="M670.5 0.0401611V24.3735C670.5 48.7068 670.5 97.3735 610.75 146.04C551 194.707 431.5 243.374 491.25 292.04C551 340.707 790 389.374 909.5 438.04C1029 486.707 1029 535.374 1029 559.707V584.04H312V559.707C312 535.374 312 486.707 312 438.04C312 389.374 312 340.707 312 292.04C312 243.374 312 194.707 312 146.04C312 97.3735 312 48.7068 312 24.3735V0.0401611L670.5 0.0401611Z" fill="#678164"/>
<path fill-rule="evenodd" clip-rule="evenodd" d="M189 0.0401611L265.562 24.3735C342.125 48.7068 495.25 97.3735 528.062 146.04C560.875 194.707 473.375 243.374 407.75 292.04C342.125 340.707 298.375 389.374 353.063 438.04C407.75 486.707 560.875 535.374 637.438 559.707L714 584.04L189 584.04V559.707C189 535.374 189 486.707 189 438.04C189 389.374 189 340.707 189 292.04C189 243.374 189 194.707 189 146.04C189 97.3735 189 48.7068 189 24.3735V0.0401611Z" fill="#82A47F"/>
<path fill-rule="evenodd" clip-rule="evenodd" d="M453 0.0400391L394.63 24.3734C336.259 48.7067 219.519 97.3734 204.926 146.04C190.333 194.707 277.889 243.373 299.778 292.04C321.667 340.707 277.889 389.373 248.704 438.04C219.519 486.707 204.926 535.373 197.63 559.707L190.333 584.04H59V559.707C59 535.373 59 486.707 59 438.04C59 389.373 59 340.707 59 292.04C59 243.373 59 194.707 59 146.04C59 97.3734 59 48.7067 59 24.3734V0.0400391L453 0.0400391Z" fill="#9CC29B"/>
<path fill-rule="evenodd" clip-rule="evenodd" d="M330 0.0401611L277.832 10.8234C226.667 21.6067 123.333 43.1733 87.2168 64.7399C51.1003 86.3064 82.2007 108.441 82.2007 130.007C82.2007 151.574 51.1003 173.14 77.1845 194.707C102.265 216.273 185.534 237.84 216.634 259.407C247.735 280.973 226.667 303.107 231.683 324.674C236.699 346.24 267.799 367.807 277.832 389.374C288.867 410.94 277.832 432.507 252.751 454.073C226.667 475.64 185.534 497.774 159.45 519.34C133.366 540.907 123.333 562.474 118.317 573.257L113.301 584.04H20V573.257C20 562.474 20 540.907 20 519.34C20 497.774 20 475.64 20 454.073C20 432.507 20 410.94 20 389.374C20 367.807 20 346.24 20 324.674C20 303.107 20 280.973 20 259.407C20 237.84 20 216.273 20 194.707C20 173.14 20 151.574 20 130.007C20 108.441 20 86.3064 20 64.7399C20 43.1733 20 21.6067 20 10.8234V0.0401611L330 0.0401611Z" fill="#BFDDC1"/>
<path fill-rule="evenodd" clip-rule="evenodd" d="M38.0148 0.0401611L31.3063 24.0688C24.5978 49.1421 13.417 97.1994 49.1956 146.301C87.2104 194.359 174.421 243.461 205.727 292.562C237.034 340.62 212.436 389.722 174.421 437.779C138.642 486.881 87.2104 534.938 62.6126 560.012L38.0148 584.04H1.52588e-05L1.52588e-05 560.012C1.52588e-05 534.938 1.52588e-05 486.881 1.52588e-05 437.779C1.52588e-05 389.722 1.52588e-05 340.62 1.52588e-05 292.562C1.52588e-05 243.461 1.52588e-05 194.359 1.52588e-05 146.301C1.52588e-05 97.1994 1.52588e-05 49.1421 1.52588e-05 24.0688V0.0401611L38.0148 0.0401611Z" fill="#BFDDC1"/>
<g filter="url(#filter0_d_15_122)">
<rect x="240" y="77" width="550" height="480" fill="white"/>
<rect x="234" y="71" width="562" height="492" stroke="white" stroke-width="12" stroke-linejoin="round"/>
</g>
<rect width="1029" height="49" fill="#514F4F"/>
<g filter="url(#filter1_d_15_122)">
<path d="M76.7017 24V9.45455H82.4403C83.5388 9.45455 84.4763 9.65104 85.2528 10.044C86.0341 10.4323 86.6283 10.9839 87.0355 11.6989C87.4474 12.4091 87.6534 13.2448 87.6534 14.206C87.6534 15.1719 87.4451 16.0028 87.0284 16.6989C86.6117 17.3902 86.008 17.9205 85.2173 18.2898C84.4313 18.6591 83.4796 18.8438 82.3622 18.8438H78.5199V16.3722H81.8651C82.4522 16.3722 82.9399 16.2917 83.3281 16.1307C83.7164 15.9697 84.0052 15.7282 84.1946 15.4062C84.3887 15.0843 84.4858 14.6842 84.4858 14.206C84.4858 13.723 84.3887 13.3158 84.1946 12.9844C84.0052 12.6529 83.714 12.402 83.321 12.2315C82.9328 12.0563 82.4427 11.9688 81.8509 11.9688H79.777V24H76.7017ZM84.5568 17.3807L88.1719 24H84.777L81.2401 17.3807H84.5568Z" fill="white"/>
<path d="M76.7017 24H75.7017C75.7017 24.5523 76.1494 25 76.7017 25V24ZM76.7017 9.45455V8.45455C76.1494 8.45455 75.7017 8.90226 75.7017 9.45455H76.7017ZM85.2528 10.044L84.8013 10.9363L84.8078 10.9395L85.2528 10.044ZM87.0355 11.6989L86.1665 12.1938L86.1705 12.2006L87.0355 11.6989ZM87.0284 16.6989L87.8849 17.2151L87.8864 17.2125L87.0284 16.6989ZM85.2173 18.2898L84.7941 17.3837L84.7921 17.3847L85.2173 18.2898ZM78.5199 18.8438H77.5199C77.5199 19.396 77.9676 19.8438 78.5199 19.8438V18.8438ZM78.5199 16.3722V15.3722C77.9676 15.3722 77.5199 15.8199 77.5199 16.3722H78.5199ZM83.3281 16.1307L83.7111 17.0544L83.3281 16.1307ZM84.1946 15.4062L83.3382 14.8899L83.3327 14.8992L84.1946 15.4062ZM84.1946 12.9844L83.3263 13.4805L83.3317 13.4898L84.1946 12.9844ZM83.321 12.2315L82.9097 13.143C82.9142 13.145 82.9186 13.147 82.9231 13.149L83.321 12.2315ZM79.777 11.9688V10.9688C79.2247 10.9688 78.777 11.4165 78.777 11.9688H79.777ZM79.777 24V25C80.3293 25 80.777 24.5523 80.777 24H79.777ZM84.5568 17.3807L85.4345 16.9014C85.2592 16.5804 84.9226 16.3807 84.5568 16.3807V17.3807ZM88.1719 24V25C88.5249 25 88.8518 24.8139 89.0319 24.5102C89.212 24.2066 89.2187 23.8305 89.0495 23.5207L88.1719 24ZM84.777 24L83.895 24.4713C84.0689 24.7968 84.408 25 84.777 25V24ZM81.2401 17.3807V16.3807C80.8887 16.3807 80.563 16.5651 80.3824 16.8665C80.2017 17.1679 80.1925 17.542 80.3581 17.852L81.2401 17.3807ZM77.7017 24V9.45455H75.7017V24H77.7017ZM76.7017 10.4545H82.4403V8.45455H76.7017V10.4545ZM82.4403 10.4545C83.422 10.4545 84.1966 10.6302 84.8013 10.9363L85.7044 9.15179C84.756 8.67183 83.6556 8.45455 82.4403 8.45455V10.4545ZM84.8078 10.9395C85.4224 11.245 85.8638 11.6621 86.1666 12.1938L87.9045 11.204C87.3928 10.3057 86.6458 9.61961 85.6979 9.14852L84.8078 10.9395ZM86.1705 12.2006C86.4799 12.7341 86.6534 13.3907 86.6534 14.206H88.6534C88.6534 13.0989 88.415 12.0841 87.9005 11.1971L86.1705 12.2006ZM86.6534 14.206C86.6534 15.0257 86.4778 15.6717 86.1704 16.1852L87.8864 17.2125C88.4124 16.3339 88.6534 15.3181 88.6534 14.206H86.6534ZM86.172 16.1826C85.8662 16.6899 85.4202 17.0913 84.7941 17.3837L85.6405 19.1958C86.5959 18.7496 87.3573 18.0904 87.8849 17.2151L86.172 16.1826ZM84.7921 17.3847C84.1716 17.6763 83.3732 17.8438 82.3622 17.8438V19.8438C83.586 19.8438 84.6911 19.6419 85.6426 19.1948L84.7921 17.3847ZM82.3622 17.8438H78.5199V19.8438H82.3622V17.8438ZM79.5199 18.8438V16.3722H77.5199V18.8438H79.5199ZM78.5199 17.3722H81.8651V15.3722H78.5199V17.3722ZM81.8651 17.3722C82.5351 17.3722 83.1635 17.2815 83.7111 17.0544L82.9451 15.2069C82.7162 15.3018 82.3692 15.3722 81.8651 15.3722V17.3722ZM83.7111 17.0544C84.2737 16.8212 84.7434 16.4457 85.0565 15.9133L83.3327 14.8992C83.2671 15.0108 83.1591 15.1182 82.9451 15.2069L83.7111 17.0544ZM85.051 15.9226C85.3614 15.4077 85.4858 14.8174 85.4858 14.206H83.4858C83.4858 14.551 83.416 14.7609 83.3382 14.8899L85.051 15.9226ZM85.4858 14.206C85.4858 13.5905 85.3618 12.9985 85.0575 12.479L83.3317 13.4898C83.4157 13.6332 83.4858 13.8555 83.4858 14.206H85.4858ZM85.0628 12.4882C84.7533 11.9466 84.2847 11.5595 83.7189 11.3141L82.9231 13.149C83.1433 13.2445 83.2571 13.3593 83.3264 13.4805L85.0628 12.4882ZM83.7323 11.32C83.1748 11.0685 82.5328 10.9688 81.8509 10.9688V12.9688C82.3526 12.9688 82.6908 13.0442 82.9097 13.143L83.7323 11.32ZM81.8509 10.9688H79.777V12.9688H81.8509V10.9688ZM78.777 11.9688V24H80.777V11.9688H78.777ZM79.777 23H76.7017V25H79.777V23ZM83.6792 17.86L87.2942 24.4793L89.0495 23.5207L85.4345 16.9014L83.6792 17.86ZM88.1719 23H84.777V25H88.1719V23ZM85.659 23.5287L82.122 16.9094L80.3581 17.852L83.895 24.4713L85.659 23.5287ZM81.2401 18.3807H84.5568V16.3807H81.2401V18.3807Z" fill="white"/>
</g>
<g filter="url(#filter2_d_15_122)">
<path d="M86.7017 25V39.5455H92.4403C93.5388 39.5455 94.4763 39.349 95.2528 38.956C96.0341 38.5677 96.6283 38.0161 97.0355 37.3011C97.4474 36.5909 97.6534 35.7552 97.6534 34.794C97.6534 33.8281 97.4451 32.9972 97.0284 32.3011C96.6117 31.6098 96.008 31.0795 95.2173 30.7102C94.4313 30.3409 93.4796 30.1562 92.3622 30.1562H88.5199V32.6278H91.8651C92.4522 32.6278 92.9399 32.7083 93.3281 32.8693C93.7164 33.0303 94.0052 33.2718 94.1946 33.5938C94.3887 33.9157 94.4858 34.3158 94.4858 34.794C94.4858 35.277 94.3887 35.6842 94.1946 36.0156C94.0052 36.3471 93.714 36.598 93.321 36.7685C92.9328 36.9437 92.4427 37.0312 91.8509 37.0312H89.777V25H86.7017ZM94.5568 31.6193L98.1719 25H94.777L91.2401 31.6193H94.5568Z" fill="white"/>
<path d="M86.7017 25H85.7017C85.7017 24.4477 86.1494 24 86.7017 24V25ZM86.7017 39.5455V40.5455C86.1494 40.5455 85.7017 40.0977 85.7017 39.5455H86.7017ZM95.2528 38.956L94.8013 38.0637L94.8078 38.0605L95.2528 38.956ZM97.0355 37.3011L96.1665 36.8062L96.1705 36.7994L97.0355 37.3011ZM97.0284 32.3011L97.8849 31.7849L97.8864 31.7875L97.0284 32.3011ZM95.2173 30.7102L94.7941 31.6163L94.7921 31.6153L95.2173 30.7102ZM88.5199 30.1562H87.5199C87.5199 29.604 87.9676 29.1562 88.5199 29.1562V30.1562ZM88.5199 32.6278V33.6278C87.9676 33.6278 87.5199 33.1801 87.5199 32.6278H88.5199ZM93.3281 32.8693L93.7111 31.9456L93.3281 32.8693ZM94.1946 33.5938L93.3382 34.1101L93.3327 34.1008L94.1946 33.5938ZM94.1946 36.0156L93.3263 35.5195L93.3317 35.5102L94.1946 36.0156ZM93.321 36.7685L92.9097 35.857C92.9142 35.855 92.9186 35.853 92.9231 35.851L93.321 36.7685ZM89.777 37.0312V38.0312C89.2247 38.0312 88.777 37.5835 88.777 37.0312H89.777ZM89.777 25V24C90.3293 24 90.777 24.4477 90.777 25H89.777ZM94.5568 31.6193L95.4345 32.0986C95.2592 32.4196 94.9226 32.6193 94.5568 32.6193V31.6193ZM98.1719 25V24C98.5249 24 98.8518 24.1861 99.0319 24.4898C99.212 24.7934 99.2187 25.1695 99.0495 25.4793L98.1719 25ZM94.777 25L93.895 24.5287C94.0689 24.2032 94.408 24 94.777 24V25ZM91.2401 31.6193V32.6193C90.8887 32.6193 90.563 32.4349 90.3824 32.1335C90.2017 31.8321 90.1925 31.458 90.3581 31.148L91.2401 31.6193ZM87.7017 25V39.5455H85.7017V25H87.7017ZM86.7017 38.5455H92.4403V40.5455H86.7017V38.5455ZM92.4403 38.5455C93.422 38.5455 94.1966 38.3698 94.8013 38.0637L95.7044 39.8482C94.756 40.3282 93.6556 40.5455 92.4403 40.5455V38.5455ZM94.8078 38.0605C95.4224 37.755 95.8638 37.3379 96.1666 36.8062L97.9045 37.796C97.3928 38.6943 96.6458 39.3804 95.6979 39.8515L94.8078 38.0605ZM96.1705 36.7994C96.4799 36.2659 96.6534 35.6093 96.6534 34.794H98.6534C98.6534 35.9011 98.415 36.9159 97.9005 37.8029L96.1705 36.7994ZM96.6534 34.794C96.6534 33.9743 96.4778 33.3283 96.1704 32.8148L97.8864 31.7875C98.4124 32.6661 98.6534 33.6819 98.6534 34.794H96.6534ZM96.172 32.8174C95.8662 32.3101 95.4202 31.9087 94.7941 31.6163L95.6405 29.8042C96.5959 30.2504 97.3573 30.9096 97.8849 31.7849L96.172 32.8174ZM94.7921 31.6153C94.1716 31.3237 93.3732 31.1562 92.3622 31.1562V29.1562C93.586 29.1562 94.6911 29.3581 95.6426 29.8052L94.7921 31.6153ZM92.3622 31.1562H88.5199V29.1562H92.3622V31.1562ZM89.5199 30.1562V32.6278H87.5199V30.1562H89.5199ZM88.5199 31.6278H91.8651V33.6278H88.5199V31.6278ZM91.8651 31.6278C92.5351 31.6278 93.1635 31.7185 93.7111 31.9456L92.9451 33.7931C92.7162 33.6982 92.3692 33.6278 91.8651 33.6278V31.6278ZM93.7111 31.9456C94.2737 32.1788 94.7434 32.5543 95.0565 33.0867L93.3327 34.1008C93.2671 33.9892 93.1591 33.8818 92.9451 33.7931L93.7111 31.9456ZM95.051 33.0774C95.3614 33.5923 95.4858 34.1826 95.4858 34.794H93.4858C93.4858 34.449 93.416 34.2391 93.3382 34.1101L95.051 33.0774ZM95.4858 34.794C95.4858 35.4095 95.3618 36.0015 95.0575 36.521L93.3317 35.5102C93.4157 35.3668 93.4858 35.1445 93.4858 34.794H95.4858ZM95.0628 36.5118C94.7533 37.0534 94.2847 37.4405 93.7189 37.6859L92.9231 35.851C93.1433 35.7555 93.2571 35.6407 93.3264 35.5195L95.0628 36.5118ZM93.7323 37.68C93.1748 37.9315 92.5328 38.0312 91.8509 38.0312V36.0312C92.3526 36.0312 92.6908 35.9558 92.9097 35.857L93.7323 37.68ZM91.8509 38.0312H89.777V36.0312H91.8509V38.0312ZM88.777 37.0312V25H90.777V37.0312H88.777ZM89.777 26H86.7017V24H89.777V26ZM93.6792 31.14L97.2942 24.5207L99.0495 25.4793L95.4345 32.0986L93.6792 31.14ZM98.1719 26H94.777V24H98.1719V26ZM95.659 25.4713L92.122 32.0906L90.3581 31.148L93.895 24.5287L95.659 25.4713ZM91.2401 30.6193H94.5568V32.6193H91.2401V30.6193Z" fill="white"/>
</g>
<path d="M415.842 146H413.024C412.857 145.189 412.566 144.477 412.149 143.864C411.74 143.25 411.24 142.735 410.649 142.318C410.066 141.894 409.418 141.576 408.706 141.364C407.994 141.152 407.251 141.045 406.479 141.045C405.07 141.045 403.793 141.402 402.649 142.114C401.513 142.826 400.607 143.875 399.933 145.261C399.267 146.648 398.933 148.348 398.933 150.364C398.933 152.379 399.267 154.08 399.933 155.466C400.607 156.852 401.513 157.902 402.649 158.614C403.793 159.326 405.07 159.682 406.479 159.682C407.251 159.682 407.994 159.576 408.706 159.364C409.418 159.152 410.066 158.837 410.649 158.42C411.24 157.996 411.74 157.477 412.149 156.864C412.566 156.242 412.857 155.53 413.024 154.727H415.842C415.63 155.917 415.244 156.981 414.683 157.92C414.123 158.86 413.426 159.659 412.592 160.318C411.759 160.97 410.823 161.466 409.786 161.807C408.755 162.148 407.653 162.318 406.479 162.318C404.494 162.318 402.729 161.833 401.183 160.864C399.638 159.894 398.422 158.515 397.536 156.727C396.649 154.939 396.206 152.818 396.206 150.364C396.206 147.909 396.649 145.788 397.536 144C398.422 142.212 399.638 140.833 401.183 139.864C402.729 138.894 404.494 138.409 406.479 138.409C407.653 138.409 408.755 138.58 409.786 138.92C410.823 139.261 411.759 139.761 412.592 140.42C413.426 141.072 414.123 141.867 414.683 142.807C415.244 143.739 415.63 144.803 415.842 146ZM420.033 162V144.545H422.624V147.182H422.805C423.124 146.318 423.699 145.617 424.533 145.08C425.366 144.542 426.305 144.273 427.351 144.273C427.548 144.273 427.794 144.277 428.089 144.284C428.385 144.292 428.608 144.303 428.76 144.318V147.045C428.669 147.023 428.461 146.989 428.135 146.943C427.817 146.89 427.48 146.864 427.124 146.864C426.275 146.864 425.518 147.042 424.851 147.398C424.192 147.746 423.669 148.231 423.283 148.852C422.904 149.466 422.714 150.167 422.714 150.955V162H420.033ZM438.726 162.364C437.044 162.364 435.593 161.992 434.374 161.25C433.161 160.5 432.226 159.455 431.567 158.114C430.915 156.765 430.589 155.197 430.589 153.409C430.589 151.621 430.915 150.045 431.567 148.682C432.226 147.311 433.143 146.242 434.317 145.477C435.499 144.705 436.877 144.318 438.453 144.318C439.362 144.318 440.26 144.47 441.146 144.773C442.033 145.076 442.839 145.568 443.567 146.25C444.294 146.924 444.874 147.818 445.305 148.932C445.737 150.045 445.953 151.417 445.953 153.045V154.182H432.499V151.864H443.226C443.226 150.879 443.029 150 442.635 149.227C442.249 148.455 441.696 147.845 440.976 147.398C440.264 146.951 439.423 146.727 438.453 146.727C437.385 146.727 436.461 146.992 435.68 147.523C434.908 148.045 434.313 148.727 433.896 149.568C433.48 150.409 433.271 151.311 433.271 152.273V153.818C433.271 155.136 433.499 156.254 433.953 157.17C434.415 158.08 435.055 158.773 435.874 159.25C436.692 159.72 437.643 159.955 438.726 159.955C439.43 159.955 440.067 159.856 440.635 159.659C441.211 159.455 441.707 159.152 442.124 158.75C442.54 158.341 442.862 157.833 443.089 157.227L445.68 157.955C445.408 158.833 444.949 159.606 444.305 160.273C443.661 160.932 442.866 161.447 441.919 161.818C440.972 162.182 439.908 162.364 438.726 162.364ZM455.169 162.409C454.063 162.409 453.059 162.201 452.158 161.784C451.256 161.36 450.54 160.75 450.01 159.955C449.48 159.152 449.214 158.182 449.214 157.045C449.214 156.045 449.411 155.235 449.805 154.614C450.199 153.985 450.726 153.492 451.385 153.136C452.044 152.78 452.771 152.515 453.567 152.341C454.37 152.159 455.177 152.015 455.987 151.909C457.048 151.773 457.908 151.67 458.567 151.602C459.233 151.527 459.718 151.402 460.021 151.227C460.332 151.053 460.487 150.75 460.487 150.318V150.227C460.487 149.106 460.18 148.235 459.567 147.614C458.961 146.992 458.04 146.682 456.805 146.682C455.525 146.682 454.521 146.962 453.794 147.523C453.067 148.083 452.555 148.682 452.26 149.318L449.714 148.409C450.169 147.348 450.775 146.523 451.533 145.932C452.298 145.333 453.131 144.917 454.033 144.682C454.942 144.439 455.836 144.318 456.714 144.318C457.275 144.318 457.919 144.386 458.646 144.523C459.381 144.652 460.089 144.92 460.771 145.33C461.461 145.739 462.033 146.356 462.487 147.182C462.942 148.008 463.169 149.114 463.169 150.5V162H460.487V159.636H460.351C460.169 160.015 459.866 160.42 459.442 160.852C459.018 161.284 458.453 161.652 457.749 161.955C457.044 162.258 456.184 162.409 455.169 162.409ZM455.578 160C456.639 160 457.533 159.792 458.26 159.375C458.995 158.958 459.548 158.42 459.919 157.761C460.298 157.102 460.487 156.409 460.487 155.682V153.227C460.374 153.364 460.124 153.489 459.737 153.602C459.358 153.708 458.919 153.803 458.419 153.886C457.927 153.962 457.446 154.03 456.976 154.091C456.514 154.144 456.139 154.189 455.851 154.227C455.154 154.318 454.502 154.466 453.896 154.67C453.298 154.867 452.813 155.167 452.442 155.568C452.078 155.962 451.896 156.5 451.896 157.182C451.896 158.114 452.241 158.818 452.93 159.295C453.627 159.765 454.51 160 455.578 160ZM475.655 144.545V146.818H466.609V144.545H475.655ZM469.246 140.364H471.928V157C471.928 157.758 472.037 158.326 472.257 158.705C472.484 159.076 472.772 159.326 473.121 159.455C473.477 159.576 473.852 159.636 474.246 159.636C474.541 159.636 474.784 159.621 474.973 159.591C475.162 159.553 475.314 159.523 475.428 159.5L475.973 161.909C475.791 161.977 475.537 162.045 475.212 162.114C474.886 162.189 474.473 162.227 473.973 162.227C473.215 162.227 472.473 162.064 471.746 161.739C471.026 161.413 470.428 160.917 469.95 160.25C469.481 159.583 469.246 158.742 469.246 157.727V140.364ZM486.82 162.364C485.138 162.364 483.687 161.992 482.467 161.25C481.255 160.5 480.32 159.455 479.661 158.114C479.009 156.765 478.683 155.197 478.683 153.409C478.683 151.621 479.009 150.045 479.661 148.682C480.32 147.311 481.236 146.242 482.411 145.477C483.592 144.705 484.971 144.318 486.547 144.318C487.456 144.318 488.354 144.47 489.24 144.773C490.126 145.076 490.933 145.568 491.661 146.25C492.388 146.924 492.967 147.818 493.399 148.932C493.831 150.045 494.047 151.417 494.047 153.045V154.182H480.592V151.864H491.32C491.32 150.879 491.123 150 490.729 149.227C490.342 148.455 489.789 147.845 489.07 147.398C488.357 146.951 487.517 146.727 486.547 146.727C485.479 146.727 484.554 146.992 483.774 147.523C483.001 148.045 482.407 148.727 481.99 149.568C481.573 150.409 481.365 151.311 481.365 152.273V153.818C481.365 155.136 481.592 156.254 482.047 157.17C482.509 158.08 483.149 158.773 483.967 159.25C484.786 159.72 485.736 159.955 486.82 159.955C487.524 159.955 488.161 159.856 488.729 159.659C489.304 159.455 489.801 159.152 490.217 158.75C490.634 158.341 490.956 157.833 491.183 157.227L493.774 157.955C493.501 158.833 493.043 159.606 492.399 160.273C491.755 160.932 490.96 161.447 490.013 161.818C489.066 162.182 488.001 162.364 486.82 162.364ZM512.263 162.409C511.157 162.409 510.153 162.201 509.251 161.784C508.35 161.36 507.634 160.75 507.104 159.955C506.573 159.152 506.308 158.182 506.308 157.045C506.308 156.045 506.505 155.235 506.899 154.614C507.293 153.985 507.82 153.492 508.479 153.136C509.138 152.78 509.865 152.515 510.661 152.341C511.464 152.159 512.27 152.015 513.081 151.909C514.142 151.773 515.001 151.67 515.661 151.602C516.327 151.527 516.812 151.402 517.115 151.227C517.426 151.053 517.581 150.75 517.581 150.318V150.227C517.581 149.106 517.274 148.235 516.661 147.614C516.054 146.992 515.134 146.682 513.899 146.682C512.619 146.682 511.615 146.962 510.888 147.523C510.161 148.083 509.649 148.682 509.354 149.318L506.808 148.409C507.263 147.348 507.869 146.523 508.626 145.932C509.392 145.333 510.225 144.917 511.126 144.682C512.036 144.439 512.929 144.318 513.808 144.318C514.369 144.318 515.013 144.386 515.74 144.523C516.475 144.652 517.183 144.92 517.865 145.33C518.554 145.739 519.126 146.356 519.581 147.182C520.036 148.008 520.263 149.114 520.263 150.5V162H517.581V159.636H517.445C517.263 160.015 516.96 160.42 516.536 160.852C516.111 161.284 515.547 161.652 514.842 161.955C514.138 162.258 513.278 162.409 512.263 162.409ZM512.672 160C513.732 160 514.626 159.792 515.354 159.375C516.089 158.958 516.642 158.42 517.013 157.761C517.392 157.102 517.581 156.409 517.581 155.682V153.227C517.467 153.364 517.217 153.489 516.831 153.602C516.452 153.708 516.013 153.803 515.513 153.886C515.02 153.962 514.539 154.03 514.07 154.091C513.607 154.144 513.232 154.189 512.945 154.227C512.248 154.318 511.596 154.466 510.99 154.67C510.392 154.867 509.907 155.167 509.536 155.568C509.172 155.962 508.99 156.5 508.99 157.182C508.99 158.114 509.335 158.818 510.024 159.295C510.721 159.765 511.604 160 512.672 160ZM527.839 151.5V162H525.158V144.545H527.749V147.273H527.976C528.385 146.386 529.006 145.674 529.839 145.136C530.673 144.591 531.749 144.318 533.067 144.318C534.249 144.318 535.283 144.561 536.169 145.045C537.055 145.523 537.745 146.25 538.237 147.227C538.73 148.197 538.976 149.424 538.976 150.909V162H536.294V151.091C536.294 149.72 535.938 148.652 535.226 147.886C534.514 147.114 533.536 146.727 532.294 146.727C531.438 146.727 530.673 146.913 529.999 147.284C529.332 147.655 528.805 148.197 528.419 148.909C528.033 149.621 527.839 150.485 527.839 151.5ZM553.24 162V138.727H567.286V141.227H556.058V149.091H566.558V151.591H556.058V159.5H567.467V162H553.24ZM586.274 144.545L579.82 162H577.092L570.638 144.545H573.547L578.365 158.455H578.547L583.365 144.545H586.274ZM596.507 162.364C594.825 162.364 593.375 161.992 592.155 161.25C590.943 160.5 590.007 159.455 589.348 158.114C588.696 156.765 588.371 155.197 588.371 153.409C588.371 151.621 588.696 150.045 589.348 148.682C590.007 147.311 590.924 146.242 592.098 145.477C593.28 144.705 594.659 144.318 596.234 144.318C597.143 144.318 598.041 144.47 598.928 144.773C599.814 145.076 600.621 145.568 601.348 146.25C602.075 146.924 602.655 147.818 603.087 148.932C603.518 150.045 603.734 151.417 603.734 153.045V154.182H590.28V151.864H601.007C601.007 150.879 600.81 150 600.416 149.227C600.03 148.455 599.477 147.845 598.757 147.398C598.045 146.951 597.204 146.727 596.234 146.727C595.166 146.727 594.242 146.992 593.462 147.523C592.689 148.045 592.094 148.727 591.678 149.568C591.261 150.409 591.053 151.311 591.053 152.273V153.818C591.053 155.136 591.28 156.254 591.734 157.17C592.196 158.08 592.837 158.773 593.655 159.25C594.473 159.72 595.424 159.955 596.507 159.955C597.212 159.955 597.848 159.856 598.416 159.659C598.992 159.455 599.488 159.152 599.905 158.75C600.321 158.341 600.643 157.833 600.871 157.227L603.462 157.955C603.189 158.833 602.731 159.606 602.087 160.273C601.443 160.932 600.647 161.447 599.7 161.818C598.753 162.182 597.689 162.364 596.507 162.364ZM610.496 151.5V162H607.814V144.545H610.405V147.273H610.632C611.041 146.386 611.662 145.674 612.496 145.136C613.329 144.591 614.405 144.318 615.723 144.318C616.905 144.318 617.939 144.561 618.825 145.045C619.712 145.523 620.401 146.25 620.893 147.227C621.386 148.197 621.632 149.424 621.632 150.909V162H618.95V151.091C618.95 149.72 618.594 148.652 617.882 147.886C617.17 147.114 616.193 146.727 614.95 146.727C614.094 146.727 613.329 146.913 612.655 147.284C611.988 147.655 611.462 148.197 611.075 148.909C610.689 149.621 610.496 150.485 610.496 151.5ZM634.124 144.545V146.818H625.078V144.545H634.124ZM627.714 140.364H630.396V157C630.396 157.758 630.506 158.326 630.726 158.705C630.953 159.076 631.241 159.326 631.589 159.455C631.946 159.576 632.321 159.636 632.714 159.636C633.01 159.636 633.252 159.621 633.442 159.591C633.631 159.553 633.783 159.523 633.896 159.5L634.442 161.909C634.26 161.977 634.006 162.045 633.68 162.114C633.355 162.189 632.942 162.227 632.442 162.227C631.684 162.227 630.942 162.064 630.214 161.739C629.495 161.413 628.896 160.917 628.419 160.25C627.949 159.583 627.714 158.742 627.714 157.727V140.364Z" fill="#293728"/>
<path d="M415.842 146V147C416.138 147 416.419 146.869 416.609 146.642C416.799 146.416 416.879 146.117 416.827 145.826L415.842 146ZM413.024 146L412.045 146.201C412.14 146.666 412.549 147 413.024 147V146ZM412.149 143.864L411.317 144.418L411.322 144.425L412.149 143.864ZM410.649 142.318L410.061 143.127C410.065 143.13 410.069 143.133 410.073 143.135L410.649 142.318ZM408.706 141.364L408.42 142.322L408.706 141.364ZM402.649 142.114L402.121 141.265L402.118 141.266L402.649 142.114ZM399.933 145.261L399.034 144.824L399.032 144.828L399.933 145.261ZM399.933 155.466L399.032 155.899L399.034 155.903L399.933 155.466ZM402.649 158.614L402.118 159.461L402.121 159.463L402.649 158.614ZM408.706 159.364L408.42 158.405L408.706 159.364ZM410.649 158.42L411.23 159.234L411.232 159.233L410.649 158.42ZM412.149 156.864L411.319 156.307L411.317 156.309L412.149 156.864ZM413.024 154.727V153.727C412.55 153.727 412.141 154.06 412.045 154.524L413.024 154.727ZM415.842 154.727L416.827 154.903C416.879 154.612 416.799 154.312 416.609 154.085C416.419 153.858 416.138 153.727 415.842 153.727V154.727ZM414.683 157.92L413.825 157.408L414.683 157.92ZM412.592 160.318L413.208 161.106L413.213 161.103L412.592 160.318ZM409.786 161.807L409.473 160.857L409.471 160.857L409.786 161.807ZM401.183 160.864L400.652 161.711H400.652L401.183 160.864ZM397.536 156.727L398.431 156.283L397.536 156.727ZM397.536 144L396.64 143.556L397.536 144ZM409.786 138.92L409.471 139.87L409.473 139.871L409.786 138.92ZM412.592 140.42L411.972 141.205L411.976 141.208L412.592 140.42ZM414.683 142.807L413.825 143.319L413.826 143.322L414.683 142.807ZM415.842 145H413.024V147H415.842V145ZM414.004 145.799C413.814 144.874 413.475 144.036 412.976 143.302L411.322 144.425C411.656 144.918 411.901 145.505 412.045 146.201L414.004 145.799ZM412.981 143.309C412.505 142.595 411.919 141.99 411.225 141.501L410.073 143.135C410.561 143.48 410.975 143.905 411.317 144.418L412.981 143.309ZM411.237 141.509C410.56 141.017 409.809 140.649 408.991 140.405L408.42 142.322C409.027 142.503 409.572 142.771 410.061 143.127L411.237 141.509ZM408.991 140.405C408.183 140.164 407.344 140.045 406.479 140.045V142.045C407.159 142.045 407.805 142.139 408.42 142.322L408.991 140.405ZM406.479 140.045C404.892 140.045 403.431 140.449 402.121 141.265L403.178 142.963C404.156 142.354 405.247 142.045 406.479 142.045V140.045ZM402.118 141.266C400.8 142.092 399.778 143.295 399.034 144.824L400.833 145.699C401.437 144.455 402.225 143.559 403.18 142.961L402.118 141.266ZM399.032 144.828C398.283 146.385 397.933 148.243 397.933 150.364H399.933C399.933 148.454 400.25 146.911 400.834 145.695L399.032 144.828ZM397.933 150.364C397.933 152.484 398.283 154.343 399.032 155.899L400.834 155.033C400.25 153.817 399.933 152.273 399.933 150.364H397.933ZM399.034 155.903C399.778 157.432 400.8 158.635 402.118 159.461L403.18 157.766C402.225 157.168 401.437 156.272 400.833 155.029L399.034 155.903ZM402.121 159.463C403.431 160.278 404.892 160.682 406.479 160.682V158.682C405.247 158.682 404.156 158.373 403.178 157.765L402.121 159.463ZM406.479 160.682C407.344 160.682 408.183 160.563 408.991 160.322L408.42 158.405C407.805 158.589 407.159 158.682 406.479 158.682V160.682ZM408.991 160.322C409.806 160.08 410.554 159.717 411.23 159.234L410.068 157.607C409.578 157.957 409.031 158.224 408.42 158.405L408.991 160.322ZM411.232 159.233C411.922 158.737 412.506 158.131 412.981 157.418L411.317 156.309C410.974 156.824 410.558 157.255 410.066 157.608L411.232 159.233ZM412.98 157.421C413.475 156.682 413.813 155.848 414.003 154.93L412.045 154.524C411.902 155.213 411.657 155.803 411.319 156.307L412.98 157.421ZM413.024 155.727H415.842V153.727H413.024V155.727ZM414.858 154.552C414.665 155.635 414.317 156.583 413.825 157.408L415.542 158.433C416.171 157.379 416.596 156.199 416.827 154.903L414.858 154.552ZM413.825 157.408C413.324 158.246 412.707 158.952 411.972 159.534L413.213 161.103C414.144 160.366 414.921 159.474 415.542 158.433L413.825 157.408ZM411.976 159.53C411.237 160.108 410.405 160.551 409.473 160.857L410.098 162.757C411.242 162.381 412.281 161.831 413.208 161.106L411.976 159.53ZM409.471 160.857C408.55 161.162 407.555 161.318 406.479 161.318V163.318C407.751 163.318 408.96 163.133 410.1 162.756L409.471 160.857ZM406.479 161.318C404.665 161.318 403.087 160.878 401.715 160.017L400.652 161.711C402.37 162.789 404.323 163.318 406.479 163.318V161.318ZM401.715 160.017C400.34 159.154 399.244 157.922 398.431 156.283L396.64 157.171C397.6 159.109 398.935 160.634 400.652 161.711L401.715 160.017ZM398.431 156.283C397.627 154.661 397.206 152.699 397.206 150.364H395.206C395.206 152.937 395.671 155.217 396.64 157.171L398.431 156.283ZM397.206 150.364C397.206 148.028 397.627 146.066 398.431 144.444L396.64 143.556C395.671 145.51 395.206 147.79 395.206 150.364H397.206ZM398.431 144.444C399.244 142.806 400.34 141.573 401.715 140.711L400.652 139.017C398.935 140.093 397.6 141.619 396.64 143.556L398.431 144.444ZM401.715 140.711C403.087 139.85 404.665 139.409 406.479 139.409V137.409C404.323 137.409 402.37 137.938 400.652 139.017L401.715 140.711ZM406.479 139.409C407.555 139.409 408.55 139.565 409.471 139.87L410.1 137.971C408.96 137.594 407.751 137.409 406.479 137.409V139.409ZM409.473 139.871C410.403 140.176 411.233 140.621 411.972 141.205L413.213 139.636C412.285 138.902 411.244 138.347 410.098 137.97L409.473 139.871ZM411.976 141.208C412.709 141.781 413.325 142.482 413.825 143.319L415.542 142.294C414.92 141.253 414.142 140.363 413.208 139.633L411.976 141.208ZM413.826 143.322C414.317 144.138 414.664 145.084 414.858 146.174L416.827 145.826C416.596 144.522 416.171 143.34 415.54 142.291L413.826 143.322ZM420.033 162H419.033C419.033 162.552 419.48 163 420.033 163V162ZM420.033 144.545V143.545C419.48 143.545 419.033 143.993 419.033 144.545H420.033ZM422.624 144.545H423.624C423.624 143.993 423.176 143.545 422.624 143.545V144.545ZM422.624 147.182H421.624C421.624 147.734 422.071 148.182 422.624 148.182V147.182ZM422.805 147.182V148.182C423.224 148.182 423.599 147.921 423.744 147.528L422.805 147.182ZM424.533 145.08L423.99 144.239H423.99L424.533 145.08ZM428.76 144.318H429.76C429.76 143.804 429.371 143.374 428.859 143.323L428.76 144.318ZM428.76 147.045L428.517 148.016C428.816 148.09 429.133 148.023 429.375 147.834C429.618 147.644 429.76 147.353 429.76 147.045H428.76ZM428.135 146.943L427.971 147.93C427.979 147.931 427.988 147.932 427.997 147.934L428.135 146.943ZM424.851 147.398L425.318 148.282L425.322 148.28L424.851 147.398ZM423.283 148.852L422.434 148.324L422.432 148.327L423.283 148.852ZM422.714 162V163C423.267 163 423.714 162.552 423.714 162H422.714ZM421.033 162V144.545H419.033V162H421.033ZM420.033 145.545H422.624V143.545H420.033V145.545ZM421.624 144.545V147.182H423.624V144.545H421.624ZM422.624 148.182H422.805V146.182H422.624V148.182ZM423.744 147.528C423.981 146.883 424.409 146.35 425.075 145.92L423.99 144.239C422.99 144.885 422.266 145.753 421.867 146.836L423.744 147.528ZM425.075 145.92C425.738 145.492 426.487 145.273 427.351 145.273V143.273C426.124 143.273 424.994 143.591 423.99 144.239L425.075 145.92ZM427.351 145.273C427.536 145.273 427.773 145.276 428.064 145.284L428.115 143.284C427.815 143.277 427.559 143.273 427.351 143.273V145.273ZM428.064 145.284C428.353 145.291 428.547 145.302 428.66 145.313L428.859 143.323C428.67 143.304 428.417 143.292 428.115 143.284L428.064 145.284ZM427.76 144.318V147.045H429.76V144.318H427.76ZM429.002 146.075C428.849 146.037 428.584 145.996 428.273 145.953L427.997 147.934C428.156 147.956 428.281 147.974 428.374 147.99C428.421 147.997 428.457 148.004 428.483 148.009C428.512 148.014 428.521 148.016 428.517 148.016L429.002 146.075ZM428.299 145.957C427.922 145.894 427.529 145.864 427.124 145.864V147.864C427.43 147.864 427.712 147.886 427.971 147.93L428.299 145.957ZM427.124 145.864C426.131 145.864 425.208 146.073 424.38 146.516L425.322 148.28C425.827 148.01 426.419 147.864 427.124 147.864V145.864ZM424.383 146.514C423.571 146.943 422.915 147.55 422.434 148.324L424.132 149.38C424.423 148.913 424.813 148.549 425.318 148.282L424.383 146.514ZM422.432 148.327C421.947 149.113 421.714 149.999 421.714 150.955H423.714C423.714 150.334 423.861 149.819 424.134 149.378L422.432 148.327ZM421.714 150.955V162H423.714V150.955H421.714ZM422.714 161H420.033V163H422.714V161ZM434.374 161.25L433.847 162.1L433.854 162.104L434.374 161.25ZM431.567 158.114L430.666 158.549L430.669 158.555L431.567 158.114ZM431.567 148.682L430.665 148.249L430.664 148.251L431.567 148.682ZM434.317 145.477L434.863 146.315L434.864 146.314L434.317 145.477ZM441.146 144.773L441.47 143.826L441.146 144.773ZM443.567 146.25L442.883 146.98L442.887 146.983L443.567 146.25ZM445.305 148.932L446.238 148.57V148.57L445.305 148.932ZM445.953 154.182V155.182C446.505 155.182 446.953 154.734 446.953 154.182H445.953ZM432.499 154.182H431.499C431.499 154.734 431.946 155.182 432.499 155.182V154.182ZM432.499 151.864V150.864C431.946 150.864 431.499 151.311 431.499 151.864H432.499ZM443.226 151.864V152.864C443.778 152.864 444.226 152.416 444.226 151.864H443.226ZM442.635 149.227L441.74 149.674L441.744 149.681L442.635 149.227ZM440.976 147.398L440.444 148.245L440.448 148.247L440.976 147.398ZM435.68 147.523L436.241 148.351L436.242 148.35L435.68 147.523ZM433.896 149.568L433 149.124L433.896 149.568ZM433.953 157.17L433.057 157.615L433.062 157.624L433.953 157.17ZM435.874 159.25L435.37 160.114L435.376 160.117L435.874 159.25ZM440.635 159.659L440.962 160.604L440.97 160.601L440.635 159.659ZM442.124 158.75L442.818 159.47L442.824 159.464L442.124 158.75ZM443.089 157.227L443.36 156.264C442.86 156.124 442.336 156.39 442.153 156.876L443.089 157.227ZM445.68 157.955L446.635 158.251C446.715 157.993 446.688 157.714 446.559 157.477C446.43 157.24 446.211 157.065 445.951 156.992L445.68 157.955ZM444.305 160.273L445.021 160.972L445.025 160.967L444.305 160.273ZM441.919 161.818L442.278 162.752L442.284 162.749L441.919 161.818ZM438.726 161.364C437.194 161.364 435.931 161.027 434.894 160.396L433.854 162.104C435.256 162.958 436.894 163.364 438.726 163.364V161.364ZM434.9 160.4C433.855 159.753 433.045 158.853 432.464 157.673L430.669 158.555C431.407 160.056 432.468 161.247 433.847 162.1L434.9 160.4ZM432.467 157.679C431.893 156.49 431.589 155.075 431.589 153.409H429.589C429.589 155.319 429.938 157.041 430.666 158.549L432.467 157.679ZM431.589 153.409C431.589 151.743 431.893 150.319 432.469 149.113L430.664 148.251C429.938 149.771 429.589 151.499 429.589 153.409H431.589ZM432.468 149.115C433.055 147.894 433.855 146.972 434.863 146.315L433.771 144.639C432.43 145.513 431.397 146.727 430.665 148.249L432.468 149.115ZM434.864 146.314C435.865 145.66 437.048 145.318 438.453 145.318V143.318C436.706 143.318 435.133 143.749 433.77 144.64L434.864 146.314ZM438.453 145.318C439.249 145.318 440.037 145.45 440.823 145.719L441.47 143.826C440.483 143.489 439.476 143.318 438.453 143.318V145.318ZM440.823 145.719C441.567 145.973 442.252 146.388 442.883 146.98L444.251 145.52C443.427 144.748 442.499 144.178 441.47 143.826L440.823 145.719ZM442.887 146.983C443.482 147.535 443.985 148.293 444.373 149.293L446.238 148.57C445.762 147.344 445.106 146.313 444.247 145.517L442.887 146.983ZM444.373 149.293C444.747 150.258 444.953 151.498 444.953 153.045H446.953C446.953 151.335 446.727 149.833 446.238 148.57L444.373 149.293ZM444.953 153.045V154.182H446.953V153.045H444.953ZM445.953 153.182H432.499V155.182H445.953V153.182ZM433.499 154.182V151.864H431.499V154.182H433.499ZM432.499 152.864H443.226V150.864H432.499V152.864ZM444.226 151.864C444.226 150.742 444.001 149.704 443.526 148.773L441.744 149.681C442.057 150.296 442.226 151.015 442.226 151.864H444.226ZM443.529 148.78C443.062 147.845 442.384 147.095 441.503 146.548L440.448 148.247C441.008 148.595 441.435 149.064 441.741 149.674L443.529 148.78ZM441.507 146.551C440.613 145.989 439.581 145.727 438.453 145.727V147.727C439.264 147.727 439.915 147.912 440.444 148.245L441.507 146.551ZM438.453 145.727C437.212 145.727 436.086 146.038 435.118 146.696L436.242 148.35C436.836 147.947 437.558 147.727 438.453 147.727V145.727ZM435.12 146.694C434.203 147.315 433.493 148.129 433 149.124L434.792 150.012C435.133 149.325 435.612 148.776 436.241 148.351L435.12 146.694ZM433 149.124C432.513 150.107 432.271 151.161 432.271 152.273H434.271C434.271 151.461 434.446 150.712 434.792 150.012L433 149.124ZM432.271 152.273V153.818H434.271V152.273H432.271ZM432.271 153.818C432.271 155.248 432.517 156.526 433.057 157.615L434.849 156.726C434.48 155.982 434.271 155.025 434.271 153.818H432.271ZM433.062 157.624C433.604 158.69 434.373 159.532 435.37 160.114L436.377 158.386C435.738 158.013 435.227 157.469 434.845 156.717L433.062 157.624ZM435.376 160.117C436.367 160.686 437.494 160.955 438.726 160.955V158.955C437.791 158.955 437.017 158.753 436.371 158.383L435.376 160.117ZM438.726 160.955C439.523 160.955 440.273 160.843 440.962 160.604L440.307 158.714C439.861 158.869 439.338 158.955 438.726 158.955V160.955ZM440.97 160.601C441.672 160.352 442.293 159.976 442.817 159.47L441.43 158.03C441.121 158.327 440.749 158.557 440.3 158.717L440.97 160.601ZM442.824 159.464C443.356 158.942 443.753 158.306 444.026 157.578L442.153 156.876C441.971 157.361 441.725 157.74 441.423 158.036L442.824 159.464ZM442.819 158.19L445.41 158.917L445.951 156.992L443.36 156.264L442.819 158.19ZM444.725 157.658C444.499 158.386 444.122 159.023 443.586 159.578L445.025 160.967C445.776 160.189 446.316 159.28 446.635 158.251L444.725 157.658ZM443.59 159.574C443.055 160.122 442.383 160.562 441.554 160.887L442.284 162.749C443.349 162.332 444.268 161.742 445.021 160.972L443.59 159.574ZM441.561 160.885C440.745 161.198 439.805 161.364 438.726 161.364V163.364C440.01 163.364 441.199 163.166 442.278 162.752L441.561 160.885ZM452.158 161.784L451.732 162.689L451.738 162.692L452.158 161.784ZM450.01 159.955L449.175 160.506L449.178 160.509L450.01 159.955ZM449.805 154.614L450.65 155.149L450.653 155.145L449.805 154.614ZM453.567 152.341L453.781 153.318L453.788 153.316L453.567 152.341ZM455.987 151.909L455.86 150.917L455.857 150.918L455.987 151.909ZM458.567 151.602L458.67 152.597L458.68 152.596L458.567 151.602ZM460.021 151.227L459.532 150.355L459.523 150.36L460.021 151.227ZM459.567 147.614L458.851 148.312L458.855 148.316L459.567 147.614ZM453.794 147.523L454.405 148.315L453.794 147.523ZM452.26 149.318L451.924 150.26C452.41 150.434 452.949 150.208 453.167 149.739L452.26 149.318ZM449.714 148.409L448.795 148.015C448.687 148.269 448.688 148.556 448.798 148.809C448.908 149.062 449.118 149.258 449.378 149.351L449.714 148.409ZM451.533 145.932L452.148 146.72L452.149 146.719L451.533 145.932ZM454.033 144.682L454.285 145.65L454.29 145.648L454.033 144.682ZM458.646 144.523L458.462 145.506L458.474 145.508L458.646 144.523ZM460.771 145.33L460.257 146.187L460.261 146.19L460.771 145.33ZM462.487 147.182L461.611 147.664L462.487 147.182ZM463.169 162V163C463.721 163 464.169 162.552 464.169 162H463.169ZM460.487 162H459.487C459.487 162.552 459.935 163 460.487 163V162ZM460.487 159.636H461.487C461.487 159.084 461.039 158.636 460.487 158.636V159.636ZM460.351 159.636V158.636C459.966 158.636 459.616 158.857 459.449 159.204L460.351 159.636ZM459.442 160.852L460.155 161.553L459.442 160.852ZM457.749 161.955L457.353 161.036L457.749 161.955ZM458.26 159.375L457.767 158.505L457.763 158.507L458.26 159.375ZM459.919 157.761L459.052 157.263L459.048 157.271L459.919 157.761ZM460.487 153.227H461.487C461.487 152.806 461.224 152.43 460.828 152.287C460.432 152.144 459.989 152.264 459.719 152.587L460.487 153.227ZM459.737 153.602L460.007 154.565L460.019 154.562L459.737 153.602ZM458.419 153.886L458.571 154.875L458.583 154.873L458.419 153.886ZM456.976 154.091L457.09 155.084L457.104 155.083L456.976 154.091ZM455.851 154.227L455.98 155.219L455.981 155.219L455.851 154.227ZM453.896 154.67L454.209 155.62L454.216 155.618L453.896 154.67ZM452.442 155.568L451.707 154.889L451.707 154.89L452.442 155.568ZM452.93 159.295L452.361 160.118L452.372 160.125L452.93 159.295ZM455.169 161.409C454.191 161.409 453.333 161.226 452.577 160.876L451.738 162.692C452.785 163.176 453.935 163.409 455.169 163.409V161.409ZM452.583 160.879C451.839 160.529 451.267 160.037 450.842 159.4L449.178 160.509C449.814 161.463 450.673 162.191 451.732 162.689L452.583 160.879ZM450.844 159.403C450.44 158.792 450.214 158.022 450.214 157.045H448.214C448.214 158.342 448.519 159.511 449.175 160.506L450.844 159.403ZM450.214 157.045C450.214 156.169 450.388 155.562 450.65 155.149L448.961 154.078C448.435 154.907 448.214 155.922 448.214 157.045H450.214ZM450.653 155.145C450.954 154.664 451.352 154.291 451.86 154.016L450.91 152.257C450.1 152.694 449.445 153.306 448.958 154.083L450.653 155.145ZM451.86 154.016C452.43 153.708 453.069 153.474 453.781 153.318L453.353 151.364C452.474 151.557 451.658 151.852 450.91 152.257L451.86 154.016ZM453.788 153.316C454.561 153.141 455.337 153.003 456.117 152.901L455.857 150.918C455.016 151.028 454.179 151.177 453.346 151.366L453.788 153.316ZM456.115 152.901C457.171 152.765 458.022 152.664 458.67 152.597L458.464 150.608C457.793 150.677 456.924 150.78 455.86 150.917L456.115 152.901ZM458.68 152.596C459.38 152.516 460.033 152.374 460.52 152.094L459.523 150.36C459.403 150.429 459.087 150.537 458.454 150.609L458.68 152.596ZM460.511 152.099C461.209 151.708 461.487 151.021 461.487 150.318H459.487C459.487 150.417 459.469 150.436 459.481 150.413C459.487 150.402 459.496 150.387 459.51 150.374C459.516 150.368 459.521 150.363 459.526 150.36C459.53 150.356 459.532 150.355 459.532 150.355L460.511 152.099ZM461.487 150.318V150.227H459.487V150.318H461.487ZM461.487 150.227C461.487 148.921 461.125 147.768 460.278 146.911L458.855 148.316C459.236 148.701 459.487 149.291 459.487 150.227H461.487ZM460.283 146.915C459.421 146.032 458.194 145.682 456.805 145.682V147.682C457.886 147.682 458.501 147.953 458.851 148.312L460.283 146.915ZM456.805 145.682C455.39 145.682 454.143 145.991 453.184 146.731L454.405 148.315C454.9 147.933 455.661 147.682 456.805 147.682V145.682ZM453.184 146.731C452.367 147.36 451.734 148.077 451.353 148.897L453.167 149.739C453.377 149.287 453.767 148.807 454.405 148.315L453.184 146.731ZM452.596 148.376L450.051 147.467L449.378 149.351L451.924 150.26L452.596 148.376ZM450.634 148.803C451.035 147.866 451.547 147.188 452.148 146.72L450.918 145.143C450.003 145.857 449.303 146.831 448.795 148.015L450.634 148.803ZM452.149 146.719C452.811 146.202 453.521 145.848 454.285 145.65L453.781 143.714C452.741 143.985 451.785 144.465 450.917 145.144L452.149 146.719ZM454.29 145.648C455.121 145.426 455.929 145.318 456.714 145.318V143.318C455.743 143.318 454.762 143.452 453.775 143.716L454.29 145.648ZM456.714 145.318C457.197 145.318 457.777 145.377 458.462 145.506L458.831 143.54C458.061 143.395 457.353 143.318 456.714 143.318V145.318ZM458.474 145.508C459.08 145.614 459.673 145.837 460.257 146.187L461.286 144.472C460.506 144.004 459.682 143.689 458.819 143.538L458.474 145.508ZM460.261 146.19C460.772 146.493 461.227 146.967 461.611 147.664L463.363 146.7C462.838 145.745 462.15 144.985 461.282 144.47L460.261 146.19ZM461.611 147.664C461.955 148.289 462.169 149.208 462.169 150.5H464.169C464.169 149.019 463.929 147.726 463.363 146.7L461.611 147.664ZM462.169 150.5V162H464.169V150.5H462.169ZM463.169 161H460.487V163H463.169V161ZM461.487 162V159.636H459.487V162H461.487ZM460.487 158.636H460.351V160.636H460.487V158.636ZM459.449 159.204C459.331 159.45 459.107 159.767 458.728 160.151L460.155 161.553C460.625 161.074 461.007 160.58 461.252 160.069L459.449 159.204ZM458.728 160.151C458.416 160.47 457.969 160.771 457.353 161.036L458.144 162.873C458.937 162.532 459.619 162.099 460.155 161.553L458.728 160.151ZM457.353 161.036C456.807 161.271 456.09 161.409 455.169 161.409V163.409C456.278 163.409 457.281 163.244 458.144 162.873L457.353 161.036ZM455.578 161C456.768 161 457.843 160.766 458.757 160.243L457.763 158.507C457.222 158.817 456.51 159 455.578 159V161ZM458.753 160.245C459.627 159.749 460.32 159.088 460.79 158.252L459.048 157.271C458.776 157.753 458.362 158.167 457.767 158.505L458.753 160.245ZM460.786 158.26C461.248 157.456 461.487 156.592 461.487 155.682H459.487C459.487 156.226 459.348 156.748 459.052 157.263L460.786 158.26ZM461.487 155.682V153.227H459.487V155.682H461.487ZM459.719 152.587C459.757 152.542 459.787 152.52 459.793 152.515C459.8 152.511 459.793 152.516 459.767 152.529C459.713 152.556 459.614 152.596 459.455 152.643L460.019 154.562C460.247 154.495 460.466 154.415 460.662 154.318C460.847 154.225 461.074 154.085 461.255 153.867L459.719 152.587ZM459.468 152.639C459.132 152.733 458.729 152.821 458.255 152.9L458.583 154.873C459.109 154.785 459.585 154.683 460.007 154.565L459.468 152.639ZM458.267 152.898C457.782 152.973 457.309 153.04 456.848 153.099L457.104 155.083C457.582 155.021 458.071 154.952 458.571 154.875L458.267 152.898ZM456.862 153.097C456.397 153.151 456.016 153.197 455.72 153.236L455.981 155.219C456.261 155.182 456.63 155.137 457.09 155.084L456.862 153.097ZM455.722 153.236C454.966 153.334 454.25 153.496 453.577 153.723L454.216 155.618C454.755 155.436 455.342 155.302 455.98 155.219L455.722 153.236ZM453.584 153.721C452.849 153.962 452.21 154.345 451.707 154.889L453.176 156.247C453.415 155.988 453.747 155.772 454.209 155.62L453.584 153.721ZM451.707 154.89C451.13 155.515 450.896 156.319 450.896 157.182H452.896C452.896 156.681 453.026 156.409 453.177 156.246L451.707 154.89ZM450.896 157.182C450.896 158.399 451.369 159.431 452.361 160.118L453.5 158.473C453.113 158.206 452.896 157.828 452.896 157.182H450.896ZM452.372 160.125C453.273 160.732 454.365 161 455.578 161V159C454.655 159 453.981 158.798 453.489 158.466L452.372 160.125ZM475.655 144.545H476.655C476.655 143.993 476.207 143.545 475.655 143.545V144.545ZM475.655 146.818V147.818C476.207 147.818 476.655 147.37 476.655 146.818H475.655ZM466.609 146.818H465.609C465.609 147.37 466.057 147.818 466.609 147.818V146.818ZM466.609 144.545V143.545C466.057 143.545 465.609 143.993 465.609 144.545H466.609ZM469.246 140.364V139.364C468.693 139.364 468.246 139.811 468.246 140.364H469.246ZM471.928 140.364H472.928C472.928 139.811 472.48 139.364 471.928 139.364V140.364ZM472.257 158.705L471.392 159.206C471.396 159.213 471.4 159.22 471.404 159.227L472.257 158.705ZM473.121 159.455L472.774 160.393C472.782 160.396 472.79 160.398 472.798 160.401L473.121 159.455ZM474.973 159.591L475.131 160.578C475.144 160.576 475.156 160.574 475.169 160.571L474.973 159.591ZM475.428 159.5L476.403 159.279C476.283 158.75 475.763 158.413 475.231 158.519L475.428 159.5ZM475.973 161.909L476.324 162.845C476.792 162.67 477.059 162.176 476.948 161.688L475.973 161.909ZM475.212 162.114L475.007 161.135C475 161.136 474.992 161.138 474.985 161.14L475.212 162.114ZM471.746 161.739L471.333 162.65L471.337 162.651L471.746 161.739ZM469.95 160.25L469.133 160.826L469.137 160.832L469.95 160.25ZM474.655 144.545V146.818H476.655V144.545H474.655ZM475.655 145.818H466.609V147.818H475.655V145.818ZM467.609 146.818V144.545H465.609V146.818H467.609ZM466.609 145.545H475.655V143.545H466.609V145.545ZM469.246 141.364H471.928V139.364H469.246V141.364ZM470.928 140.364V157H472.928V140.364H470.928ZM470.928 157C470.928 157.821 471.041 158.601 471.392 159.206L473.122 158.203C473.034 158.051 472.928 157.694 472.928 157H470.928ZM471.404 159.227C471.728 159.755 472.18 160.173 472.774 160.393L473.467 158.517C473.364 158.478 473.241 158.396 473.11 158.182L471.404 159.227ZM472.798 160.401C473.263 160.559 473.747 160.636 474.246 160.636V158.636C473.956 158.636 473.69 158.592 473.443 158.508L472.798 160.401ZM474.246 160.636C474.569 160.636 474.869 160.62 475.131 160.578L474.815 158.603C474.698 158.622 474.513 158.636 474.246 158.636V160.636ZM475.169 160.571C475.359 160.534 475.51 160.503 475.624 160.481L475.231 158.519C475.118 158.542 474.966 158.572 474.777 158.61L475.169 160.571ZM474.452 159.721L474.998 162.13L476.948 161.688L476.403 159.279L474.452 159.721ZM475.622 160.973C475.51 161.015 475.313 161.071 475.007 161.135L475.417 163.092C475.762 163.02 476.073 162.94 476.324 162.845L475.622 160.973ZM474.985 161.14C474.76 161.192 474.43 161.227 473.973 161.227V163.227C474.516 163.227 475.011 163.187 475.438 163.088L474.985 161.14ZM473.973 161.227C473.364 161.227 472.76 161.097 472.155 160.826L471.337 162.651C472.186 163.032 473.067 163.227 473.973 163.227V161.227ZM472.158 160.828C471.605 160.577 471.142 160.197 470.763 159.668L469.137 160.832C469.713 161.636 470.447 162.249 471.333 162.65L472.158 160.828ZM470.768 159.674C470.443 159.213 470.246 158.587 470.246 157.727H468.246C468.246 158.898 468.518 159.953 469.133 160.826L470.768 159.674ZM470.246 157.727V140.364H468.246V157.727H470.246ZM482.467 161.25L481.941 162.1L481.947 162.104L482.467 161.25ZM479.661 158.114L478.76 158.549L478.763 158.555L479.661 158.114ZM479.661 148.682L478.759 148.249L478.758 148.251L479.661 148.682ZM482.411 145.477L482.956 146.315L482.958 146.314L482.411 145.477ZM489.24 144.773L489.564 143.826L489.24 144.773ZM491.661 146.25L490.977 146.98L490.981 146.983L491.661 146.25ZM493.399 148.932L494.332 148.57V148.57L493.399 148.932ZM494.047 154.182V155.182C494.599 155.182 495.047 154.734 495.047 154.182H494.047ZM480.592 154.182H479.592C479.592 154.734 480.04 155.182 480.592 155.182V154.182ZM480.592 151.864V150.864C480.04 150.864 479.592 151.311 479.592 151.864H480.592ZM491.32 151.864V152.864C491.872 152.864 492.32 152.416 492.32 151.864H491.32ZM490.729 149.227L489.834 149.674L489.838 149.681L490.729 149.227ZM489.07 147.398L488.538 148.245L488.542 148.247L489.07 147.398ZM483.774 147.523L484.334 148.351L484.336 148.35L483.774 147.523ZM481.99 149.568L481.094 149.124L481.99 149.568ZM482.047 157.17L481.151 157.615L481.155 157.624L482.047 157.17ZM483.967 159.25L483.463 160.114L483.469 160.117L483.967 159.25ZM488.729 159.659L489.056 160.604L489.063 160.601L488.729 159.659ZM490.217 158.75L490.911 159.47L490.918 159.464L490.217 158.75ZM491.183 157.227L491.453 156.264C490.953 156.124 490.429 156.39 490.247 156.876L491.183 157.227ZM493.774 157.955L494.729 158.251C494.809 157.993 494.782 157.714 494.653 157.477C494.524 157.24 494.304 157.065 494.044 156.992L493.774 157.955ZM492.399 160.273L493.114 160.972L493.118 160.967L492.399 160.273ZM490.013 161.818L490.371 162.752L490.378 162.749L490.013 161.818ZM486.82 161.364C485.288 161.364 484.024 161.027 482.987 160.396L481.947 162.104C483.35 162.958 484.987 163.364 486.82 163.364V161.364ZM482.993 160.4C481.949 159.753 481.138 158.853 480.558 157.673L478.763 158.555C479.501 160.056 480.561 161.247 481.941 162.1L482.993 160.4ZM480.561 157.679C479.986 156.49 479.683 155.075 479.683 153.409H477.683C477.683 155.319 478.032 157.041 478.76 158.549L480.561 157.679ZM479.683 153.409C479.683 151.743 479.986 150.319 480.563 149.113L478.758 148.251C478.032 149.771 477.683 151.499 477.683 153.409H479.683ZM480.562 149.115C481.149 147.894 481.948 146.972 482.956 146.315L481.865 144.639C480.524 145.513 479.491 146.727 478.759 148.249L480.562 149.115ZM482.958 146.314C483.958 145.66 485.142 145.318 486.547 145.318V143.318C484.8 143.318 483.226 143.749 481.863 144.64L482.958 146.314ZM486.547 145.318C487.343 145.318 488.131 145.45 488.917 145.719L489.564 143.826C488.576 143.489 487.569 143.318 486.547 143.318V145.318ZM488.917 145.719C489.66 145.973 490.346 146.388 490.977 146.98L492.344 145.52C491.521 144.748 490.593 144.178 489.564 143.826L488.917 145.719ZM490.981 146.983C491.576 147.535 492.079 148.293 492.467 149.293L494.332 148.57C493.856 147.344 493.199 146.313 492.34 145.517L490.981 146.983ZM492.467 149.293C492.841 150.258 493.047 151.498 493.047 153.045H495.047C495.047 151.335 494.821 149.833 494.332 148.57L492.467 149.293ZM493.047 153.045V154.182H495.047V153.045H493.047ZM494.047 153.182H480.592V155.182H494.047V153.182ZM481.592 154.182V151.864H479.592V154.182H481.592ZM480.592 152.864H491.32V150.864H480.592V152.864ZM492.32 151.864C492.32 150.742 492.094 149.704 491.62 148.773L489.838 149.681C490.151 150.296 490.32 151.015 490.32 151.864H492.32ZM491.623 148.78C491.156 147.845 490.477 147.095 489.597 146.548L488.542 148.247C489.101 148.595 489.529 149.064 489.834 149.674L491.623 148.78ZM489.601 146.551C488.707 145.989 487.675 145.727 486.547 145.727V147.727C487.358 147.727 488.008 147.912 488.538 148.245L489.601 146.551ZM486.547 145.727C485.306 145.727 484.179 146.038 483.212 146.696L484.336 148.35C484.929 147.947 485.652 147.727 486.547 147.727V145.727ZM483.214 146.694C482.297 147.315 481.587 148.129 481.094 149.124L482.886 150.012C483.226 149.325 483.706 148.776 484.334 148.351L483.214 146.694ZM481.094 149.124C480.607 150.107 480.365 151.161 480.365 152.273H482.365C482.365 151.461 482.54 150.712 482.886 150.012L481.094 149.124ZM480.365 152.273V153.818H482.365V152.273H480.365ZM480.365 153.818C480.365 155.248 480.611 156.526 481.151 157.615L482.943 156.726C482.574 155.982 482.365 155.025 482.365 153.818H480.365ZM481.155 157.624C481.698 158.69 482.467 159.532 483.463 160.114L484.471 158.386C483.832 158.013 483.32 157.469 482.938 156.717L481.155 157.624ZM483.469 160.117C484.46 160.686 485.588 160.955 486.82 160.955V158.955C485.885 158.955 485.111 158.753 484.465 158.383L483.469 160.117ZM486.82 160.955C487.617 160.955 488.366 160.843 489.056 160.604L488.401 158.714C487.955 158.869 487.431 158.955 486.82 158.955V160.955ZM489.063 160.601C489.766 160.352 490.386 159.976 490.911 159.47L489.523 158.03C489.215 158.327 488.843 158.557 488.394 158.717L489.063 160.601ZM490.918 159.464C491.449 158.942 491.847 158.306 492.12 157.578L490.247 156.876C490.065 157.361 489.819 157.74 489.517 158.036L490.918 159.464ZM490.913 158.19L493.504 158.917L494.044 156.992L491.453 156.264L490.913 158.19ZM492.819 157.658C492.593 158.386 492.216 159.023 491.68 159.578L493.118 160.967C493.87 160.189 494.41 159.28 494.729 158.251L492.819 157.658ZM491.684 159.574C491.149 160.122 490.477 160.562 489.648 160.887L490.378 162.749C491.443 162.332 492.362 161.742 493.114 160.972L491.684 159.574ZM489.654 160.885C488.839 161.198 487.899 161.364 486.82 161.364V163.364C488.104 163.364 489.293 163.166 490.371 162.752L489.654 160.885ZM509.251 161.784L508.826 162.689L508.832 162.692L509.251 161.784ZM507.104 159.955L506.269 160.506L506.272 160.509L507.104 159.955ZM506.899 154.614L507.744 155.149L507.747 155.145L506.899 154.614ZM510.661 152.341L510.874 153.318L510.881 153.316L510.661 152.341ZM513.081 151.909L512.953 150.917L512.951 150.918L513.081 151.909ZM515.661 151.602L515.763 152.597L515.773 152.596L515.661 151.602ZM517.115 151.227L516.626 150.355L516.617 150.36L517.115 151.227ZM516.661 147.614L515.945 148.312L515.949 148.316L516.661 147.614ZM510.888 147.523L511.498 148.315L510.888 147.523ZM509.354 149.318L509.017 150.26C509.504 150.434 510.043 150.208 510.261 149.739L509.354 149.318ZM506.808 148.409L505.889 148.015C505.78 148.269 505.781 148.556 505.892 148.809C506.002 149.062 506.212 149.258 506.472 149.351L506.808 148.409ZM508.626 145.932L509.241 146.72L509.243 146.719L508.626 145.932ZM511.126 144.682L511.379 145.65L511.384 145.648L511.126 144.682ZM515.74 144.523L515.556 145.506L515.567 145.508L515.74 144.523ZM517.865 145.33L517.351 146.187L517.355 146.19L517.865 145.33ZM519.581 147.182L518.705 147.664L519.581 147.182ZM520.263 162V163C520.815 163 521.263 162.552 521.263 162H520.263ZM517.581 162H516.581C516.581 162.552 517.029 163 517.581 163V162ZM517.581 159.636H518.581C518.581 159.084 518.133 158.636 517.581 158.636V159.636ZM517.445 159.636V158.636C517.06 158.636 516.71 158.857 516.543 159.204L517.445 159.636ZM516.536 160.852L517.249 161.553L516.536 160.852ZM514.842 161.955L514.447 161.036L514.842 161.955ZM515.354 159.375L514.86 158.505L514.857 158.507L515.354 159.375ZM517.013 157.761L516.146 157.263L516.141 157.271L517.013 157.761ZM517.581 153.227H518.581C518.581 152.806 518.317 152.43 517.921 152.287C517.526 152.144 517.082 152.264 516.813 152.587L517.581 153.227ZM516.831 153.602L517.101 154.565L517.113 154.562L516.831 153.602ZM515.513 153.886L515.665 154.875L515.677 154.873L515.513 153.886ZM514.07 154.091L514.184 155.084L514.198 155.083L514.07 154.091ZM512.945 154.227L513.074 155.219L513.075 155.219L512.945 154.227ZM510.99 154.67L511.303 155.62L511.31 155.618L510.99 154.67ZM509.536 155.568L508.801 154.889L508.801 154.89L509.536 155.568ZM510.024 159.295L509.455 160.118L509.465 160.125L510.024 159.295ZM512.263 161.409C511.285 161.409 510.427 161.226 509.671 160.876L508.832 162.692C509.879 163.176 511.028 163.409 512.263 163.409V161.409ZM509.677 160.879C508.933 160.529 508.361 160.037 507.936 159.4L506.272 160.509C506.907 161.463 507.767 162.191 508.826 162.689L509.677 160.879ZM507.938 159.403C507.534 158.792 507.308 158.022 507.308 157.045H505.308C505.308 158.342 505.613 159.511 506.269 160.506L507.938 159.403ZM507.308 157.045C507.308 156.169 507.482 155.562 507.744 155.149L506.055 154.078C505.529 154.907 505.308 155.922 505.308 157.045H507.308ZM507.747 155.145C508.048 154.664 508.445 154.291 508.954 154.016L508.003 152.257C507.194 152.694 506.538 153.306 506.052 154.083L507.747 155.145ZM508.954 154.016C509.524 153.708 510.162 153.474 510.874 153.318L510.447 151.364C509.568 151.557 508.751 151.852 508.003 152.257L508.954 154.016ZM510.881 153.316C511.654 153.141 512.431 153.003 513.211 152.901L512.951 150.918C512.11 151.028 511.273 151.177 510.44 151.366L510.881 153.316ZM513.208 152.901C514.265 152.765 515.116 152.664 515.763 152.597L515.558 150.608C514.887 150.677 514.018 150.78 512.953 150.917L513.208 152.901ZM515.773 152.596C516.474 152.516 517.127 152.374 517.614 152.094L516.617 150.36C516.497 150.429 516.18 150.537 515.548 150.609L515.773 152.596ZM517.604 152.099C518.302 151.708 518.581 151.021 518.581 150.318H516.581C516.581 150.417 516.563 150.436 516.575 150.413C516.58 150.402 516.59 150.387 516.603 150.374C516.609 150.368 516.615 150.363 516.619 150.36C516.624 150.356 516.626 150.355 516.626 150.355L517.604 152.099ZM518.581 150.318V150.227H516.581V150.318H518.581ZM518.581 150.227C518.581 148.921 518.219 147.768 517.372 146.911L515.949 148.316C516.329 148.701 516.581 149.291 516.581 150.227H518.581ZM517.376 146.915C516.514 146.032 515.288 145.682 513.899 145.682V147.682C514.98 147.682 515.595 147.953 515.945 148.312L517.376 146.915ZM513.899 145.682C512.483 145.682 511.237 145.991 510.277 146.731L511.498 148.315C511.993 147.933 512.754 147.682 513.899 147.682V145.682ZM510.277 146.731C509.461 147.36 508.827 148.077 508.447 148.897L510.261 149.739C510.471 149.287 510.86 148.807 511.498 148.315L510.277 146.731ZM509.69 148.376L507.145 147.467L506.472 149.351L509.017 150.26L509.69 148.376ZM507.727 148.803C508.129 147.866 508.641 147.188 509.241 146.72L508.011 145.143C507.096 145.857 506.397 146.831 505.889 148.015L507.727 148.803ZM509.243 146.719C509.905 146.202 510.615 145.848 511.379 145.65L510.874 143.714C509.835 143.985 508.879 144.465 508.01 145.144L509.243 146.719ZM511.384 145.648C512.215 145.426 513.022 145.318 513.808 145.318V143.318C512.837 143.318 511.856 143.452 510.869 143.716L511.384 145.648ZM513.808 145.318C514.291 145.318 514.871 145.377 515.556 145.506L515.924 143.54C515.154 143.395 514.447 143.318 513.808 143.318V145.318ZM515.567 145.508C516.174 145.614 516.767 145.837 517.351 146.187L518.38 144.472C517.6 144.004 516.776 143.689 515.913 143.538L515.567 145.508ZM517.355 146.19C517.866 146.493 518.321 146.967 518.705 147.664L520.457 146.7C519.932 145.745 519.243 144.985 518.375 144.47L517.355 146.19ZM518.705 147.664C519.049 148.289 519.263 149.208 519.263 150.5H521.263C521.263 149.019 521.022 147.726 520.457 146.7L518.705 147.664ZM519.263 150.5V162H521.263V150.5H519.263ZM520.263 161H517.581V163H520.263V161ZM518.581 162V159.636H516.581V162H518.581ZM517.581 158.636H517.445V160.636H517.581V158.636ZM516.543 159.204C516.425 159.45 516.2 159.767 515.822 160.151L517.249 161.553C517.719 161.074 518.101 160.58 518.346 160.069L516.543 159.204ZM515.822 160.151C515.51 160.47 515.063 160.771 514.447 161.036L515.237 162.873C516.031 162.532 516.713 162.099 517.249 161.553L515.822 160.151ZM514.447 161.036C513.901 161.271 513.184 161.409 512.263 161.409V163.409C513.372 163.409 514.375 163.244 515.237 162.873L514.447 161.036ZM512.672 161C513.861 161 514.937 160.766 515.851 160.243L514.857 158.507C514.316 158.817 513.604 159 512.672 159V161ZM515.847 160.245C516.721 159.749 517.414 159.088 517.884 158.252L516.141 157.271C515.87 157.753 515.456 158.167 514.86 158.505L515.847 160.245ZM517.88 158.26C518.342 157.456 518.581 156.592 518.581 155.682H516.581C516.581 156.226 516.442 156.748 516.146 157.263L517.88 158.26ZM518.581 155.682V153.227H516.581V155.682H518.581ZM516.813 152.587C516.85 152.542 516.88 152.52 516.887 152.515C516.893 152.511 516.887 152.516 516.861 152.529C516.807 152.556 516.708 152.596 516.549 152.643L517.113 154.562C517.341 154.495 517.56 154.415 517.755 154.318C517.941 154.225 518.168 154.085 518.349 153.867L516.813 152.587ZM516.561 152.639C516.225 152.733 515.822 152.821 515.348 152.9L515.677 154.873C516.203 154.785 516.679 154.683 517.101 154.565L516.561 152.639ZM515.361 152.898C514.876 152.973 514.403 153.04 513.942 153.099L514.198 155.083C514.676 155.021 515.165 154.952 515.665 154.875L515.361 152.898ZM513.956 153.097C513.491 153.151 513.11 153.197 512.814 153.236L513.075 155.219C513.355 155.182 513.724 155.137 514.184 155.084L513.956 153.097ZM512.815 153.236C512.06 153.334 511.344 153.496 510.67 153.723L511.31 155.618C511.848 155.436 512.435 155.302 513.074 155.219L512.815 153.236ZM510.677 153.721C509.942 153.962 509.304 154.345 508.801 154.889L510.27 156.247C510.509 155.988 510.841 155.772 511.303 155.62L510.677 153.721ZM508.801 154.89C508.224 155.515 507.99 156.319 507.99 157.182H509.99C509.99 156.681 510.12 156.409 510.27 156.246L508.801 154.89ZM507.99 157.182C507.99 158.399 508.462 159.431 509.455 160.118L510.593 158.473C510.207 158.206 509.99 157.828 509.99 157.182H507.99ZM509.465 160.125C510.367 160.732 511.458 161 512.672 161V159C511.749 159 511.075 158.798 510.583 158.466L509.465 160.125ZM527.839 162V163C528.392 163 528.839 162.552 528.839 162H527.839ZM525.158 162H524.158C524.158 162.552 524.605 163 525.158 163V162ZM525.158 144.545V143.545C524.605 143.545 524.158 143.993 524.158 144.545H525.158ZM527.749 144.545H528.749C528.749 143.993 528.301 143.545 527.749 143.545V144.545ZM527.749 147.273H526.749C526.749 147.825 527.196 148.273 527.749 148.273V147.273ZM527.976 147.273V148.273C528.366 148.273 528.72 148.046 528.884 147.692L527.976 147.273ZM529.839 145.136L530.382 145.977L530.387 145.973L529.839 145.136ZM536.169 145.045L535.689 145.923L535.695 145.926L536.169 145.045ZM538.237 147.227L537.344 147.677L537.346 147.68L538.237 147.227ZM538.976 162V163C539.528 163 539.976 162.552 539.976 162H538.976ZM536.294 162H535.294C535.294 162.552 535.742 163 536.294 163V162ZM535.226 147.886L534.49 148.564L534.494 148.568L535.226 147.886ZM529.999 147.284L529.516 146.408L529.512 146.41L529.999 147.284ZM528.419 148.909L527.54 148.432L528.419 148.909ZM526.839 151.5V162H528.839V151.5H526.839ZM527.839 161H525.158V163H527.839V161ZM526.158 162V144.545H524.158V162H526.158ZM525.158 145.545H527.749V143.545H525.158V145.545ZM526.749 144.545V147.273H528.749V144.545H526.749ZM527.749 148.273H527.976V146.273H527.749V148.273ZM528.884 147.692C529.212 146.981 529.705 146.413 530.382 145.977L529.297 144.296C528.307 144.935 527.558 145.792 527.068 146.854L528.884 147.692ZM530.387 145.973C531.013 145.564 531.881 145.318 533.067 145.318V143.318C531.616 143.318 530.333 143.618 529.292 144.3L530.387 145.973ZM533.067 145.318C534.109 145.318 534.973 145.531 535.689 145.923L536.649 144.168C535.592 143.59 534.388 143.318 533.067 143.318V145.318ZM535.695 145.926C536.385 146.298 536.936 146.866 537.344 147.677L539.13 146.777C538.554 145.634 537.726 144.748 536.643 144.165L535.695 145.926ZM537.346 147.68C537.746 148.468 537.976 149.527 537.976 150.909H539.976C539.976 149.321 539.714 147.926 539.129 146.774L537.346 147.68ZM537.976 150.909V162H539.976V150.909H537.976ZM538.976 161H536.294V163H538.976V161ZM537.294 162V151.091H535.294V162H537.294ZM537.294 151.091C537.294 149.548 536.89 148.207 535.958 147.205L534.494 148.568C534.985 149.096 535.294 149.891 535.294 151.091H537.294ZM535.961 147.209C535.025 146.193 533.76 145.727 532.294 145.727V147.727C533.313 147.727 534.002 148.034 534.49 148.564L535.961 147.209ZM532.294 145.727C531.289 145.727 530.354 145.947 529.516 146.408L530.481 148.16C530.991 147.879 531.587 147.727 532.294 147.727V145.727ZM529.512 146.41C528.669 146.88 528.011 147.564 527.54 148.432L529.298 149.386C529.6 148.83 529.995 148.431 530.485 148.158L529.512 146.41ZM527.54 148.432C527.057 149.323 526.839 150.36 526.839 151.5H528.839C528.839 150.61 529.009 149.919 529.298 149.386L527.54 148.432ZM553.24 162H552.24C552.24 162.552 552.688 163 553.24 163V162ZM553.24 138.727V137.727C552.688 137.727 552.24 138.175 552.24 138.727H553.24ZM567.286 138.727H568.286C568.286 138.175 567.838 137.727 567.286 137.727V138.727ZM567.286 141.227V142.227C567.838 142.227 568.286 141.78 568.286 141.227H567.286ZM556.058 141.227V140.227C555.506 140.227 555.058 140.675 555.058 141.227H556.058ZM556.058 149.091H555.058C555.058 149.643 555.506 150.091 556.058 150.091V149.091ZM566.558 149.091H567.558C567.558 148.539 567.111 148.091 566.558 148.091V149.091ZM566.558 151.591V152.591C567.111 152.591 567.558 152.143 567.558 151.591H566.558ZM556.058 151.591V150.591C555.506 150.591 555.058 151.039 555.058 151.591H556.058ZM556.058 159.5H555.058C555.058 160.052 555.506 160.5 556.058 160.5V159.5ZM567.467 159.5H568.467C568.467 158.948 568.02 158.5 567.467 158.5V159.5ZM567.467 162V163C568.02 163 568.467 162.552 568.467 162H567.467ZM554.24 162V138.727H552.24V162H554.24ZM553.24 139.727H567.286V137.727H553.24V139.727ZM566.286 138.727V141.227H568.286V138.727H566.286ZM567.286 140.227H556.058V142.227H567.286V140.227ZM555.058 141.227V149.091H557.058V141.227H555.058ZM556.058 150.091H566.558V148.091H556.058V150.091ZM565.558 149.091V151.591H567.558V149.091H565.558ZM566.558 150.591H556.058V152.591H566.558V150.591ZM555.058 151.591V159.5H557.058V151.591H555.058ZM556.058 160.5H567.467V158.5H556.058V160.5ZM566.467 159.5V162H568.467V159.5H566.467ZM567.467 161H553.24V163H567.467V161ZM586.274 144.545L587.212 144.892C587.326 144.585 587.282 144.242 587.095 143.974C586.908 143.705 586.601 143.545 586.274 143.545V144.545ZM579.82 162V163C580.238 163 580.612 162.739 580.758 162.347L579.82 162ZM577.092 162L576.154 162.347C576.3 162.739 576.674 163 577.092 163V162ZM570.638 144.545V143.545C570.311 143.545 570.004 143.705 569.817 143.974C569.63 144.242 569.586 144.585 569.7 144.892L570.638 144.545ZM573.547 144.545L574.492 144.218C574.352 143.815 573.973 143.545 573.547 143.545V144.545ZM578.365 158.455L577.42 158.782C577.56 159.185 577.939 159.455 578.365 159.455V158.455ZM578.547 158.455V159.455C578.973 159.455 579.352 159.185 579.492 158.782L578.547 158.455ZM583.365 144.545V143.545C582.939 143.545 582.56 143.815 582.42 144.218L583.365 144.545ZM585.336 144.199L578.882 161.653L580.758 162.347L587.212 144.892L585.336 144.199ZM579.82 161H577.092V163H579.82V161ZM578.03 161.653L571.576 144.199L569.7 144.892L576.154 162.347L578.03 161.653ZM570.638 145.545H573.547V143.545H570.638V145.545ZM572.602 144.873L577.42 158.782L579.31 158.127L574.492 144.218L572.602 144.873ZM578.365 159.455H578.547V157.455H578.365V159.455ZM579.492 158.782L584.31 144.873L582.42 144.218L577.602 158.127L579.492 158.782ZM583.365 145.545H586.274V143.545H583.365V145.545ZM592.155 161.25L591.629 162.1L591.635 162.104L592.155 161.25ZM589.348 158.114L588.448 158.549L588.451 158.555L589.348 158.114ZM589.348 148.682L588.447 148.249L588.446 148.251L589.348 148.682ZM592.098 145.477L592.644 146.315L592.645 146.314L592.098 145.477ZM598.928 144.773L599.251 143.826L598.928 144.773ZM601.348 146.25L600.664 146.98L600.668 146.983L601.348 146.25ZM603.087 148.932L604.019 148.57V148.57L603.087 148.932ZM603.734 154.182V155.182C604.287 155.182 604.734 154.734 604.734 154.182H603.734ZM590.28 154.182H589.28C589.28 154.734 589.728 155.182 590.28 155.182V154.182ZM590.28 151.864V150.864C589.728 150.864 589.28 151.311 589.28 151.864H590.28ZM601.007 151.864V152.864C601.559 152.864 602.007 152.416 602.007 151.864H601.007ZM600.416 149.227L599.522 149.674L599.525 149.681L600.416 149.227ZM598.757 147.398L598.225 148.245L598.23 148.247L598.757 147.398ZM593.462 147.523L594.022 148.351L594.024 148.35L593.462 147.523ZM591.678 149.568L590.782 149.124L591.678 149.568ZM591.734 157.17L590.838 157.615L590.843 157.624L591.734 157.17ZM593.655 159.25L593.151 160.114L593.157 160.117L593.655 159.25ZM598.416 159.659L598.744 160.604L598.751 160.601L598.416 159.659ZM599.905 158.75L600.599 159.47L600.605 159.464L599.905 158.75ZM600.871 157.227L601.141 156.264C600.641 156.124 600.117 156.39 599.934 156.876L600.871 157.227ZM603.462 157.955L604.417 158.251C604.497 157.993 604.469 157.714 604.34 157.477C604.211 157.24 603.992 157.065 603.732 156.992L603.462 157.955ZM602.087 160.273L602.802 160.972L602.806 160.967L602.087 160.273ZM599.7 161.818L600.059 162.752L600.065 162.749L599.7 161.818ZM596.507 161.364C594.976 161.364 593.712 161.027 592.675 160.396L591.635 162.104C593.037 162.958 594.675 163.364 596.507 163.364V161.364ZM592.681 160.4C591.637 159.753 590.826 158.853 590.245 157.673L588.451 158.555C589.188 160.056 590.249 161.247 591.629 162.1L592.681 160.4ZM590.248 157.679C589.674 156.49 589.371 155.075 589.371 153.409H587.371C587.371 155.319 587.719 157.041 588.448 158.549L590.248 157.679ZM589.371 153.409C589.371 151.743 589.674 150.319 590.25 149.113L588.446 148.251C587.719 149.771 587.371 151.499 587.371 153.409H589.371ZM590.249 149.115C590.836 147.894 591.636 146.972 592.644 146.315L591.552 144.639C590.212 145.513 589.178 146.727 588.447 148.249L590.249 149.115ZM592.645 146.314C593.646 145.66 594.83 145.318 596.234 145.318V143.318C594.488 143.318 592.914 143.749 591.551 144.64L592.645 146.314ZM596.234 145.318C597.03 145.318 597.819 145.45 598.604 145.719L599.251 143.826C598.264 143.489 597.257 143.318 596.234 143.318V145.318ZM598.604 145.719C599.348 145.973 600.033 146.388 600.664 146.98L602.032 145.52C601.208 144.748 600.28 144.178 599.251 143.826L598.604 145.719ZM600.668 146.983C601.264 147.535 601.766 148.293 602.154 149.293L604.019 148.57C603.543 147.344 602.887 146.313 602.028 145.517L600.668 146.983ZM602.154 149.293C602.528 150.258 602.734 151.498 602.734 153.045H604.734C604.734 151.335 604.509 149.833 604.019 148.57L602.154 149.293ZM602.734 153.045V154.182H604.734V153.045H602.734ZM603.734 153.182H590.28V155.182H603.734V153.182ZM591.28 154.182V151.864H589.28V154.182H591.28ZM590.28 152.864H601.007V150.864H590.28V152.864ZM602.007 151.864C602.007 150.742 601.782 149.704 601.307 148.773L599.525 149.681C599.838 150.296 600.007 151.015 600.007 151.864H602.007ZM601.311 148.78C600.843 147.845 600.165 147.095 599.285 146.548L598.23 148.247C598.789 148.595 599.216 149.064 599.522 149.674L601.311 148.78ZM599.289 146.551C598.394 145.989 597.363 145.727 596.234 145.727V147.727C597.045 147.727 597.696 147.912 598.225 148.245L599.289 146.551ZM596.234 145.727C594.993 145.727 593.867 146.038 592.9 146.696L594.024 148.35C594.617 147.947 595.339 147.727 596.234 147.727V145.727ZM592.901 146.694C591.984 147.315 591.275 148.129 590.782 149.124L592.574 150.012C592.914 149.325 593.393 148.776 594.022 148.351L592.901 146.694ZM590.782 149.124C590.295 150.107 590.053 151.161 590.053 152.273H592.053C592.053 151.461 592.227 150.712 592.574 150.012L590.782 149.124ZM590.053 152.273V153.818H592.053V152.273H590.053ZM590.053 153.818C590.053 155.248 590.299 156.526 590.838 157.615L592.63 156.726C592.261 155.982 592.053 155.025 592.053 153.818H590.053ZM590.843 157.624C591.385 158.69 592.154 159.532 593.151 160.114L594.159 158.386C593.519 158.013 593.008 157.469 592.626 156.717L590.843 157.624ZM593.157 160.117C594.148 160.686 595.275 160.955 596.507 160.955V158.955C595.572 158.955 594.798 158.753 594.153 158.383L593.157 160.117ZM596.507 160.955C597.304 160.955 598.054 160.843 598.744 160.604L598.089 158.714C597.642 158.869 597.119 158.955 596.507 158.955V160.955ZM598.751 160.601C599.453 160.352 600.074 159.976 600.599 159.47L599.211 158.03C598.902 158.327 598.531 158.557 598.081 158.717L598.751 160.601ZM600.605 159.464C601.137 158.942 601.534 158.306 601.807 157.578L599.934 156.876C599.753 157.361 599.506 157.74 599.204 158.036L600.605 159.464ZM600.6 158.19L603.191 158.917L603.732 156.992L601.141 156.264L600.6 158.19ZM602.507 157.658C602.281 158.386 601.903 159.023 601.367 159.578L602.806 160.967C603.558 160.189 604.097 159.28 604.417 158.251L602.507 157.658ZM601.371 159.574C600.836 160.122 600.164 160.562 599.335 160.887L600.065 162.749C601.13 162.332 602.049 161.742 602.802 160.972L601.371 159.574ZM599.342 160.885C598.526 161.198 597.586 161.364 596.507 161.364V163.364C597.792 163.364 598.98 163.166 600.059 162.752L599.342 160.885ZM610.496 162V163C611.048 163 611.496 162.552 611.496 162H610.496ZM607.814 162H606.814C606.814 162.552 607.262 163 607.814 163V162ZM607.814 144.545V143.545C607.262 143.545 606.814 143.993 606.814 144.545H607.814ZM610.405 144.545H611.405C611.405 143.993 610.957 143.545 610.405 143.545V144.545ZM610.405 147.273H609.405C609.405 147.825 609.853 148.273 610.405 148.273V147.273ZM610.632 147.273V148.273C611.022 148.273 611.377 148.046 611.54 147.692L610.632 147.273ZM612.496 145.136L613.038 145.977L613.043 145.973L612.496 145.136ZM618.825 145.045L618.345 145.923L618.351 145.926L618.825 145.045ZM620.893 147.227L620 147.677L620.002 147.68L620.893 147.227ZM621.632 162V163C622.184 163 622.632 162.552 622.632 162H621.632ZM618.95 162H617.95C617.95 162.552 618.398 163 618.95 163V162ZM617.882 147.886L617.147 148.564L617.15 148.568L617.882 147.886ZM612.655 147.284L612.173 146.408L612.168 146.41L612.655 147.284ZM611.075 148.909L610.196 148.432L611.075 148.909ZM609.496 151.5V162H611.496V151.5H609.496ZM610.496 161H607.814V163H610.496V161ZM608.814 162V144.545H606.814V162H608.814ZM607.814 145.545H610.405V143.545H607.814V145.545ZM609.405 144.545V147.273H611.405V144.545H609.405ZM610.405 148.273H610.632V146.273H610.405V148.273ZM611.54 147.692C611.868 146.981 612.361 146.413 613.038 145.977L611.953 144.296C610.963 144.935 610.214 145.792 609.724 146.854L611.54 147.692ZM613.043 145.973C613.669 145.564 614.538 145.318 615.723 145.318V143.318C614.272 143.318 612.989 143.618 611.948 144.3L613.043 145.973ZM615.723 145.318C616.766 145.318 617.629 145.531 618.345 145.923L619.305 144.168C618.248 143.59 617.044 143.318 615.723 143.318V145.318ZM618.351 145.926C619.041 146.298 619.592 146.866 620 147.677L621.786 146.777C621.21 145.634 620.382 144.748 619.299 144.165L618.351 145.926ZM620.002 147.68C620.402 148.468 620.632 149.527 620.632 150.909H622.632C622.632 149.321 622.37 147.926 621.785 146.774L620.002 147.68ZM620.632 150.909V162H622.632V150.909H620.632ZM621.632 161H618.95V163H621.632V161ZM619.95 162V151.091H617.95V162H619.95ZM619.95 151.091C619.95 149.548 619.547 148.207 618.614 147.205L617.15 148.568C617.642 149.096 617.95 149.891 617.95 151.091H619.95ZM618.617 147.209C617.681 146.193 616.417 145.727 614.95 145.727V147.727C615.969 147.727 616.659 148.034 617.147 148.564L618.617 147.209ZM614.95 145.727C613.945 145.727 613.011 145.947 612.173 146.408L613.137 148.16C613.648 147.879 614.244 147.727 614.95 147.727V145.727ZM612.168 146.41C611.325 146.88 610.667 147.564 610.196 148.432L611.954 149.386C612.256 148.83 612.651 148.431 613.141 148.158L612.168 146.41ZM610.196 148.432C609.713 149.323 609.496 150.36 609.496 151.5H611.496C611.496 150.61 611.665 149.919 611.954 149.386L610.196 148.432ZM634.124 144.545H635.124C635.124 143.993 634.676 143.545 634.124 143.545V144.545ZM634.124 146.818V147.818C634.676 147.818 635.124 147.37 635.124 146.818H634.124ZM625.078 146.818H624.078C624.078 147.37 624.526 147.818 625.078 147.818V146.818ZM625.078 144.545V143.545C624.526 143.545 624.078 143.993 624.078 144.545H625.078ZM627.714 140.364V139.364C627.162 139.364 626.714 139.811 626.714 140.364H627.714ZM630.396 140.364H631.396C631.396 139.811 630.949 139.364 630.396 139.364V140.364ZM630.726 158.705L629.861 159.206C629.865 159.213 629.869 159.22 629.873 159.227L630.726 158.705ZM631.589 159.455L631.243 160.393C631.251 160.396 631.259 160.398 631.267 160.401L631.589 159.455ZM633.442 159.591L633.6 160.578C633.613 160.576 633.625 160.574 633.638 160.571L633.442 159.591ZM633.896 159.5L634.872 159.279C634.752 158.75 634.232 158.413 633.7 158.519L633.896 159.5ZM634.442 161.909L634.793 162.845C635.261 162.67 635.527 162.176 635.417 161.688L634.442 161.909ZM633.68 162.114L633.476 161.135C633.468 161.136 633.461 161.138 633.454 161.14L633.68 162.114ZM630.214 161.739L629.802 162.65L629.806 162.651L630.214 161.739ZM628.419 160.25L627.602 160.826L627.606 160.832L628.419 160.25ZM633.124 144.545V146.818H635.124V144.545H633.124ZM634.124 145.818H625.078V147.818H634.124V145.818ZM626.078 146.818V144.545H624.078V146.818H626.078ZM625.078 145.545H634.124V143.545H625.078V145.545ZM627.714 141.364H630.396V139.364H627.714V141.364ZM629.396 140.364V157H631.396V140.364H629.396ZM629.396 157C629.396 157.821 629.51 158.601 629.861 159.206L631.591 158.203C631.503 158.051 631.396 157.694 631.396 157H629.396ZM629.873 159.227C630.197 159.755 630.649 160.173 631.243 160.393L631.936 158.517C631.833 158.478 631.71 158.396 631.579 158.182L629.873 159.227ZM631.267 160.401C631.732 160.559 632.216 160.636 632.714 160.636V158.636C632.425 158.636 632.159 158.592 631.912 158.508L631.267 160.401ZM632.714 160.636C633.038 160.636 633.338 160.62 633.6 160.578L633.284 158.603C633.167 158.622 632.982 158.636 632.714 158.636V160.636ZM633.638 160.571C633.827 160.534 633.979 160.503 634.092 160.481L633.7 158.519C633.587 158.542 633.435 158.572 633.246 158.61L633.638 160.571ZM632.921 159.721L633.466 162.13L635.417 161.688L634.872 159.279L632.921 159.721ZM634.091 160.973C633.978 161.015 633.781 161.071 633.476 161.135L633.885 163.092C634.231 163.02 634.542 162.94 634.793 162.845L634.091 160.973ZM633.454 161.14C633.229 161.192 632.899 161.227 632.442 161.227V163.227C632.984 163.227 633.48 163.187 633.907 163.088L633.454 161.14ZM632.442 161.227C631.832 161.227 631.229 161.097 630.623 160.826L629.806 162.651C630.655 163.032 631.536 163.227 632.442 163.227V161.227ZM630.627 160.828C630.074 160.577 629.611 160.197 629.232 159.668L627.606 160.832C628.182 161.636 628.916 162.249 629.802 162.65L630.627 160.828ZM629.237 159.674C628.912 159.213 628.714 158.587 628.714 157.727H626.714C626.714 158.898 626.987 159.953 627.602 160.826L629.237 159.674ZM628.714 157.727V140.364H626.714V157.727H628.714Z" fill="#293728"/>
<defs>
<filter id="filter0_d_15_122" x="224" y="65" width="582" height="512" filterUnits="userSpaceOnUse" color-interpolation-filters="sRGB">
<feFlood flood-opacity="0" result="BackgroundImageFix"/>
<feColorMatrix in="SourceAlpha" type="matrix" values="0 0 0 0 0 0 0 0 0 0 0 0 0 0 0 0 0 0 127 0" result="hardAlpha"/>
<feOffset dy="4"/>
<feGaussianBlur stdDeviation="2"/>
<feComposite in2="hardAlpha" operator="out"/>
<feColorMatrix type="matrix" values="0 0 0 0 0 0 0 0 0 0 0 0 0 0 0 0 0 0 0.25 0"/>
<feBlend mode="normal" in2="BackgroundImageFix" result="effect1_dropShadow_15_122"/>
<feBlend mode="normal" in="SourceGraphic" in2="effect1_dropShadow_15_122" result="shape"/>
</filter>
<filter id="filter1_d_15_122" x="72.7017" y="9.45453" width="19.4702" height="22.5455" filterUnits="userSpaceOnUse" color-interpolation-filters="sRGB">
<feFlood flood-opacity="0" result="BackgroundImageFix"/>
<feColorMatrix in="SourceAlpha" type="matrix" values="0 0 0 0 0 0 0 0 0 0 0 0 0 0 0 0 0 0 127 0" result="hardAlpha"/>
<feOffset dy="4"/>
<feGaussianBlur stdDeviation="2"/>
<feComposite in2="hardAlpha" operator="out"/>
<feColorMatrix type="matrix" values="0 0 0 0 0 0 0 0 0 0 0 0 0 0 0 0 0 0 0.25 0"/>
<feBlend mode="normal" in2="BackgroundImageFix" result="effect1_dropShadow_15_122"/>
<feBlend mode="normal" in="SourceGraphic" in2="effect1_dropShadow_15_122" result="shape"/>
</filter>
<filter id="filter2_d_15_122" x="82.7017" y="25" width="19.4702" height="22.5455" filterUnits="userSpaceOnUse" color-interpolation-filters="sRGB">
<feFlood flood-opacity="0" result="BackgroundImageFix"/>
<feColorMatrix in="SourceAlpha" type="matrix" values="0 0 0 0 0 0 0 0 0 0 0 0 0 0 0 0 0 0 127 0" result="hardAlpha"/>
<feOffset dy="4"/>
<feGaussianBlur stdDeviation="2"/>
<feComposite in2="hardAlpha" operator="out"/>
<feColorMatrix type="matrix" values="0 0 0 0 0 0 0 0 0 0 0 0 0 0 0 0 0 0 0.25 0"/>
<feBlend mode="normal" in2="BackgroundImageFix" result="effect1_dropShadow_15_122"/>
<feBlend mode="normal" in="SourceGraphic" in2="effect1_dropShadow_15_122" result="shape"/>
</filter>
</defs>
</svg>
