<svg width="1029" height="585" viewBox="0 0 1029 585" fill="none" xmlns="http://www.w3.org/2000/svg">
<rect y="0.039917" width="1029" height="584" fill="#D9D9D9"/>
<path fill-rule="evenodd" clip-rule="evenodd" d="M457.346 584.007L552.621 575.73C647.897 567.94 838.447 551.386 914.667 535.324C990.887 519.261 952.776 502.717 952.776 486.657C952.775 470.597 990.885 454.05 971.829 437.991C952.773 421.932 876.552 405.389 876.551 389.329C876.551 373.27 952.771 356.72 895.605 340.663C838.439 324.606 647.887 308.067 647.886 292.007C647.885 275.948 984.362 312.47 933.711 243.331C883.06 174.191 981.847 167.702 990.875 194.663C999.902 221.624 876.543 162.062 724.101 146.008C571.659 129.954 342.997 113.417 228.665 97.362C114.334 81.3069 114.333 64.7606 95.2776 48.7018C76.2219 32.643 38.111 16.0982 19.0555 8.31249L6.18972e-05 0.0401001L1028.98 -1.21173e-05L1028.98 8.27312C1028.98 16.0596 1028.98 32.6058 1028.98 48.6654C1028.98 64.725 1028.98 81.2712 1028.98 97.3308C1028.98 113.39 1028.98 129.937 1028.98 145.996C1028.98 162.056 1028.98 178.602 1028.98 194.662C1028.99 210.721 1028.99 227.267 1028.99 243.327C1028.99 259.387 1028.99 275.933 1028.99 291.992C1028.99 308.052 1028.99 324.598 1028.99 340.658C1028.99 356.717 1028.99 373.264 1028.99 389.323C1028.99 405.383 1028.99 421.929 1028.99 437.989C1028.99 454.048 1029 470.594 1029 486.654C1029 502.714 1029 519.26 1029 535.319C1029 551.379 1029 567.925 1029 575.712L1029 583.985L457.346 584.007Z" fill="#293728"/>
<path fill-rule="evenodd" clip-rule="evenodd" d="M803.945 0.0401611L836.726 24.0402C872.488 49.0402 941.03 97.0402 976.791 146.04C1009.57 195.04 1009.57 243.04 1018.51 292.04C1027.45 341.04 1045.33 390.04 994.672 438.04C941.03 487.04 818.846 536.04 759.244 560.04L696.662 584.04H646V560.04C646 536.04 646 487.04 646 438.04C646 390.04 646 341.04 646 292.04C646 243.04 646 195.04 646 146.04C646 97.0402 646 49.0402 646 24.0402V0.0401611L803.945 0.0401611Z" fill="#364435"/>
<path fill-rule="evenodd" clip-rule="evenodd" d="M836.404 0.0401611L862.431 24.3735C888.458 48.7068 940.512 97.3735 875.445 146.04C810.377 194.707 628.189 243.374 667.229 292.04C706.27 340.707 966.539 389.374 1018.59 438.04C1070.65 486.707 914.485 535.374 836.404 559.707L758.324 584.04L446 584.04V559.707C446 535.374 446 486.707 446 438.04C446 389.374 446 340.707 446 292.04C446 243.374 446 194.707 446 146.04C446 97.3735 446 48.7068 446 24.3735V0.0401611L836.404 0.0401611Z" fill="#3E513D"/>
<path fill-rule="evenodd" clip-rule="evenodd" d="M670.5 0.0401611V24.3735C670.5 48.7068 670.5 97.3735 610.75 146.04C551 194.707 431.5 243.374 491.25 292.04C551 340.707 790 389.374 909.5 438.04C1029 486.707 1029 535.374 1029 559.707V584.04H312V559.707C312 535.374 312 486.707 312 438.04C312 389.374 312 340.707 312 292.04C312 243.374 312 194.707 312 146.04C312 97.3735 312 48.7068 312 24.3735V0.0401611L670.5 0.0401611Z" fill="#678164"/>
<path fill-rule="evenodd" clip-rule="evenodd" d="M189 0.0401611L265.562 24.3735C342.125 48.7068 495.25 97.3735 528.062 146.04C560.875 194.707 473.375 243.374 407.75 292.04C342.125 340.707 298.375 389.374 353.063 438.04C407.75 486.707 560.875 535.374 637.438 559.707L714 584.04L189 584.04V559.707C189 535.374 189 486.707 189 438.04C189 389.374 189 340.707 189 292.04C189 243.374 189 194.707 189 146.04C189 97.3735 189 48.7068 189 24.3735V0.0401611Z" fill="#82A47F"/>
<path fill-rule="evenodd" clip-rule="evenodd" d="M453 0.0400391L394.63 24.3734C336.259 48.7067 219.519 97.3734 204.926 146.04C190.333 194.707 277.889 243.373 299.778 292.04C321.667 340.707 277.889 389.373 248.704 438.04C219.519 486.707 204.926 535.373 197.63 559.707L190.333 584.04H59V559.707C59 535.373 59 486.707 59 438.04C59 389.373 59 340.707 59 292.04C59 243.373 59 194.707 59 146.04C59 97.3734 59 48.7067 59 24.3734V0.0400391L453 0.0400391Z" fill="#9CC29B"/>
<path fill-rule="evenodd" clip-rule="evenodd" d="M330 0.0401611L277.832 10.8234C226.667 21.6067 123.333 43.1733 87.2168 64.7399C51.1003 86.3064 82.2007 108.441 82.2007 130.007C82.2007 151.574 51.1003 173.14 77.1845 194.707C102.265 216.273 185.534 237.84 216.634 259.407C247.735 280.973 226.667 303.107 231.683 324.674C236.699 346.24 267.799 367.807 277.832 389.374C288.867 410.94 277.832 432.507 252.751 454.073C226.667 475.64 185.534 497.774 159.45 519.34C133.366 540.907 123.333 562.474 118.317 573.257L113.301 584.04H20V573.257C20 562.474 20 540.907 20 519.34C20 497.774 20 475.64 20 454.073C20 432.507 20 410.94 20 389.374C20 367.807 20 346.24 20 324.674C20 303.107 20 280.973 20 259.407C20 237.84 20 216.273 20 194.707C20 173.14 20 151.574 20 130.007C20 108.441 20 86.3064 20 64.7399C20 43.1733 20 21.6067 20 10.8234V0.0401611L330 0.0401611Z" fill="#BFDDC1"/>
<path fill-rule="evenodd" clip-rule="evenodd" d="M38.0148 0.0401611L31.3063 24.0688C24.5978 49.1421 13.417 97.1994 49.1956 146.301C87.2104 194.359 174.421 243.461 205.727 292.562C237.034 340.62 212.436 389.722 174.421 437.779C138.642 486.881 87.2104 534.938 62.6126 560.012L38.0148 584.04H1.52588e-05L1.52588e-05 560.012C1.52588e-05 534.938 1.52588e-05 486.881 1.52588e-05 437.779C1.52588e-05 389.722 1.52588e-05 340.62 1.52588e-05 292.562C1.52588e-05 243.461 1.52588e-05 194.359 1.52588e-05 146.301C1.52588e-05 97.1994 1.52588e-05 49.1421 1.52588e-05 24.0688V0.0401611L38.0148 0.0401611Z" fill="#BFDDC1"/>
<rect width="1029" height="49" fill="#514F4F"/>
<g filter="url(#filter0_d_21_176)">
<path d="M76.7017 24V9.45455H82.4403C83.5388 9.45455 84.4763 9.65104 85.2528 10.044C86.0341 10.4323 86.6283 10.9839 87.0355 11.6989C87.4474 12.4091 87.6534 13.2448 87.6534 14.206C87.6534 15.1719 87.4451 16.0028 87.0284 16.6989C86.6117 17.3902 86.008 17.9205 85.2173 18.2898C84.4313 18.6591 83.4796 18.8438 82.3622 18.8438H78.5199V16.3722H81.8651C82.4522 16.3722 82.9399 16.2917 83.3281 16.1307C83.7164 15.9697 84.0052 15.7282 84.1946 15.4062C84.3887 15.0843 84.4858 14.6842 84.4858 14.206C84.4858 13.723 84.3887 13.3158 84.1946 12.9844C84.0052 12.6529 83.714 12.402 83.321 12.2315C82.9328 12.0563 82.4427 11.9688 81.8509 11.9688H79.777V24H76.7017ZM84.5568 17.3807L88.1719 24H84.777L81.2401 17.3807H84.5568Z" fill="white"/>
<path d="M76.7017 24H75.7017C75.7017 24.5523 76.1494 25 76.7017 25V24ZM76.7017 9.45455V8.45455C76.1494 8.45455 75.7017 8.90226 75.7017 9.45455H76.7017ZM85.2528 10.044L84.8013 10.9363L84.8078 10.9395L85.2528 10.044ZM87.0355 11.6989L86.1665 12.1938L86.1705 12.2006L87.0355 11.6989ZM87.0284 16.6989L87.8849 17.2151L87.8864 17.2125L87.0284 16.6989ZM85.2173 18.2898L84.7941 17.3837L84.7921 17.3847L85.2173 18.2898ZM78.5199 18.8438H77.5199C77.5199 19.396 77.9676 19.8438 78.5199 19.8438V18.8438ZM78.5199 16.3722V15.3722C77.9676 15.3722 77.5199 15.8199 77.5199 16.3722H78.5199ZM83.3281 16.1307L83.7111 17.0544L83.3281 16.1307ZM84.1946 15.4062L83.3382 14.8899L83.3327 14.8992L84.1946 15.4062ZM84.1946 12.9844L83.3263 13.4805L83.3317 13.4898L84.1946 12.9844ZM83.321 12.2315L82.9097 13.143C82.9142 13.145 82.9186 13.147 82.9231 13.149L83.321 12.2315ZM79.777 11.9688V10.9688C79.2247 10.9688 78.777 11.4165 78.777 11.9688H79.777ZM79.777 24V25C80.3293 25 80.777 24.5523 80.777 24H79.777ZM84.5568 17.3807L85.4345 16.9014C85.2592 16.5804 84.9226 16.3807 84.5568 16.3807V17.3807ZM88.1719 24V25C88.5249 25 88.8518 24.8139 89.0319 24.5102C89.212 24.2066 89.2187 23.8305 89.0495 23.5207L88.1719 24ZM84.777 24L83.895 24.4713C84.0689 24.7968 84.408 25 84.777 25V24ZM81.2401 17.3807V16.3807C80.8887 16.3807 80.563 16.5651 80.3824 16.8665C80.2017 17.1679 80.1925 17.542 80.3581 17.852L81.2401 17.3807ZM77.7017 24V9.45455H75.7017V24H77.7017ZM76.7017 10.4545H82.4403V8.45455H76.7017V10.4545ZM82.4403 10.4545C83.422 10.4545 84.1966 10.6302 84.8013 10.9363L85.7044 9.15179C84.756 8.67183 83.6556 8.45455 82.4403 8.45455V10.4545ZM84.8078 10.9395C85.4224 11.245 85.8638 11.6621 86.1666 12.1938L87.9045 11.204C87.3928 10.3057 86.6458 9.61961 85.6979 9.14852L84.8078 10.9395ZM86.1705 12.2006C86.4799 12.7341 86.6534 13.3907 86.6534 14.206H88.6534C88.6534 13.0989 88.415 12.0841 87.9005 11.1971L86.1705 12.2006ZM86.6534 14.206C86.6534 15.0257 86.4778 15.6717 86.1704 16.1852L87.8864 17.2125C88.4124 16.3339 88.6534 15.3181 88.6534 14.206H86.6534ZM86.172 16.1826C85.8662 16.6899 85.4202 17.0913 84.7941 17.3837L85.6405 19.1958C86.5959 18.7496 87.3573 18.0904 87.8849 17.2151L86.172 16.1826ZM84.7921 17.3847C84.1716 17.6763 83.3732 17.8438 82.3622 17.8438V19.8438C83.586 19.8438 84.6911 19.6419 85.6426 19.1948L84.7921 17.3847ZM82.3622 17.8438H78.5199V19.8438H82.3622V17.8438ZM79.5199 18.8438V16.3722H77.5199V18.8438H79.5199ZM78.5199 17.3722H81.8651V15.3722H78.5199V17.3722ZM81.8651 17.3722C82.5351 17.3722 83.1635 17.2815 83.7111 17.0544L82.9451 15.2069C82.7162 15.3018 82.3692 15.3722 81.8651 15.3722V17.3722ZM83.7111 17.0544C84.2737 16.8212 84.7434 16.4457 85.0565 15.9133L83.3327 14.8992C83.2671 15.0108 83.1591 15.1182 82.9451 15.2069L83.7111 17.0544ZM85.051 15.9226C85.3614 15.4077 85.4858 14.8174 85.4858 14.206H83.4858C83.4858 14.551 83.416 14.7609 83.3382 14.8899L85.051 15.9226ZM85.4858 14.206C85.4858 13.5905 85.3618 12.9985 85.0575 12.479L83.3317 13.4898C83.4157 13.6332 83.4858 13.8555 83.4858 14.206H85.4858ZM85.0628 12.4882C84.7533 11.9466 84.2847 11.5595 83.7189 11.3141L82.9231 13.149C83.1433 13.2445 83.2571 13.3593 83.3264 13.4805L85.0628 12.4882ZM83.7323 11.32C83.1748 11.0685 82.5328 10.9688 81.8509 10.9688V12.9688C82.3526 12.9688 82.6908 13.0442 82.9097 13.143L83.7323 11.32ZM81.8509 10.9688H79.777V12.9688H81.8509V10.9688ZM78.777 11.9688V24H80.777V11.9688H78.777ZM79.777 23H76.7017V25H79.777V23ZM83.6792 17.86L87.2942 24.4793L89.0495 23.5207L85.4345 16.9014L83.6792 17.86ZM88.1719 23H84.777V25H88.1719V23ZM85.659 23.5287L82.122 16.9094L80.3581 17.852L83.895 24.4713L85.659 23.5287ZM81.2401 18.3807H84.5568V16.3807H81.2401V18.3807Z" fill="white"/>
</g>
<g filter="url(#filter1_d_21_176)">
<path d="M86.7017 25V39.5455H92.4403C93.5388 39.5455 94.4763 39.349 95.2528 38.956C96.0341 38.5677 96.6283 38.0161 97.0355 37.3011C97.4474 36.5909 97.6534 35.7552 97.6534 34.794C97.6534 33.8281 97.4451 32.9972 97.0284 32.3011C96.6117 31.6098 96.008 31.0795 95.2173 30.7102C94.4313 30.3409 93.4796 30.1562 92.3622 30.1562H88.5199V32.6278H91.8651C92.4522 32.6278 92.9399 32.7083 93.3281 32.8693C93.7164 33.0303 94.0052 33.2718 94.1946 33.5938C94.3887 33.9157 94.4858 34.3158 94.4858 34.794C94.4858 35.277 94.3887 35.6842 94.1946 36.0156C94.0052 36.3471 93.714 36.598 93.321 36.7685C92.9328 36.9437 92.4427 37.0312 91.8509 37.0312H89.777V25H86.7017ZM94.5568 31.6193L98.1719 25H94.777L91.2401 31.6193H94.5568Z" fill="white"/>
<path d="M86.7017 25H85.7017C85.7017 24.4477 86.1494 24 86.7017 24V25ZM86.7017 39.5455V40.5455C86.1494 40.5455 85.7017 40.0977 85.7017 39.5455H86.7017ZM95.2528 38.956L94.8013 38.0637L94.8078 38.0605L95.2528 38.956ZM97.0355 37.3011L96.1665 36.8062L96.1705 36.7994L97.0355 37.3011ZM97.0284 32.3011L97.8849 31.7849L97.8864 31.7875L97.0284 32.3011ZM95.2173 30.7102L94.7941 31.6163L94.7921 31.6153L95.2173 30.7102ZM88.5199 30.1562H87.5199C87.5199 29.604 87.9676 29.1562 88.5199 29.1562V30.1562ZM88.5199 32.6278V33.6278C87.9676 33.6278 87.5199 33.1801 87.5199 32.6278H88.5199ZM93.3281 32.8693L93.7111 31.9456L93.3281 32.8693ZM94.1946 33.5938L93.3382 34.1101L93.3327 34.1008L94.1946 33.5938ZM94.1946 36.0156L93.3263 35.5195L93.3317 35.5102L94.1946 36.0156ZM93.321 36.7685L92.9097 35.857C92.9142 35.855 92.9186 35.853 92.9231 35.851L93.321 36.7685ZM89.777 37.0312V38.0312C89.2247 38.0312 88.777 37.5835 88.777 37.0312H89.777ZM89.777 25V24C90.3293 24 90.777 24.4477 90.777 25H89.777ZM94.5568 31.6193L95.4345 32.0986C95.2592 32.4196 94.9226 32.6193 94.5568 32.6193V31.6193ZM98.1719 25V24C98.5249 24 98.8518 24.1861 99.0319 24.4898C99.212 24.7934 99.2187 25.1695 99.0495 25.4793L98.1719 25ZM94.777 25L93.895 24.5287C94.0689 24.2032 94.408 24 94.777 24V25ZM91.2401 31.6193V32.6193C90.8887 32.6193 90.563 32.4349 90.3824 32.1335C90.2017 31.8321 90.1925 31.458 90.3581 31.148L91.2401 31.6193ZM87.7017 25V39.5455H85.7017V25H87.7017ZM86.7017 38.5455H92.4403V40.5455H86.7017V38.5455ZM92.4403 38.5455C93.422 38.5455 94.1966 38.3698 94.8013 38.0637L95.7044 39.8482C94.756 40.3282 93.6556 40.5455 92.4403 40.5455V38.5455ZM94.8078 38.0605C95.4224 37.755 95.8638 37.3379 96.1666 36.8062L97.9045 37.796C97.3928 38.6943 96.6458 39.3804 95.6979 39.8515L94.8078 38.0605ZM96.1705 36.7994C96.4799 36.2659 96.6534 35.6093 96.6534 34.794H98.6534C98.6534 35.9011 98.415 36.9159 97.9005 37.8029L96.1705 36.7994ZM96.6534 34.794C96.6534 33.9743 96.4778 33.3283 96.1704 32.8148L97.8864 31.7875C98.4124 32.6661 98.6534 33.6819 98.6534 34.794H96.6534ZM96.172 32.8174C95.8662 32.3101 95.4202 31.9087 94.7941 31.6163L95.6405 29.8042C96.5959 30.2504 97.3573 30.9096 97.8849 31.7849L96.172 32.8174ZM94.7921 31.6153C94.1716 31.3237 93.3732 31.1562 92.3622 31.1562V29.1562C93.586 29.1562 94.6911 29.3581 95.6426 29.8052L94.7921 31.6153ZM92.3622 31.1562H88.5199V29.1562H92.3622V31.1562ZM89.5199 30.1562V32.6278H87.5199V30.1562H89.5199ZM88.5199 31.6278H91.8651V33.6278H88.5199V31.6278ZM91.8651 31.6278C92.5351 31.6278 93.1635 31.7185 93.7111 31.9456L92.9451 33.7931C92.7162 33.6982 92.3692 33.6278 91.8651 33.6278V31.6278ZM93.7111 31.9456C94.2737 32.1788 94.7434 32.5543 95.0565 33.0867L93.3327 34.1008C93.2671 33.9892 93.1591 33.8818 92.9451 33.7931L93.7111 31.9456ZM95.051 33.0774C95.3614 33.5923 95.4858 34.1826 95.4858 34.794H93.4858C93.4858 34.449 93.416 34.2391 93.3382 34.1101L95.051 33.0774ZM95.4858 34.794C95.4858 35.4095 95.3618 36.0015 95.0575 36.521L93.3317 35.5102C93.4157 35.3668 93.4858 35.1445 93.4858 34.794H95.4858ZM95.0628 36.5118C94.7533 37.0534 94.2847 37.4405 93.7189 37.6859L92.9231 35.851C93.1433 35.7555 93.2571 35.6407 93.3264 35.5195L95.0628 36.5118ZM93.7323 37.68C93.1748 37.9315 92.5328 38.0312 91.8509 38.0312V36.0312C92.3526 36.0312 92.6908 35.9558 92.9097 35.857L93.7323 37.68ZM91.8509 38.0312H89.777V36.0312H91.8509V38.0312ZM88.777 37.0312V25H90.777V37.0312H88.777ZM89.777 26H86.7017V24H89.777V26ZM93.6792 31.14L97.2942 24.5207L99.0495 25.4793L95.4345 32.0986L93.6792 31.14ZM98.1719 26H94.777V24H98.1719V26ZM95.659 25.4713L92.122 32.0906L90.3581 31.148L93.895 24.5287L95.659 25.4713ZM91.2401 30.6193H94.5568V32.6193H91.2401V30.6193Z" fill="white"/>
</g>
<path d="M416.821 80.7273H419.639V97.3636C419.639 98.8485 419.366 100.11 418.821 101.148C418.276 102.186 417.507 102.973 416.514 103.511C415.522 104.049 414.351 104.318 413.003 104.318C411.73 104.318 410.598 104.087 409.605 103.625C408.613 103.155 407.832 102.489 407.264 101.625C406.696 100.761 406.412 99.7348 406.412 98.5455H409.185C409.185 99.2045 409.348 99.7803 409.673 100.273C410.007 100.758 410.461 101.136 411.037 101.409C411.613 101.682 412.268 101.818 413.003 101.818C413.813 101.818 414.503 101.648 415.071 101.307C415.639 100.966 416.071 100.466 416.366 99.8068C416.67 99.1402 416.821 98.3258 416.821 97.3636V80.7273ZM432.014 104.364C430.438 104.364 429.056 103.989 427.866 103.239C426.685 102.489 425.76 101.439 425.094 100.091C424.435 98.7424 424.105 97.1667 424.105 95.3636C424.105 93.5455 424.435 91.9583 425.094 90.6023C425.76 89.2462 426.685 88.1932 427.866 87.4432C429.056 86.6932 430.438 86.3182 432.014 86.3182C433.59 86.3182 434.969 86.6932 436.151 87.4432C437.34 88.1932 438.264 89.2462 438.923 90.6023C439.59 91.9583 439.923 93.5455 439.923 95.3636C439.923 97.1667 439.59 98.7424 438.923 100.091C438.264 101.439 437.34 102.489 436.151 103.239C434.969 103.989 433.59 104.364 432.014 104.364ZM432.014 101.955C433.211 101.955 434.196 101.648 434.969 101.034C435.741 100.42 436.313 99.6136 436.685 98.6136C437.056 97.6136 437.241 96.5303 437.241 95.3636C437.241 94.197 437.056 93.1098 436.685 92.1023C436.313 91.0947 435.741 90.2803 434.969 89.6591C434.196 89.0379 433.211 88.7273 432.014 88.7273C430.817 88.7273 429.832 89.0379 429.06 89.6591C428.287 90.2803 427.715 91.0947 427.344 92.1023C426.973 93.1098 426.787 94.197 426.787 95.3636C426.787 96.5303 426.973 97.6136 427.344 98.6136C427.715 99.6136 428.287 100.42 429.06 101.034C429.832 101.648 430.817 101.955 432.014 101.955ZM444.017 104V86.5455H446.699V104H444.017ZM445.381 83.6364C444.858 83.6364 444.407 83.4583 444.028 83.1023C443.657 82.7462 443.472 82.3182 443.472 81.8182C443.472 81.3182 443.657 80.8902 444.028 80.5341C444.407 80.178 444.858 80 445.381 80C445.903 80 446.35 80.178 446.722 80.5341C447.1 80.8902 447.29 81.3182 447.29 81.8182C447.29 82.3182 447.1 82.7462 446.722 83.1023C446.35 83.4583 445.903 83.6364 445.381 83.6364ZM454.293 93.5V104H451.611V86.5455H454.202V89.2727H454.429C454.838 88.3864 455.459 87.6742 456.293 87.1364C457.126 86.5909 458.202 86.3182 459.52 86.3182C460.702 86.3182 461.736 86.5606 462.622 87.0455C463.509 87.5227 464.198 88.25 464.69 89.2273C465.183 90.197 465.429 91.4242 465.429 92.9091V104H462.747V93.0909C462.747 91.7197 462.391 90.6515 461.679 89.8864C460.967 89.1136 459.99 88.7273 458.747 88.7273C457.891 88.7273 457.126 88.9129 456.452 89.2841C455.785 89.6553 455.259 90.197 454.872 90.9091C454.486 91.6212 454.293 92.4848 454.293 93.5ZM484.466 104.409C483.36 104.409 482.356 104.201 481.455 103.784C480.553 103.36 479.837 102.75 479.307 101.955C478.777 101.152 478.511 100.182 478.511 99.0455C478.511 98.0455 478.708 97.2348 479.102 96.6136C479.496 95.9848 480.023 95.4924 480.682 95.1364C481.341 94.7803 482.068 94.5152 482.864 94.3409C483.667 94.1591 484.473 94.0152 485.284 93.9091C486.345 93.7727 487.205 93.6705 487.864 93.6023C488.53 93.5265 489.015 93.4015 489.318 93.2273C489.629 93.053 489.784 92.75 489.784 92.3182V92.2273C489.784 91.1061 489.477 90.2348 488.864 89.6136C488.258 88.9924 487.337 88.6818 486.102 88.6818C484.822 88.6818 483.818 88.9621 483.091 89.5227C482.364 90.0833 481.852 90.6818 481.557 91.3182L479.011 90.4091C479.466 89.3485 480.072 88.5227 480.83 87.9318C481.595 87.3333 482.428 86.9167 483.33 86.6818C484.239 86.4394 485.133 86.3182 486.011 86.3182C486.572 86.3182 487.216 86.3864 487.943 86.5227C488.678 86.6515 489.386 86.9205 490.068 87.3295C490.758 87.7386 491.33 88.3561 491.784 89.1818C492.239 90.0076 492.466 91.1136 492.466 92.5V104H489.784V101.636H489.648C489.466 102.015 489.163 102.42 488.739 102.852C488.314 103.284 487.75 103.652 487.045 103.955C486.341 104.258 485.481 104.409 484.466 104.409ZM484.875 102C485.936 102 486.83 101.792 487.557 101.375C488.292 100.958 488.845 100.42 489.216 99.7614C489.595 99.1023 489.784 98.4091 489.784 97.6818V95.2273C489.67 95.3636 489.42 95.4886 489.034 95.6023C488.655 95.7083 488.216 95.803 487.716 95.8864C487.223 95.9621 486.742 96.0303 486.273 96.0909C485.811 96.1439 485.436 96.1894 485.148 96.2273C484.451 96.3182 483.799 96.4659 483.193 96.6705C482.595 96.8674 482.11 97.1667 481.739 97.5682C481.375 97.9621 481.193 98.5 481.193 99.1818C481.193 100.114 481.538 100.818 482.227 101.295C482.924 101.765 483.807 102 484.875 102ZM500.043 93.5V104H497.361V86.5455H499.952V89.2727H500.179C500.588 88.3864 501.209 87.6742 502.043 87.1364C502.876 86.5909 503.952 86.3182 505.27 86.3182C506.452 86.3182 507.486 86.5606 508.372 87.0455C509.259 87.5227 509.948 88.25 510.44 89.2273C510.933 90.197 511.179 91.4242 511.179 92.9091V104H508.497V93.0909C508.497 91.7197 508.141 90.6515 507.429 89.8864C506.717 89.1136 505.74 88.7273 504.497 88.7273C503.641 88.7273 502.876 88.9129 502.202 89.2841C501.535 89.6553 501.009 90.197 500.622 90.9091C500.236 91.6212 500.043 92.4848 500.043 93.5ZM525.443 104V80.7273H539.489V83.2273H528.261V91.0909H538.761V93.5909H528.261V101.5H539.67V104H525.443ZM558.477 86.5455L552.023 104H549.295L542.841 86.5455H545.75L550.568 100.455H550.75L555.568 86.5455H558.477ZM568.71 104.364C567.028 104.364 565.578 103.992 564.358 103.25C563.146 102.5 562.21 101.455 561.551 100.114C560.9 98.7652 560.574 97.197 560.574 95.4091C560.574 93.6212 560.9 92.0455 561.551 90.6818C562.21 89.3106 563.127 88.2424 564.301 87.4773C565.483 86.7045 566.862 86.3182 568.438 86.3182C569.347 86.3182 570.244 86.4697 571.131 86.7727C572.017 87.0758 572.824 87.5682 573.551 88.25C574.278 88.9242 574.858 89.8182 575.29 90.9318C575.722 92.0455 575.938 93.4167 575.938 95.0455V96.1818H562.483V93.8636H573.21C573.21 92.8788 573.013 92 572.619 91.2273C572.233 90.4545 571.68 89.8447 570.96 89.3977C570.248 88.9508 569.407 88.7273 568.438 88.7273C567.369 88.7273 566.445 88.9924 565.665 89.5227C564.892 90.0455 564.297 90.7273 563.881 91.5682C563.464 92.4091 563.256 93.3106 563.256 94.2727V95.8182C563.256 97.1364 563.483 98.2538 563.938 99.1705C564.4 100.08 565.04 100.773 565.858 101.25C566.676 101.72 567.627 101.955 568.71 101.955C569.415 101.955 570.051 101.856 570.619 101.659C571.195 101.455 571.691 101.152 572.108 100.75C572.525 100.341 572.847 99.8333 573.074 99.2273L575.665 99.9545C575.392 100.833 574.934 101.606 574.29 102.273C573.646 102.932 572.85 103.447 571.903 103.818C570.956 104.182 569.892 104.364 568.71 104.364ZM582.699 93.5V104H580.017V86.5455H582.608V89.2727H582.835C583.244 88.3864 583.866 87.6742 584.699 87.1364C585.532 86.5909 586.608 86.3182 587.926 86.3182C589.108 86.3182 590.142 86.5606 591.028 87.0455C591.915 87.5227 592.604 88.25 593.097 89.2273C593.589 90.197 593.835 91.4242 593.835 92.9091V104H591.153V93.0909C591.153 91.7197 590.797 90.6515 590.085 89.8864C589.373 89.1136 588.396 88.7273 587.153 88.7273C586.297 88.7273 585.532 88.9129 584.858 89.2841C584.191 89.6553 583.665 90.197 583.278 90.9091C582.892 91.6212 582.699 92.4848 582.699 93.5ZM606.327 86.5455V88.8182H597.281V86.5455H606.327ZM599.918 82.3636H602.599V99C602.599 99.7576 602.709 100.326 602.929 100.705C603.156 101.076 603.444 101.326 603.793 101.455C604.149 101.576 604.524 101.636 604.918 101.636C605.213 101.636 605.455 101.621 605.645 101.591C605.834 101.553 605.986 101.523 606.099 101.5L606.645 103.909C606.463 103.977 606.209 104.045 605.884 104.114C605.558 104.189 605.145 104.227 604.645 104.227C603.887 104.227 603.145 104.064 602.418 103.739C601.698 103.413 601.099 102.917 600.622 102.25C600.152 101.583 599.918 100.742 599.918 99.7273V82.3636Z" fill="white"/>
<path d="M416.821 80.7273V79.7273C416.269 79.7273 415.821 80.175 415.821 80.7273H416.821ZM419.639 80.7273H420.639C420.639 80.175 420.191 79.7273 419.639 79.7273V80.7273ZM418.821 101.148L419.706 101.613L418.821 101.148ZM416.514 103.511L416.991 104.391L416.514 103.511ZM409.605 103.625L409.177 104.529L409.183 104.532L409.605 103.625ZM407.264 101.625L406.429 102.175H406.429L407.264 101.625ZM406.412 98.5455V97.5455C405.86 97.5455 405.412 97.9932 405.412 98.5455H406.412ZM409.185 98.5455H410.185C410.185 97.9932 409.737 97.5455 409.185 97.5455V98.5455ZM409.673 100.273L408.839 100.824C408.843 100.829 408.846 100.834 408.849 100.839L409.673 100.273ZM411.037 101.409L411.465 100.505L411.037 101.409ZM415.071 101.307L414.557 100.449L415.071 101.307ZM416.366 99.8068L415.456 99.393L415.454 99.3978L416.366 99.8068ZM416.821 81.7273H419.639V79.7273H416.821V81.7273ZM418.639 80.7273V97.3636H420.639V80.7273H418.639ZM418.639 97.3636C418.639 98.7286 418.388 99.8213 417.936 100.683L419.706 101.613C420.345 100.398 420.639 98.9684 420.639 97.3636H418.639ZM417.936 100.683C417.479 101.552 416.849 102.193 416.038 102.632L416.991 104.391C418.164 103.754 419.072 102.819 419.706 101.613L417.936 100.683ZM416.038 102.632C415.218 103.077 414.217 103.318 413.003 103.318V105.318C414.485 105.318 415.826 105.022 416.991 104.391L416.038 102.632ZM413.003 103.318C411.852 103.318 410.868 103.11 410.027 102.718L409.183 104.532C410.327 105.064 411.608 105.318 413.003 105.318V103.318ZM410.033 102.721C409.196 102.325 408.561 101.776 408.1 101.075L406.429 102.175C407.104 103.201 408.03 103.986 409.177 104.529L410.033 102.721ZM408.1 101.075C407.654 100.398 407.412 99.5697 407.412 98.5455H405.412C405.412 99.9 405.738 101.124 406.429 102.175L408.1 101.075ZM406.412 99.5455H409.185V97.5455H406.412V99.5455ZM408.185 98.5455C408.185 99.3771 408.393 100.15 408.839 100.824L410.507 99.721C410.302 99.4109 410.185 99.032 410.185 98.5455H408.185ZM408.849 100.839C409.291 101.481 409.887 101.971 410.609 102.313L411.465 100.505C411.035 100.302 410.723 100.034 410.497 99.7062L408.849 100.839ZM410.609 102.313C411.337 102.658 412.143 102.818 413.003 102.818V100.818C412.393 100.818 411.888 100.706 411.465 100.505L410.609 102.313ZM413.003 102.818C413.954 102.818 414.831 102.617 415.586 102.164L414.557 100.449C414.175 100.678 413.673 100.818 413.003 100.818V102.818ZM415.586 102.164C416.345 101.709 416.908 101.044 417.279 100.216L415.454 99.3978C415.234 99.8878 414.933 100.223 414.557 100.449L415.586 102.164ZM417.277 100.221C417.654 99.39 417.821 98.4257 417.821 97.3636H415.821C415.821 98.2258 415.685 98.8903 415.456 99.393L417.277 100.221ZM417.821 97.3636V80.7273H415.821V97.3636H417.821ZM427.866 103.239L427.331 104.083L427.333 104.085L427.866 103.239ZM425.094 100.091L424.195 100.53L424.197 100.534L425.094 100.091ZM425.094 90.6023L424.196 90.1611L424.194 90.1651L425.094 90.6023ZM427.866 87.4432L427.333 86.5973L427.331 86.5989L427.866 87.4432ZM436.151 87.4432L435.615 88.2875L435.617 88.2891L436.151 87.4432ZM438.923 90.6023L438.024 91.0394L438.026 91.0435L438.923 90.6023ZM438.923 100.091L438.027 99.6477L438.025 99.6518L438.923 100.091ZM436.151 103.239L435.617 102.393L435.615 102.394L436.151 103.239ZM434.969 101.034L434.347 100.251L434.969 101.034ZM436.685 98.6136L437.622 98.9616V98.9616L436.685 98.6136ZM436.685 92.1023L437.623 91.7566H437.623L436.685 92.1023ZM434.969 89.6591L435.595 88.8797V88.8797L434.969 89.6591ZM429.06 89.6591L428.433 88.8797V88.8797L429.06 89.6591ZM427.344 92.1023L426.405 91.7566L427.344 92.1023ZM427.344 98.6136L426.406 98.9616V98.9616L427.344 98.6136ZM429.06 101.034L429.682 100.251L429.06 101.034ZM432.014 103.364C430.604 103.364 429.411 103.03 428.4 102.393L427.333 104.085C428.701 104.947 430.273 105.364 432.014 105.364V103.364ZM428.402 102.394C427.387 101.75 426.582 100.845 425.99 99.6477L424.197 100.534C424.939 102.034 425.983 103.227 427.331 104.083L428.402 102.394ZM425.992 99.6518C425.412 98.4649 425.105 97.0447 425.105 95.3636H423.105C423.105 97.2886 423.457 99.02 424.195 100.53L425.992 99.6518ZM425.105 95.3636C425.105 93.6661 425.413 92.2341 425.993 91.0394L424.194 90.1651C423.457 91.6826 423.105 93.4248 423.105 95.3636H425.105ZM425.991 91.0435C426.583 89.8388 427.388 88.9311 428.402 88.2875L427.331 86.5989C425.981 87.4553 424.937 88.6536 424.196 90.1611L425.991 91.0435ZM428.4 88.2891C429.411 87.6516 430.604 87.3182 432.014 87.3182V85.3182C430.273 85.3182 428.701 85.7348 427.333 86.5973L428.4 88.2891ZM432.014 87.3182C433.425 87.3182 434.613 87.6516 435.615 88.2875L436.686 86.5989C435.325 85.7348 433.755 85.3182 432.014 85.3182V87.3182ZM435.617 88.2891C436.637 88.9324 437.44 89.8384 438.024 91.0394L439.823 90.1651C439.088 88.654 438.043 87.454 436.684 86.5973L435.617 88.2891ZM438.026 91.0435C438.613 92.2371 438.923 93.6677 438.923 95.3636H440.923C440.923 93.4232 440.567 91.6796 439.821 90.1611L438.026 91.0435ZM438.923 95.3636C438.923 97.0431 438.613 98.4618 438.027 99.6477L439.82 100.534C440.567 99.0231 440.923 97.2902 440.923 95.3636H438.923ZM438.025 99.6518C437.442 100.845 436.639 101.749 435.617 102.393L436.684 104.085C438.041 103.229 439.087 102.034 439.822 100.53L438.025 99.6518ZM435.615 102.394C434.613 103.03 433.425 103.364 432.014 103.364V105.364C433.755 105.364 435.325 104.947 436.686 104.083L435.615 102.394ZM432.014 102.955C433.387 102.955 434.606 102.599 435.591 101.817L434.347 100.251C433.786 100.696 433.035 100.955 432.014 100.955V102.955ZM435.591 101.817C436.518 101.081 437.193 100.118 437.622 98.9616L435.747 98.2656C435.434 99.1089 434.965 99.76 434.347 100.251L435.591 101.817ZM437.622 98.9616C438.038 97.8403 438.241 96.638 438.241 95.3636H436.241C436.241 96.4226 436.073 97.387 435.747 98.2656L437.622 98.9616ZM438.241 95.3636C438.241 94.0892 438.038 92.884 437.623 91.7566L435.746 92.448C436.073 93.3357 436.241 94.3047 436.241 95.3636H438.241ZM437.623 91.7566C437.194 90.5935 436.521 89.6239 435.595 88.8797L434.342 90.4385C434.962 90.9367 435.432 91.5959 435.746 92.448L437.623 91.7566ZM435.595 88.8797C434.61 88.0878 433.39 87.7273 432.014 87.7273V89.7273C433.032 89.7273 433.782 89.9879 434.342 90.4385L435.595 88.8797ZM432.014 87.7273C430.638 87.7273 429.418 88.0878 428.433 88.8797L429.686 90.4385C430.247 89.9879 430.996 89.7273 432.014 89.7273V87.7273ZM428.433 88.8797C427.507 89.6239 426.834 90.5935 426.405 91.7566L428.282 92.448C428.596 91.5959 429.066 90.9367 429.686 90.4385L428.433 88.8797ZM426.405 91.7566C425.99 92.884 425.787 94.0892 425.787 95.3636H427.787C427.787 94.3047 427.955 93.3357 428.282 92.448L426.405 91.7566ZM425.787 95.3636C425.787 96.638 425.99 97.8403 426.406 98.9616L428.281 98.2656C427.955 97.387 427.787 96.4226 427.787 95.3636H425.787ZM426.406 98.9616C426.836 100.118 427.511 101.081 428.438 101.817L429.682 100.251C429.063 99.76 428.594 99.1089 428.281 98.2656L426.406 98.9616ZM428.438 101.817C429.423 102.599 430.641 102.955 432.014 102.955V100.955C430.993 100.955 430.242 100.696 429.682 100.251L428.438 101.817ZM444.017 104H443.017C443.017 104.552 443.465 105 444.017 105V104ZM444.017 86.5455V85.5455C443.465 85.5455 443.017 85.9932 443.017 86.5455H444.017ZM446.699 86.5455H447.699C447.699 85.9932 447.251 85.5455 446.699 85.5455V86.5455ZM446.699 104V105C447.251 105 447.699 104.552 447.699 104H446.699ZM444.028 83.1023L443.336 83.824L443.343 83.8309L444.028 83.1023ZM444.028 80.5341L443.343 79.8054L443.336 79.8124L444.028 80.5341ZM446.722 80.5341L446.029 81.2558L446.037 81.2627L446.722 80.5341ZM446.722 83.1023L446.037 82.3736L446.029 82.3806L446.722 83.1023ZM445.017 104V86.5455H443.017V104H445.017ZM444.017 87.5455H446.699V85.5455H444.017V87.5455ZM445.699 86.5455V104H447.699V86.5455H445.699ZM446.699 103H444.017V105H446.699V103ZM445.381 82.6364C445.111 82.6364 444.906 82.5543 444.713 82.3736L443.343 83.8309C443.909 84.3624 444.605 84.6364 445.381 84.6364V82.6364ZM444.721 82.3806C444.54 82.207 444.472 82.037 444.472 81.8182H442.472C442.472 82.5993 442.775 83.2854 443.336 83.824L444.721 82.3806ZM444.472 81.8182C444.472 81.5993 444.54 81.4293 444.721 81.2558L443.336 79.8124C442.775 80.351 442.472 81.037 442.472 81.8182H444.472ZM444.713 81.2627C444.906 81.082 445.111 81 445.381 81V79C444.605 79 443.909 79.274 443.343 79.8055L444.713 81.2627ZM445.381 81C445.65 81 445.848 81.0815 446.029 81.2558L447.414 79.8124C446.853 79.2745 446.157 79 445.381 79V81ZM446.037 81.2627C446.223 81.4382 446.29 81.6062 446.29 81.8182H448.29C448.29 81.0301 447.977 80.3421 447.407 79.8055L446.037 81.2627ZM446.29 81.8182C446.29 82.0301 446.223 82.1981 446.037 82.3736L447.407 83.8309C447.977 83.2943 448.29 82.6062 448.29 81.8182H446.29ZM446.029 82.3806C445.848 82.5548 445.65 82.6364 445.381 82.6364V84.6364C446.157 84.6364 446.853 84.3618 447.414 83.824L446.029 82.3806ZM454.293 104V105C454.845 105 455.293 104.552 455.293 104H454.293ZM451.611 104H450.611C450.611 104.552 451.059 105 451.611 105V104ZM451.611 86.5455V85.5455C451.059 85.5455 450.611 85.9932 450.611 86.5455H451.611ZM454.202 86.5455H455.202C455.202 85.9932 454.754 85.5455 454.202 85.5455V86.5455ZM454.202 89.2727H453.202C453.202 89.825 453.649 90.2727 454.202 90.2727V89.2727ZM454.429 89.2727V90.2727C454.819 90.2727 455.173 90.0459 455.337 89.6918L454.429 89.2727ZM456.293 87.1364L456.835 87.9766L456.84 87.9731L456.293 87.1364ZM462.622 87.0455L462.142 87.9228L462.148 87.9259L462.622 87.0455ZM464.69 89.2273L463.797 89.6773L463.799 89.68L464.69 89.2273ZM465.429 104V105C465.981 105 466.429 104.552 466.429 104H465.429ZM462.747 104H461.747C461.747 104.552 462.195 105 462.747 105V104ZM461.679 89.8864L460.944 90.5641L460.947 90.5676L461.679 89.8864ZM456.452 89.2841L455.969 88.4081L455.965 88.4104L456.452 89.2841ZM454.872 90.9091L453.993 90.4322L454.872 90.9091ZM453.293 93.5V104H455.293V93.5H453.293ZM454.293 103H451.611V105H454.293V103ZM452.611 104V86.5455H450.611V104H452.611ZM451.611 87.5455H454.202V85.5455H451.611V87.5455ZM453.202 86.5455V89.2727H455.202V86.5455H453.202ZM454.202 90.2727H454.429V88.2727H454.202V90.2727ZM455.337 89.6918C455.665 88.9805 456.158 88.4133 456.835 87.9765L455.75 86.2962C454.76 86.9352 454.011 87.7922 453.521 88.8537L455.337 89.6918ZM456.84 87.9731C457.466 87.5636 458.335 87.3182 459.52 87.3182V85.3182C458.069 85.3182 456.786 85.6183 455.745 86.2997L456.84 87.9731ZM459.52 87.3182C460.563 87.3182 461.426 87.5311 462.142 87.9228L463.102 86.1681C462.045 85.5901 460.841 85.3182 459.52 85.3182V87.3182ZM462.148 87.9259C462.838 88.2975 463.389 88.8663 463.797 89.6773L465.583 88.7773C465.007 87.6337 464.179 86.748 463.096 86.165L462.148 87.9259ZM463.799 89.68C464.199 90.4678 464.429 91.527 464.429 92.9091H466.429C466.429 91.3214 466.167 89.9262 465.582 88.7745L463.799 89.68ZM464.429 92.9091V104H466.429V92.9091H464.429ZM465.429 103H462.747V105H465.429V103ZM463.747 104V93.0909H461.747V104H463.747ZM463.747 93.0909C463.747 91.5479 463.344 90.2071 462.411 89.2051L460.947 90.5676C461.439 91.0959 461.747 91.8915 461.747 93.0909H463.747ZM462.414 89.2087C461.478 88.193 460.213 87.7273 458.747 87.7273V89.7273C459.766 89.7273 460.455 90.0343 460.944 90.564L462.414 89.2087ZM458.747 87.7273C457.742 87.7273 456.807 87.9467 455.969 88.4081L456.934 90.1601C457.444 89.8791 458.04 89.7273 458.747 89.7273V87.7273ZM455.965 88.4104C455.122 88.8797 454.464 89.564 453.993 90.4322L455.751 91.386C456.053 90.8299 456.448 90.4309 456.938 90.1578L455.965 88.4104ZM453.993 90.4322C453.51 91.3232 453.293 92.3597 453.293 93.5H455.293C455.293 92.61 455.462 91.9192 455.751 91.386L453.993 90.4322ZM481.455 103.784L481.029 104.689L481.035 104.692L481.455 103.784ZM479.307 101.955L478.472 102.506L478.475 102.509L479.307 101.955ZM479.102 96.6136L479.947 97.1492L479.95 97.1446L479.102 96.6136ZM482.864 94.3409L483.078 95.3178L483.084 95.3162L482.864 94.3409ZM485.284 93.9091L485.157 92.9173L485.154 92.9175L485.284 93.9091ZM487.864 93.6023L487.967 94.597L487.977 94.5959L487.864 93.6023ZM489.318 93.2273L488.829 92.3551L488.82 92.3604L489.318 93.2273ZM488.864 89.6136L488.148 90.312L488.152 90.3164L488.864 89.6136ZM483.091 89.5227L483.701 90.3147L483.091 89.5227ZM481.557 91.3182L481.22 92.2599C481.707 92.4338 482.246 92.2081 482.464 91.7393L481.557 91.3182ZM479.011 90.4091L478.092 90.0152C477.984 90.2688 477.984 90.5561 478.095 90.809C478.205 91.0619 478.415 91.258 478.675 91.3508L479.011 90.4091ZM480.83 87.9318L481.445 88.7203L481.446 88.7195L480.83 87.9318ZM483.33 86.6818L483.582 87.6495L483.587 87.6481L483.33 86.6818ZM487.943 86.5227L487.759 87.5057L487.771 87.5077L487.943 86.5227ZM490.068 87.3295L489.554 88.187L489.558 88.1895L490.068 87.3295ZM491.784 89.1818L490.908 89.664L491.784 89.1818ZM492.466 104V105C493.018 105 493.466 104.552 493.466 104H492.466ZM489.784 104H488.784C488.784 104.552 489.232 105 489.784 105V104ZM489.784 101.636H490.784C490.784 101.084 490.336 100.636 489.784 100.636V101.636ZM489.648 101.636V100.636C489.263 100.636 488.913 100.857 488.746 101.204L489.648 101.636ZM488.739 102.852L489.452 103.553L488.739 102.852ZM487.045 103.955L486.65 103.036L487.045 103.955ZM487.557 101.375L487.064 100.505L487.06 100.507L487.557 101.375ZM489.216 99.7614L488.349 99.2631L488.345 99.2706L489.216 99.7614ZM489.784 95.2273H490.784C490.784 94.8063 490.52 94.4303 490.125 94.287C489.729 94.1437 489.285 94.2637 489.016 94.5871L489.784 95.2273ZM489.034 95.6023L489.304 96.5653L489.316 96.5616L489.034 95.6023ZM487.716 95.8864L487.868 96.8748L487.88 96.8728L487.716 95.8864ZM486.273 96.0909L486.387 97.0845L486.401 97.0827L486.273 96.0909ZM485.148 96.2273L485.277 97.2189L485.278 97.2187L485.148 96.2273ZM483.193 96.6705L483.506 97.6204L483.513 97.6179L483.193 96.6705ZM481.739 97.5682L481.004 96.8893L481.004 96.8899L481.739 97.5682ZM482.227 101.295L481.658 102.118L481.668 102.125L482.227 101.295ZM484.466 103.409C483.488 103.409 482.63 103.226 481.874 102.876L481.035 104.692C482.082 105.176 483.232 105.409 484.466 105.409V103.409ZM481.88 102.879C481.136 102.529 480.564 102.037 480.139 101.4L478.475 102.509C479.11 103.463 479.97 104.191 481.029 104.689L481.88 102.879ZM480.141 101.403C479.737 100.792 479.511 100.022 479.511 99.0455H477.511C477.511 100.342 477.816 101.511 478.472 102.506L480.141 101.403ZM479.511 99.0455C479.511 98.1691 479.685 97.5624 479.947 97.1492L478.258 96.0781C477.732 96.9073 477.511 97.9218 477.511 99.0455H479.511ZM479.95 97.1446C480.251 96.6637 480.649 96.2909 481.157 96.0162L480.207 94.2565C479.397 94.694 478.742 95.3059 478.255 96.0827L479.95 97.1446ZM481.157 96.0162C481.727 95.7082 482.365 95.4737 483.078 95.3177L482.65 93.3641C481.771 93.5566 480.955 93.8524 480.207 94.2565L481.157 96.0162ZM483.084 95.3162C483.858 95.1412 484.634 95.0027 485.414 94.9006L485.154 92.9175C484.313 93.0276 483.476 93.177 482.643 93.3656L483.084 95.3162ZM485.412 94.9009C486.468 94.7651 487.319 94.6639 487.967 94.597L487.761 92.6076C487.09 92.677 486.221 92.7804 485.157 92.9173L485.412 94.9009ZM487.977 94.5959C488.677 94.5163 489.33 94.3738 489.817 94.0942L488.82 92.3604C488.7 92.4292 488.384 92.5368 487.751 92.6087L487.977 94.5959ZM489.807 94.0994C490.506 93.7078 490.784 93.0208 490.784 92.3182H488.784C488.784 92.4169 488.766 92.4356 488.778 92.4132C488.784 92.4018 488.793 92.3874 488.806 92.3739C488.813 92.3676 488.818 92.3629 488.823 92.3596C488.827 92.3563 488.829 92.3549 488.829 92.3551L489.807 94.0994ZM490.784 92.3182V92.2273H488.784V92.3182H490.784ZM490.784 92.2273C490.784 90.921 490.422 89.7683 489.575 88.9109L488.152 90.3164C488.533 90.7014 488.784 91.2911 488.784 92.2273H490.784ZM489.579 88.9153C488.717 88.0318 487.491 87.6818 486.102 87.6818V89.6818C487.183 89.6818 487.798 89.953 488.148 90.312L489.579 88.9153ZM486.102 87.6818C484.686 87.6818 483.44 87.9911 482.48 88.7307L483.701 90.3147C484.196 89.9332 484.957 89.6818 486.102 89.6818V87.6818ZM482.48 88.7307C481.664 89.3601 481.031 90.0771 480.65 90.8971L482.464 91.7393C482.674 91.2865 483.063 90.8065 483.701 90.3147L482.48 88.7307ZM481.893 90.3764L479.348 89.4673L478.675 91.3508L481.22 92.2599L481.893 90.3764ZM479.931 90.803C480.332 89.8664 480.844 89.1885 481.445 88.7203L480.215 87.1433C479.3 87.857 478.6 88.8306 478.092 90.0152L479.931 90.803ZM481.446 88.7195C482.108 88.2016 482.818 87.8484 483.582 87.6495L483.077 85.7141C482.038 85.9849 481.082 86.4651 480.213 87.1441L481.446 88.7195ZM483.587 87.6481C484.418 87.4265 485.225 87.3182 486.011 87.3182V85.3182C485.04 85.3182 484.059 85.4523 483.072 85.7156L483.587 87.6481ZM486.011 87.3182C486.494 87.3182 487.074 87.3772 487.759 87.5056L488.127 85.5399C487.357 85.3955 486.65 85.3182 486.011 85.3182V87.3182ZM487.771 87.5077C488.377 87.614 488.97 87.8369 489.554 88.187L490.583 86.4721C489.803 86.004 488.979 85.6891 488.116 85.5377L487.771 87.5077ZM489.558 88.1895C490.069 88.4927 490.524 88.9668 490.908 89.664L492.66 88.6996C492.135 87.7453 491.446 86.9846 490.579 86.4696L489.558 88.1895ZM490.908 89.664C491.252 90.2887 491.466 91.2085 491.466 92.5H493.466C493.466 91.0188 493.225 89.7264 492.66 88.6996L490.908 89.664ZM491.466 92.5V104H493.466V92.5H491.466ZM492.466 103H489.784V105H492.466V103ZM490.784 104V101.636H488.784V104H490.784ZM489.784 100.636H489.648V102.636H489.784V100.636ZM488.746 101.204C488.628 101.45 488.403 101.767 488.025 102.151L489.452 103.553C489.922 103.074 490.304 102.58 490.549 102.069L488.746 101.204ZM488.025 102.151C487.713 102.47 487.266 102.771 486.65 103.036L487.441 104.873C488.234 104.532 488.916 104.099 489.452 103.553L488.025 102.151ZM486.65 103.036C486.104 103.271 485.387 103.409 484.466 103.409V105.409C485.575 105.409 486.578 105.244 487.441 104.873L486.65 103.036ZM484.875 103C486.064 103 487.14 102.766 488.054 102.243L487.06 100.507C486.519 100.817 485.807 101 484.875 101V103ZM488.05 102.245C488.924 101.749 489.617 101.088 490.087 100.252L488.345 99.2706C488.073 99.7533 487.659 100.167 487.064 100.505L488.05 102.245ZM490.083 100.26C490.545 99.4561 490.784 98.592 490.784 97.6818H488.784C488.784 98.2262 488.645 98.7485 488.349 99.2631L490.083 100.26ZM490.784 97.6818V95.2273H488.784V97.6818H490.784ZM489.016 94.5871C489.053 94.542 489.084 94.5198 489.09 94.5154C489.096 94.5105 489.09 94.5158 489.064 94.5289C489.01 94.5561 488.911 94.5962 488.752 94.6429L489.316 96.5616C489.544 96.4947 489.763 96.4155 489.959 96.3177C490.144 96.2251 490.371 96.085 490.552 95.8675L489.016 94.5871ZM488.764 94.6393C488.429 94.7334 488.026 94.821 487.552 94.9L487.88 96.8728C488.406 96.7851 488.882 96.6833 489.304 96.5652L488.764 94.6393ZM487.564 94.898C487.079 94.9726 486.606 95.0396 486.145 95.0991L486.401 97.0827C486.879 97.021 487.368 96.9517 487.868 96.8747L487.564 94.898ZM486.159 95.0974C485.694 95.1508 485.313 95.1969 485.017 95.2358L485.278 97.2187C485.558 97.1819 485.927 97.1371 486.387 97.0844L486.159 95.0974ZM485.018 95.2357C484.263 95.3342 483.547 95.4956 482.873 95.723L483.513 97.6179C484.051 97.4362 484.639 97.3022 485.277 97.2189L485.018 95.2357ZM482.881 95.7206C482.146 95.9625 481.507 96.3453 481.004 96.8893L482.473 98.247C482.712 97.9881 483.044 97.7724 483.506 97.6203L482.881 95.7206ZM481.004 96.8899C480.427 97.5148 480.193 98.3195 480.193 99.1818H482.193C482.193 98.6805 482.323 98.4095 482.473 98.2465L481.004 96.8899ZM480.193 99.1818C480.193 100.399 480.666 101.431 481.658 102.118L482.796 100.473C482.41 100.206 482.193 99.8282 482.193 99.1818H480.193ZM481.668 102.125C482.57 102.732 483.661 103 484.875 103V101C483.952 101 483.278 100.798 482.786 100.466L481.668 102.125ZM500.043 104V105C500.595 105 501.043 104.552 501.043 104H500.043ZM497.361 104H496.361C496.361 104.552 496.809 105 497.361 105V104ZM497.361 86.5455V85.5455C496.809 85.5455 496.361 85.9932 496.361 86.5455H497.361ZM499.952 86.5455H500.952C500.952 85.9932 500.504 85.5455 499.952 85.5455V86.5455ZM499.952 89.2727H498.952C498.952 89.825 499.399 90.2727 499.952 90.2727V89.2727ZM500.179 89.2727V90.2727C500.569 90.2727 500.923 90.0459 501.087 89.6918L500.179 89.2727ZM502.043 87.1364L502.585 87.9766L502.59 87.9731L502.043 87.1364ZM508.372 87.0455L507.892 87.9228L507.898 87.9259L508.372 87.0455ZM510.44 89.2273L509.547 89.6773L509.549 89.68L510.44 89.2273ZM511.179 104V105C511.731 105 512.179 104.552 512.179 104H511.179ZM508.497 104H507.497C507.497 104.552 507.945 105 508.497 105V104ZM507.429 89.8864L506.694 90.5641L506.697 90.5676L507.429 89.8864ZM502.202 89.2841L501.719 88.4081L501.715 88.4104L502.202 89.2841ZM500.622 90.9091L499.743 90.4322L500.622 90.9091ZM499.043 93.5V104H501.043V93.5H499.043ZM500.043 103H497.361V105H500.043V103ZM498.361 104V86.5455H496.361V104H498.361ZM497.361 87.5455H499.952V85.5455H497.361V87.5455ZM498.952 86.5455V89.2727H500.952V86.5455H498.952ZM499.952 90.2727H500.179V88.2727H499.952V90.2727ZM501.087 89.6918C501.415 88.9805 501.908 88.4133 502.585 87.9765L501.5 86.2962C500.51 86.9352 499.761 87.7922 499.271 88.8537L501.087 89.6918ZM502.59 87.9731C503.216 87.5636 504.085 87.3182 505.27 87.3182V85.3182C503.819 85.3182 502.536 85.6183 501.495 86.2997L502.59 87.9731ZM505.27 87.3182C506.313 87.3182 507.176 87.5311 507.892 87.9228L508.852 86.1681C507.795 85.5901 506.591 85.3182 505.27 85.3182V87.3182ZM507.898 87.9259C508.588 88.2975 509.139 88.8663 509.547 89.6773L511.333 88.7773C510.757 87.6337 509.929 86.748 508.846 86.165L507.898 87.9259ZM509.549 89.68C509.949 90.4678 510.179 91.527 510.179 92.9091H512.179C512.179 91.3214 511.917 89.9262 511.332 88.7745L509.549 89.68ZM510.179 92.9091V104H512.179V92.9091H510.179ZM511.179 103H508.497V105H511.179V103ZM509.497 104V93.0909H507.497V104H509.497ZM509.497 93.0909C509.497 91.5479 509.094 90.2071 508.161 89.2051L506.697 90.5676C507.189 91.0959 507.497 91.8915 507.497 93.0909H509.497ZM508.164 89.2087C507.228 88.193 505.963 87.7273 504.497 87.7273V89.7273C505.516 89.7273 506.205 90.0343 506.694 90.564L508.164 89.2087ZM504.497 87.7273C503.492 87.7273 502.557 87.9467 501.719 88.4081L502.684 90.1601C503.194 89.8791 503.79 89.7273 504.497 89.7273V87.7273ZM501.715 88.4104C500.872 88.8797 500.214 89.564 499.743 90.4322L501.501 91.386C501.803 90.8299 502.198 90.4309 502.688 90.1578L501.715 88.4104ZM499.743 90.4322C499.26 91.3232 499.043 92.3597 499.043 93.5H501.043C501.043 92.61 501.212 91.9192 501.501 91.386L499.743 90.4322ZM525.443 104H524.443C524.443 104.552 524.891 105 525.443 105V104ZM525.443 80.7273V79.7273C524.891 79.7273 524.443 80.175 524.443 80.7273H525.443ZM539.489 80.7273H540.489C540.489 80.175 540.041 79.7273 539.489 79.7273V80.7273ZM539.489 83.2273V84.2273C540.041 84.2273 540.489 83.7796 540.489 83.2273H539.489ZM528.261 83.2273V82.2273C527.709 82.2273 527.261 82.675 527.261 83.2273H528.261ZM528.261 91.0909H527.261C527.261 91.6432 527.709 92.0909 528.261 92.0909V91.0909ZM538.761 91.0909H539.761C539.761 90.5386 539.314 90.0909 538.761 90.0909V91.0909ZM538.761 93.5909V94.5909C539.314 94.5909 539.761 94.1432 539.761 93.5909H538.761ZM528.261 93.5909V92.5909C527.709 92.5909 527.261 93.0386 527.261 93.5909H528.261ZM528.261 101.5H527.261C527.261 102.052 527.709 102.5 528.261 102.5V101.5ZM539.67 101.5H540.67C540.67 100.948 540.223 100.5 539.67 100.5V101.5ZM539.67 104V105C540.223 105 540.67 104.552 540.67 104H539.67ZM526.443 104V80.7273H524.443V104H526.443ZM525.443 81.7273H539.489V79.7273H525.443V81.7273ZM538.489 80.7273V83.2273H540.489V80.7273H538.489ZM539.489 82.2273H528.261V84.2273H539.489V82.2273ZM527.261 83.2273V91.0909H529.261V83.2273H527.261ZM528.261 92.0909H538.761V90.0909H528.261V92.0909ZM537.761 91.0909V93.5909H539.761V91.0909H537.761ZM538.761 92.5909H528.261V94.5909H538.761V92.5909ZM527.261 93.5909V101.5H529.261V93.5909H527.261ZM528.261 102.5H539.67V100.5H528.261V102.5ZM538.67 101.5V104H540.67V101.5H538.67ZM539.67 103H525.443V105H539.67V103ZM558.477 86.5455L559.415 86.8923C559.529 86.5854 559.485 86.2425 559.298 85.974C559.111 85.7055 558.804 85.5455 558.477 85.5455V86.5455ZM552.023 104V105C552.441 105 552.815 104.739 552.961 104.347L552.023 104ZM549.295 104L548.358 104.347C548.503 104.739 548.877 105 549.295 105V104ZM542.841 86.5455V85.5455C542.514 85.5455 542.207 85.7055 542.02 85.974C541.833 86.2425 541.79 86.5854 541.903 86.8923L542.841 86.5455ZM545.75 86.5455L546.695 86.2181C546.555 85.8155 546.176 85.5455 545.75 85.5455V86.5455ZM550.568 100.455L549.623 100.782C549.763 101.185 550.142 101.455 550.568 101.455V100.455ZM550.75 100.455V101.455C551.176 101.455 551.555 101.185 551.695 100.782L550.75 100.455ZM555.568 86.5455V85.5455C555.142 85.5455 554.763 85.8155 554.623 86.2181L555.568 86.5455ZM557.539 86.1986L551.085 103.653L552.961 104.347L559.415 86.8923L557.539 86.1986ZM552.023 103H549.295V105H552.023V103ZM550.233 103.653L543.779 86.1986L541.903 86.8923L548.358 104.347L550.233 103.653ZM542.841 87.5455H545.75V85.5455H542.841V87.5455ZM544.805 86.8728L549.623 100.782L551.513 100.127L546.695 86.2181L544.805 86.8728ZM550.568 101.455H550.75V99.4545H550.568V101.455ZM551.695 100.782L556.513 86.8728L554.623 86.2181L549.805 100.127L551.695 100.782ZM555.568 87.5455H558.477V85.5455H555.568V87.5455ZM564.358 103.25L563.832 104.1L563.838 104.104L564.358 103.25ZM561.551 100.114L560.651 100.549L560.654 100.555L561.551 100.114ZM561.551 90.6818L560.65 90.2486L560.649 90.2507L561.551 90.6818ZM564.301 87.4773L564.847 88.3151L564.848 88.3142L564.301 87.4773ZM571.131 86.7727L571.454 85.8265L571.131 86.7727ZM573.551 88.25L572.867 88.9795L572.871 88.9833L573.551 88.25ZM575.29 90.9318L576.222 90.5703V90.5703L575.29 90.9318ZM575.938 96.1818V97.1818C576.49 97.1818 576.938 96.7341 576.938 96.1818H575.938ZM562.483 96.1818H561.483C561.483 96.7341 561.931 97.1818 562.483 97.1818V96.1818ZM562.483 93.8636V92.8636C561.931 92.8636 561.483 93.3114 561.483 93.8636H562.483ZM573.21 93.8636V94.8636C573.763 94.8636 574.21 94.4159 574.21 93.8636H573.21ZM572.619 91.2273L571.725 91.6745L571.728 91.6815L572.619 91.2273ZM570.96 89.3977L570.429 90.2447L570.433 90.2472L570.96 89.3977ZM565.665 89.5227L566.225 90.351L566.227 90.3498L565.665 89.5227ZM563.881 91.5682L562.985 91.1242L563.881 91.5682ZM563.938 99.1705L563.042 99.6147L563.046 99.6236L563.938 99.1705ZM565.858 101.25L565.354 102.114L565.36 102.117L565.858 101.25ZM570.619 101.659L570.947 102.604L570.954 102.601L570.619 101.659ZM572.108 100.75L572.802 101.47L572.809 101.464L572.108 100.75ZM573.074 99.2273L573.344 98.2645C572.844 98.1241 572.32 98.3899 572.138 98.8761L573.074 99.2273ZM575.665 99.9545L576.62 100.251C576.7 99.9931 576.672 99.7139 576.543 99.4768C576.414 99.2396 576.195 99.0647 575.935 98.9918L575.665 99.9545ZM574.29 102.273L575.005 102.972L575.009 102.967L574.29 102.273ZM571.903 103.818L572.262 104.752L572.268 104.749L571.903 103.818ZM568.71 103.364C567.179 103.364 565.915 103.027 564.878 102.396L563.838 104.104C565.24 104.958 566.878 105.364 568.71 105.364V103.364ZM564.884 102.4C563.84 101.753 563.029 100.853 562.449 99.6725L560.654 100.555C561.391 102.056 562.452 103.247 563.832 104.1L564.884 102.4ZM562.452 99.6786C561.877 98.4896 561.574 97.0752 561.574 95.4091H559.574C559.574 97.3188 559.922 99.0407 560.651 100.549L562.452 99.6786ZM561.574 95.4091C561.574 93.7433 561.877 92.3195 562.453 91.1129L560.649 90.2507C559.922 91.7714 559.574 93.4991 559.574 95.4091H561.574ZM562.452 91.115C563.039 89.8941 563.839 88.9719 564.847 88.3151L563.755 86.6394C562.415 87.5129 561.381 88.7272 560.65 90.2486L562.452 91.115ZM564.848 88.3142C565.849 87.66 567.033 87.3182 568.438 87.3182V85.3182C566.691 85.3182 565.117 85.7491 563.754 86.6403L564.848 88.3142ZM568.438 87.3182C569.233 87.3182 570.022 87.4504 570.807 87.719L571.454 85.8265C570.467 85.489 569.46 85.3182 568.438 85.3182V87.3182ZM570.807 87.719C571.551 87.9732 572.237 88.3883 572.867 88.9795L574.235 87.5205C573.411 86.748 572.483 86.1783 571.454 85.8265L570.807 87.719ZM572.871 88.9833C573.467 89.5354 573.969 90.2927 574.357 91.2933L576.222 90.5703C575.747 89.3437 575.09 88.313 574.231 87.5167L572.871 88.9833ZM574.357 91.2933C574.732 92.2581 574.938 93.4983 574.938 95.0455H576.938C576.938 93.335 576.712 91.8328 576.222 90.5703L574.357 91.2933ZM574.938 95.0455V96.1818H576.938V95.0455H574.938ZM575.938 95.1818H562.483V97.1818H575.938V95.1818ZM563.483 96.1818V93.8636H561.483V96.1818H563.483ZM562.483 94.8636H573.21V92.8636H562.483V94.8636ZM574.21 93.8636C574.21 92.7425 573.985 91.7045 573.51 90.7731L571.728 91.6815C572.041 92.2955 572.21 93.0151 572.21 93.8636H574.21ZM573.514 90.7801C573.046 89.8453 572.368 89.0948 571.488 88.5482L570.433 90.2472C570.992 90.5946 571.42 91.0638 571.725 91.6745L573.514 90.7801ZM571.492 88.5507C570.597 87.9892 569.566 87.7273 568.438 87.7273V89.7273C569.249 89.7273 569.899 89.9123 570.429 90.2447L571.492 88.5507ZM568.438 87.7273C567.196 87.7273 566.07 88.0382 565.103 88.6957L566.227 90.3498C566.82 89.9467 567.542 89.7273 568.438 89.7273V87.7273ZM565.104 88.6944C564.188 89.3147 563.478 90.1293 562.985 91.1242L564.777 92.0122C565.117 91.3253 565.597 90.7762 566.225 90.351L565.104 88.6944ZM562.985 91.1242C562.498 92.1067 562.256 93.1606 562.256 94.2727H564.256C564.256 93.4606 564.43 92.7115 564.777 92.0122L562.985 91.1242ZM562.256 94.2727V95.8182H564.256V94.2727H562.256ZM562.256 95.8182C562.256 97.2475 562.502 98.526 563.042 99.6147L564.833 98.7262C564.464 97.9815 564.256 97.0252 564.256 95.8182H562.256ZM563.046 99.6236C563.588 100.69 564.357 101.532 565.354 102.114L566.362 100.386C565.722 100.013 565.211 99.4688 564.829 98.7173L563.046 99.6236ZM565.36 102.117C566.351 102.686 567.478 102.955 568.71 102.955V100.955C567.775 100.955 567.001 100.753 566.356 100.383L565.36 102.117ZM568.71 102.955C569.508 102.955 570.257 102.843 570.947 102.604L570.292 100.714C569.845 100.869 569.322 100.955 568.71 100.955V102.955ZM570.954 102.601C571.656 102.352 572.277 101.976 572.802 101.47L571.414 100.03C571.106 100.327 570.734 100.557 570.285 100.717L570.954 102.601ZM572.809 101.464C573.34 100.942 573.737 100.306 574.01 99.5784L572.138 98.8761C571.956 99.3606 571.709 99.7401 571.407 100.036L572.809 101.464ZM572.804 100.19L575.395 100.917L575.935 98.9918L573.344 98.2645L572.804 100.19ZM574.71 99.6581C574.484 100.386 574.107 101.023 573.571 101.578L575.009 102.967C575.761 102.189 576.3 101.28 576.62 100.251L574.71 99.6581ZM573.574 101.574C573.039 102.122 572.367 102.562 571.538 102.887L572.268 104.749C573.333 104.332 574.252 103.742 575.005 102.972L573.574 101.574ZM571.545 102.885C570.73 103.198 569.789 103.364 568.71 103.364V105.364C569.995 105.364 571.183 105.166 572.262 104.752L571.545 102.885ZM582.699 104V105C583.251 105 583.699 104.552 583.699 104H582.699ZM580.017 104H579.017C579.017 104.552 579.465 105 580.017 105V104ZM580.017 86.5455V85.5455C579.465 85.5455 579.017 85.9932 579.017 86.5455H580.017ZM582.608 86.5455H583.608C583.608 85.9932 583.16 85.5455 582.608 85.5455V86.5455ZM582.608 89.2727H581.608C581.608 89.825 582.056 90.2727 582.608 90.2727V89.2727ZM582.835 89.2727V90.2727C583.225 90.2727 583.58 90.0459 583.743 89.6918L582.835 89.2727ZM584.699 87.1364L585.241 87.9766L585.247 87.9731L584.699 87.1364ZM591.028 87.0455L590.548 87.9228L590.554 87.9259L591.028 87.0455ZM593.097 89.2273L592.204 89.6773L592.205 89.68L593.097 89.2273ZM593.835 104V105C594.388 105 594.835 104.552 594.835 104H593.835ZM591.153 104H590.153C590.153 104.552 590.601 105 591.153 105V104ZM590.085 89.8864L589.35 90.5641L589.353 90.5676L590.085 89.8864ZM584.858 89.2841L584.376 88.4081L584.371 88.4104L584.858 89.2841ZM583.278 90.9091L582.399 90.4322L583.278 90.9091ZM581.699 93.5V104H583.699V93.5H581.699ZM582.699 103H580.017V105H582.699V103ZM581.017 104V86.5455H579.017V104H581.017ZM580.017 87.5455H582.608V85.5455H580.017V87.5455ZM581.608 86.5455V89.2727H583.608V86.5455H581.608ZM582.608 90.2727H582.835V88.2727H582.608V90.2727ZM583.743 89.6918C584.071 88.9805 584.564 88.4133 585.241 87.9765L584.157 86.2962C583.167 86.9352 582.417 87.7922 581.927 88.8537L583.743 89.6918ZM585.247 87.9731C585.872 87.5636 586.741 87.3182 587.926 87.3182V85.3182C586.475 85.3182 585.192 85.6183 584.151 86.2997L585.247 87.9731ZM587.926 87.3182C588.969 87.3182 589.832 87.5311 590.549 87.9228L591.508 86.1681C590.452 85.5901 589.247 85.3182 587.926 85.3182V87.3182ZM590.554 87.9259C591.244 88.2975 591.795 88.8663 592.204 89.6773L593.99 88.7773C593.413 87.6337 592.585 86.748 591.503 86.165L590.554 87.9259ZM592.205 89.68C592.605 90.4678 592.835 91.527 592.835 92.9091H594.835C594.835 91.3214 594.573 89.9262 593.988 88.7745L592.205 89.68ZM592.835 92.9091V104H594.835V92.9091H592.835ZM593.835 103H591.153V105H593.835V103ZM592.153 104V93.0909H590.153V104H592.153ZM592.153 93.0909C592.153 91.5479 591.75 90.2071 590.817 89.2051L589.353 90.5676C589.845 91.0959 590.153 91.8915 590.153 93.0909H592.153ZM590.821 89.2087C589.885 88.193 588.62 87.7273 587.153 87.7273V89.7273C588.172 89.7273 588.862 90.0343 589.35 90.564L590.821 89.2087ZM587.153 87.7273C586.148 87.7273 585.214 87.9467 584.376 88.4081L585.34 90.1601C585.851 89.8791 586.447 89.7273 587.153 89.7273V87.7273ZM584.371 88.4104C583.529 88.8797 582.87 89.564 582.399 90.4322L584.157 91.386C584.459 90.8299 584.854 90.4309 585.344 90.1578L584.371 88.4104ZM582.399 90.4322C581.916 91.3232 581.699 92.3597 581.699 93.5H583.699C583.699 92.61 583.868 91.9192 584.157 91.386L582.399 90.4322ZM606.327 86.5455H607.327C607.327 85.9932 606.879 85.5455 606.327 85.5455V86.5455ZM606.327 88.8182V89.8182C606.879 89.8182 607.327 89.3705 607.327 88.8182H606.327ZM597.281 88.8182H596.281C596.281 89.3705 596.729 89.8182 597.281 89.8182V88.8182ZM597.281 86.5455V85.5455C596.729 85.5455 596.281 85.9932 596.281 86.5455H597.281ZM599.918 82.3636V81.3636C599.365 81.3636 598.918 81.8114 598.918 82.3636H599.918ZM602.599 82.3636H603.599C603.599 81.8114 603.152 81.3636 602.599 81.3636V82.3636ZM602.929 100.705L602.064 101.206C602.068 101.213 602.072 101.22 602.076 101.227L602.929 100.705ZM603.793 101.455L603.446 102.393C603.454 102.396 603.462 102.398 603.47 102.401L603.793 101.455ZM605.645 101.591L605.803 102.578C605.816 102.576 605.828 102.574 605.841 102.571L605.645 101.591ZM606.099 101.5L607.075 101.279C606.955 100.75 606.435 100.413 605.903 100.519L606.099 101.5ZM606.645 103.909L606.996 104.845C607.464 104.67 607.731 104.176 607.62 103.688L606.645 103.909ZM605.884 104.114L605.679 103.135C605.671 103.136 605.664 103.138 605.657 103.14L605.884 104.114ZM602.418 103.739L602.005 104.65L602.009 104.651L602.418 103.739ZM600.622 102.25L599.805 102.826L599.809 102.832L600.622 102.25ZM605.327 86.5455V88.8182H607.327V86.5455H605.327ZM606.327 87.8182H597.281V89.8182H606.327V87.8182ZM598.281 88.8182V86.5455H596.281V88.8182H598.281ZM597.281 87.5455H606.327V85.5455H597.281V87.5455ZM599.918 83.3636H602.599V81.3636H599.918V83.3636ZM601.599 82.3636V99H603.599V82.3636H601.599ZM601.599 99C601.599 99.8215 601.713 100.601 602.064 101.206L603.794 100.203C603.706 100.051 603.599 99.6937 603.599 99H601.599ZM602.076 101.227C602.4 101.755 602.852 102.173 603.446 102.393L604.139 100.517C604.036 100.478 603.913 100.396 603.782 100.182L602.076 101.227ZM603.47 102.401C603.935 102.559 604.419 102.636 604.918 102.636V100.636C604.628 100.636 604.362 100.592 604.115 100.508L603.47 102.401ZM604.918 102.636C605.241 102.636 605.541 102.62 605.803 102.578L605.487 100.603C605.37 100.622 605.185 100.636 604.918 100.636V102.636ZM605.841 102.571C606.03 102.534 606.182 102.503 606.296 102.481L605.903 100.519C605.79 100.542 605.638 100.572 605.449 100.61L605.841 102.571ZM605.124 101.721L605.67 104.13L607.62 103.688L607.075 101.279L605.124 101.721ZM606.294 102.973C606.181 103.015 605.984 103.071 605.679 103.135L606.088 105.092C606.434 105.02 606.745 104.94 606.996 104.845L606.294 102.973ZM605.657 103.14C605.432 103.192 605.102 103.227 604.645 103.227V105.227C605.188 105.227 605.683 105.187 606.11 105.088L605.657 103.14ZM604.645 103.227C604.035 103.227 603.432 103.097 602.826 102.826L602.009 104.651C602.858 105.032 603.739 105.227 604.645 105.227V103.227ZM602.83 102.828C602.277 102.577 601.814 102.197 601.435 101.668L599.809 102.832C600.385 103.636 601.119 104.249 602.005 104.65L602.83 102.828ZM601.44 101.674C601.115 101.213 600.918 100.587 600.918 99.7273H598.918C598.918 100.898 599.19 101.953 599.805 102.826L601.44 101.674ZM600.918 99.7273V82.3636H598.918V99.7273H600.918Z" fill="#E8E8E8"/>
<path d="M59.5 78C59.5 72.7533 63.7533 68.5 69 68.5H240C245.247 68.5 249.5 72.7533 249.5 78V90.7145C249.5 95.9612 245.247 100.215 240 100.215H69C63.7533 100.215 59.5 95.9612 59.5 90.7145V78Z" fill="white" stroke="white" stroke-linejoin="round"/>
<path d="M77.1748 85.424H76.6526L76.4676 85.232C77.1377 84.3956 77.5059 83.3279 77.5052 82.2237C77.5052 81.3094 77.2533 80.4156 76.7812 79.6554C76.3092 78.8952 75.6383 78.3027 74.8533 77.9528C74.0683 77.603 73.2046 77.5114 72.3713 77.6898C71.538 77.8681 70.7725 78.3084 70.1717 78.9549C69.571 79.6014 69.1618 80.4251 68.9961 81.3218C68.8303 82.2185 68.9154 83.148 69.2405 83.9927C69.5657 84.8374 70.1163 85.5594 70.8227 86.0673C71.5292 86.5752 72.3597 86.8464 73.2094 86.8464C74.2734 86.8464 75.2515 86.4268 76.005 85.7298L76.1834 85.9289V86.4908L79.4879 90.0396L80.4727 88.9799L77.1748 85.424ZM73.2094 85.424C71.5637 85.424 70.2353 83.9945 70.2353 82.2237C70.2353 80.4528 71.5637 79.0233 73.2094 79.0233C74.855 79.0233 76.1834 80.4528 76.1834 82.2237C76.1834 83.9945 74.855 85.424 73.2094 85.424Z" fill="#8F8E8E"/>
<path d="M90.2106 83.1364C90.1765 82.8485 90.0382 82.625 89.7958 82.4659C89.5534 82.3068 89.256 82.2273 88.9038 82.2273C88.6462 82.2273 88.4208 82.2689 88.2276 82.3523C88.0363 82.4356 87.8867 82.5502 87.7788 82.696C87.6727 82.8419 87.6197 83.0076 87.6197 83.1932C87.6197 83.3485 87.6566 83.482 87.7305 83.5938C87.8062 83.7036 87.9028 83.7955 88.0202 83.8693C88.1377 83.9413 88.2608 84.0009 88.3896 84.0483C88.5183 84.0937 88.6367 84.1307 88.7447 84.1591L89.3356 84.3182C89.4871 84.358 89.6557 84.4129 89.8413 84.483C90.0288 84.553 90.2077 84.6487 90.3782 84.7699C90.5505 84.8892 90.6926 85.0426 90.8043 85.2301C90.9161 85.4176 90.9719 85.6477 90.9719 85.9205C90.9719 86.2348 90.8896 86.5189 90.7248 86.7727C90.5619 87.0265 90.3233 87.2282 90.0089 87.3778C89.6964 87.5275 89.3166 87.6023 88.8697 87.6023C88.453 87.6023 88.0922 87.535 87.7873 87.4006C87.4843 87.2661 87.2456 87.0786 87.0714 86.8381C86.899 86.5975 86.8015 86.3182 86.7788 86H87.506C87.525 86.2197 87.5988 86.4015 87.7276 86.5455C87.8583 86.6875 88.0231 86.7936 88.2219 86.8636C88.4227 86.9318 88.6386 86.9659 88.8697 86.9659C89.1386 86.9659 89.3801 86.9223 89.5941 86.8352C89.8081 86.7462 89.9776 86.6231 90.1026 86.4659C90.2276 86.3068 90.2901 86.1212 90.2901 85.9091C90.2901 85.7159 90.2362 85.5587 90.1282 85.4375C90.0202 85.3163 89.8782 85.2178 89.7021 85.142C89.5259 85.0663 89.3356 85 89.131 84.9432L88.4151 84.7386C87.9606 84.608 87.6007 84.4214 87.3356 84.179C87.0704 83.9366 86.9379 83.6193 86.9379 83.2273C86.9379 82.9015 87.0259 82.6174 87.2021 82.375C87.3801 82.1307 87.6187 81.9413 87.918 81.8068C88.2191 81.6705 88.5553 81.6023 88.9265 81.6023C89.3015 81.6023 89.6348 81.6695 89.9265 81.804C90.2182 81.9366 90.4492 82.1184 90.6197 82.3494C90.792 82.5805 90.8829 82.8428 90.8924 83.1364H90.2106ZM93.869 87.5909C93.4485 87.5909 93.0858 87.4981 92.7809 87.3125C92.4779 87.125 92.244 86.8636 92.0792 86.5284C91.9163 86.1913 91.8349 85.7992 91.8349 85.3523C91.8349 84.9053 91.9163 84.5114 92.0792 84.1705C92.244 83.8277 92.4731 83.5606 92.7667 83.3693C93.0621 83.1761 93.4068 83.0795 93.8008 83.0795C94.0281 83.0795 94.2525 83.1174 94.4741 83.1932C94.6957 83.2689 94.8974 83.392 95.0792 83.5625C95.261 83.7311 95.4059 83.9545 95.5138 84.233C95.6218 84.5114 95.6758 84.8542 95.6758 85.2614V85.5455H92.3121V84.9659H94.994C94.994 84.7197 94.9447 84.5 94.8462 84.3068C94.7496 84.1136 94.6114 83.9612 94.4315 83.8494C94.2534 83.7377 94.0432 83.6818 93.8008 83.6818C93.5337 83.6818 93.3027 83.7481 93.1076 83.8807C92.9144 84.0114 92.7657 84.1818 92.6616 84.392C92.5574 84.6023 92.5053 84.8277 92.5053 85.0682V85.4545C92.5053 85.7841 92.5621 86.0634 92.6758 86.2926C92.7913 86.5199 92.9513 86.6932 93.1559 86.8125C93.3604 86.9299 93.5981 86.9886 93.869 86.9886C94.0451 86.9886 94.2042 86.964 94.3462 86.9148C94.4902 86.8636 94.6142 86.7879 94.7184 86.6875C94.8226 86.5852 94.9031 86.4583 94.9599 86.3068L95.6076 86.4886C95.5394 86.7083 95.4248 86.9015 95.2638 87.0682C95.1029 87.233 94.904 87.3617 94.6673 87.4545C94.4305 87.5455 94.1644 87.5909 93.869 87.5909ZM97.9798 87.6023C97.7032 87.6023 97.4523 87.5502 97.2269 87.446C97.0015 87.34 96.8226 87.1875 96.69 86.9886C96.5574 86.7879 96.4911 86.5455 96.4911 86.2614C96.4911 86.0114 96.5404 85.8087 96.6388 85.6534C96.7373 85.4962 96.869 85.3731 97.0337 85.2841C97.1985 85.1951 97.3803 85.1288 97.5792 85.0852C97.7799 85.0398 97.9817 85.0038 98.1843 84.9773C98.4495 84.9432 98.6644 84.9176 98.8292 84.9006C98.9959 84.8816 99.1171 84.8504 99.1928 84.8068C99.2705 84.7633 99.3093 84.6875 99.3093 84.5795V84.5568C99.3093 84.2765 99.2326 84.0587 99.0792 83.9034C98.9277 83.7481 98.6976 83.6705 98.3888 83.6705C98.0688 83.6705 97.8178 83.7405 97.636 83.8807C97.4542 84.0208 97.3263 84.1705 97.2525 84.3295L96.6161 84.1023C96.7298 83.8371 96.8813 83.6307 97.0707 83.483C97.262 83.3333 97.4703 83.2292 97.6957 83.1705C97.9229 83.1098 98.1464 83.0795 98.3661 83.0795C98.5063 83.0795 98.6673 83.0966 98.8491 83.1307C99.0328 83.1629 99.2099 83.2301 99.3803 83.3324C99.5527 83.4347 99.6957 83.589 99.8093 83.7955C99.9229 84.0019 99.9798 84.2784 99.9798 84.625V87.5H99.3093V86.9091H99.2752C99.2298 87.0038 99.154 87.1051 99.0479 87.2131C98.9419 87.321 98.8008 87.4129 98.6246 87.4886C98.4485 87.5644 98.2335 87.6023 97.9798 87.6023ZM98.082 87C98.3472 87 98.5707 86.9479 98.7525 86.8438C98.9362 86.7396 99.0745 86.6051 99.1673 86.4403C99.262 86.2756 99.3093 86.1023 99.3093 85.9205V85.3068C99.2809 85.3409 99.2184 85.3722 99.1218 85.4006C99.0271 85.4271 98.9173 85.4508 98.7923 85.4716C98.6692 85.4905 98.5489 85.5076 98.4315 85.5227C98.3159 85.536 98.2222 85.5473 98.1502 85.5568C97.976 85.5795 97.8131 85.6165 97.6616 85.6676C97.512 85.7169 97.3907 85.7917 97.2979 85.892C97.207 85.9905 97.1616 86.125 97.1616 86.2955C97.1616 86.5284 97.2478 86.7045 97.4201 86.8239C97.5943 86.9413 97.815 87 98.082 87ZM101.203 87.5V83.1364H101.851V83.7955H101.897C101.976 83.5795 102.12 83.4044 102.328 83.2699C102.537 83.1354 102.772 83.0682 103.033 83.0682C103.082 83.0682 103.144 83.0691 103.218 83.071C103.292 83.0729 103.347 83.0758 103.385 83.0795V83.7614C103.363 83.7557 103.31 83.7472 103.229 83.7358C103.15 83.7225 103.065 83.7159 102.976 83.7159C102.764 83.7159 102.575 83.7604 102.408 83.8494C102.243 83.9366 102.113 84.0578 102.016 84.2131C101.921 84.3665 101.874 84.5417 101.874 84.7386V87.5H101.203ZM105.82 87.5909C105.411 87.5909 105.059 87.4943 104.763 87.3011C104.468 87.108 104.24 86.8419 104.081 86.5028C103.922 86.1638 103.843 85.7765 103.843 85.3409C103.843 84.8977 103.924 84.5066 104.087 84.1676C104.252 83.8267 104.481 83.5606 104.775 83.3693C105.07 83.1761 105.415 83.0795 105.809 83.0795C106.115 83.0795 106.392 83.1364 106.638 83.25C106.884 83.3636 107.086 83.5227 107.243 83.7273C107.4 83.9318 107.498 84.1705 107.536 84.4432H106.865C106.814 84.2443 106.701 84.0682 106.525 83.9148C106.35 83.7595 106.115 83.6818 105.82 83.6818C105.559 83.6818 105.329 83.75 105.132 83.8864C104.937 84.0208 104.785 84.2112 104.675 84.4574C104.567 84.7017 104.513 84.9886 104.513 85.3182C104.513 85.6553 104.566 85.9489 104.672 86.1989C104.78 86.4489 104.932 86.643 105.127 86.7812C105.324 86.9195 105.555 86.9886 105.82 86.9886C105.994 86.9886 106.152 86.9583 106.294 86.8977C106.436 86.8371 106.557 86.75 106.655 86.6364C106.754 86.5227 106.824 86.3864 106.865 86.2273H107.536C107.498 86.4848 107.404 86.7169 107.255 86.9233C107.107 87.1278 106.911 87.2907 106.667 87.4119C106.424 87.5312 106.142 87.5909 105.82 87.5909ZM109.186 84.875V87.5H108.516V81.6818H109.186V83.8182H109.243C109.346 83.5928 109.499 83.4138 109.703 83.2812C109.91 83.1468 110.185 83.0795 110.527 83.0795C110.825 83.0795 111.085 83.1392 111.309 83.2585C111.532 83.3759 111.705 83.5568 111.828 83.8011C111.953 84.0436 112.016 84.3523 112.016 84.7273V87.5H111.346V84.7727C111.346 84.4261 111.256 84.1581 111.076 83.9688C110.898 83.7775 110.65 83.6818 110.334 83.6818C110.114 83.6818 109.917 83.7282 109.743 83.821C109.571 83.9138 109.435 84.0492 109.334 84.2273C109.236 84.4053 109.186 84.6212 109.186 84.875ZM115.924 89.1364C115.811 89.1364 115.709 89.1269 115.62 89.108C115.531 89.0909 115.47 89.0739 115.436 89.0568L115.606 88.4659C115.769 88.5076 115.913 88.5227 116.038 88.5114C116.163 88.5 116.274 88.4441 116.37 88.3438C116.469 88.2453 116.559 88.0852 116.64 87.8636L116.765 87.5227L115.152 83.1364H115.879L117.083 86.6136H117.129L118.333 83.1364H119.061L117.208 88.1364C117.125 88.3617 117.022 88.5483 116.899 88.696C116.776 88.8456 116.633 88.9564 116.47 89.0284C116.309 89.1004 116.127 89.1364 115.924 89.1364ZM121.562 87.5909C121.168 87.5909 120.823 87.4972 120.525 87.3097C120.23 87.1222 119.999 86.8598 119.832 86.5227C119.667 86.1856 119.585 85.7917 119.585 85.3409C119.585 84.8864 119.667 84.4896 119.832 84.1506C119.999 83.8116 120.23 83.5483 120.525 83.3608C120.823 83.1733 121.168 83.0795 121.562 83.0795C121.956 83.0795 122.301 83.1733 122.596 83.3608C122.894 83.5483 123.125 83.8116 123.289 84.1506C123.456 84.4896 123.539 84.8864 123.539 85.3409C123.539 85.7917 123.456 86.1856 123.289 86.5227C123.125 86.8598 122.894 87.1222 122.596 87.3097C122.301 87.4972 121.956 87.5909 121.562 87.5909ZM121.562 86.9886C121.861 86.9886 122.108 86.9119 122.301 86.7585C122.494 86.6051 122.637 86.4034 122.73 86.1534C122.823 85.9034 122.869 85.6326 122.869 85.3409C122.869 85.0492 122.823 84.7775 122.73 84.5256C122.637 84.2737 122.494 84.0701 122.301 83.9148C122.108 83.7595 121.861 83.6818 121.562 83.6818C121.263 83.6818 121.017 83.7595 120.824 83.9148C120.63 84.0701 120.487 84.2737 120.395 84.5256C120.302 84.7775 120.255 85.0492 120.255 85.3409C120.255 85.6326 120.302 85.9034 120.395 86.1534C120.487 86.4034 120.63 86.6051 120.824 86.7585C121.017 86.9119 121.263 86.9886 121.562 86.9886ZM127.313 85.7159V83.1364H127.983V87.5H127.313V86.7614H127.267C127.165 86.983 127.006 87.1714 126.79 87.3267C126.574 87.4801 126.301 87.5568 125.972 87.5568C125.699 87.5568 125.457 87.4972 125.245 87.3778C125.033 87.2566 124.866 87.0748 124.745 86.8324C124.623 86.5881 124.563 86.2803 124.563 85.9091V83.1364H125.233V85.8636C125.233 86.1818 125.322 86.4356 125.5 86.625C125.68 86.8144 125.909 86.9091 126.188 86.9091C126.355 86.9091 126.524 86.8665 126.696 86.7812C126.871 86.696 127.016 86.5653 127.134 86.3892C127.253 86.2131 127.313 85.9886 127.313 85.7159ZM129.211 87.5V83.1364H129.859V83.7955H129.904C129.984 83.5795 130.128 83.4044 130.336 83.2699C130.545 83.1354 130.779 83.0682 131.041 83.0682C131.09 83.0682 131.152 83.0691 131.225 83.071C131.299 83.0729 131.355 83.0758 131.393 83.0795V83.7614C131.37 83.7557 131.318 83.7472 131.237 83.7358C131.157 83.7225 131.073 83.7159 130.984 83.7159C130.772 83.7159 130.583 83.7604 130.416 83.8494C130.251 83.9366 130.12 84.0578 130.024 84.2131C129.929 84.3665 129.882 84.5417 129.882 84.7386V87.5H129.211ZM136.381 83.1364V83.7045H134.029V83.1364H136.381ZM134.733 87.5V82.5341C134.733 82.2841 134.792 82.0758 134.909 81.9091C135.027 81.7424 135.179 81.6174 135.367 81.5341C135.554 81.4508 135.752 81.4091 135.961 81.4091C136.125 81.4091 136.26 81.4223 136.364 81.4489C136.468 81.4754 136.546 81.5 136.597 81.5227L136.404 82.1023C136.37 82.0909 136.322 82.0767 136.262 82.0597C136.203 82.0426 136.125 82.0341 136.029 82.0341C135.807 82.0341 135.647 82.09 135.549 82.2017C135.452 82.3134 135.404 82.4773 135.404 82.6932V87.5H134.733ZM137.321 87.5V83.1364H137.968V83.7955H138.014C138.093 83.5795 138.237 83.4044 138.446 83.2699C138.654 83.1354 138.889 83.0682 139.15 83.0682C139.199 83.0682 139.261 83.0691 139.335 83.071C139.409 83.0729 139.465 83.0758 139.502 83.0795V83.7614C139.48 83.7557 139.428 83.7472 139.346 83.7358C139.267 83.7225 139.182 83.7159 139.093 83.7159C138.881 83.7159 138.692 83.7604 138.525 83.8494C138.36 83.9366 138.23 84.0578 138.133 84.2131C138.038 84.3665 137.991 84.5417 137.991 84.7386V87.5H137.321ZM140.297 87.5V83.1364H140.968V87.5H140.297ZM140.638 82.4091C140.507 82.4091 140.395 82.3646 140.3 82.2756C140.207 82.1866 140.161 82.0795 140.161 81.9545C140.161 81.8295 140.207 81.7225 140.3 81.6335C140.395 81.5445 140.507 81.5 140.638 81.5C140.769 81.5 140.881 81.5445 140.973 81.6335C141.068 81.7225 141.115 81.8295 141.115 81.9545C141.115 82.0795 141.068 82.1866 140.973 82.2756C140.881 82.3646 140.769 82.4091 140.638 82.4091ZM144.025 87.5909C143.605 87.5909 143.242 87.4981 142.937 87.3125C142.634 87.125 142.4 86.8636 142.235 86.5284C142.073 86.1913 141.991 85.7992 141.991 85.3523C141.991 84.9053 142.073 84.5114 142.235 84.1705C142.4 83.8277 142.629 83.5606 142.923 83.3693C143.218 83.1761 143.563 83.0795 143.957 83.0795C144.184 83.0795 144.409 83.1174 144.63 83.1932C144.852 83.2689 145.054 83.392 145.235 83.5625C145.417 83.7311 145.562 83.9545 145.67 84.233C145.778 84.5114 145.832 84.8542 145.832 85.2614V85.5455H142.468V84.9659H145.15C145.15 84.7197 145.101 84.5 145.002 84.3068C144.906 84.1136 144.768 83.9612 144.588 83.8494C144.41 83.7377 144.199 83.6818 143.957 83.6818C143.69 83.6818 143.459 83.7481 143.264 83.8807C143.071 84.0114 142.922 84.1818 142.818 84.392C142.714 84.6023 142.662 84.8277 142.662 85.0682V85.4545C142.662 85.7841 142.718 86.0634 142.832 86.2926C142.948 86.5199 143.108 86.6932 143.312 86.8125C143.517 86.9299 143.754 86.9886 144.025 86.9886C144.201 86.9886 144.36 86.964 144.502 86.9148C144.646 86.8636 144.77 86.7879 144.875 86.6875C144.979 86.5852 145.059 86.4583 145.116 86.3068L145.764 86.4886C145.696 86.7083 145.581 86.9015 145.42 87.0682C145.259 87.233 145.06 87.3617 144.824 87.4545C144.587 87.5455 144.321 87.5909 144.025 87.5909ZM147.522 84.875V87.5H146.852V83.1364H147.5V83.8182H147.556C147.659 83.5966 147.814 83.4186 148.022 83.2841C148.231 83.1477 148.5 83.0795 148.829 83.0795C149.125 83.0795 149.383 83.1402 149.605 83.2614C149.826 83.3807 149.999 83.5625 150.122 83.8068C150.245 84.0492 150.306 84.3561 150.306 84.7273V87.5H149.636V84.7727C149.636 84.4299 149.547 84.1629 149.369 83.9716C149.191 83.7784 148.947 83.6818 148.636 83.6818C148.422 83.6818 148.231 83.7282 148.062 83.821C147.895 83.9138 147.764 84.0492 147.667 84.2273C147.571 84.4053 147.522 84.6212 147.522 84.875ZM153.179 87.5909C152.816 87.5909 152.495 87.4991 152.216 87.3153C151.938 87.1297 151.72 86.8684 151.563 86.5312C151.406 86.1922 151.327 85.7917 151.327 85.3295C151.327 84.8712 151.406 84.4735 151.563 84.1364C151.72 83.7992 151.939 83.5388 152.219 83.3551C152.499 83.1714 152.823 83.0795 153.191 83.0795C153.475 83.0795 153.699 83.1269 153.864 83.2216C154.031 83.3144 154.158 83.4205 154.245 83.5398C154.334 83.6572 154.403 83.7538 154.452 83.8295H154.509V81.6818H155.179V87.5H154.532V86.8295H154.452C154.403 86.9091 154.333 87.0095 154.242 87.1307C154.151 87.25 154.021 87.357 153.853 87.4517C153.684 87.5445 153.46 87.5909 153.179 87.5909ZM153.27 86.9886C153.539 86.9886 153.766 86.9186 153.952 86.7784C154.138 86.6364 154.279 86.4403 154.375 86.1903C154.472 85.9384 154.52 85.6477 154.52 85.3182C154.52 84.9924 154.473 84.7074 154.378 84.4631C154.283 84.2169 154.143 84.0256 153.958 83.8892C153.772 83.7509 153.543 83.6818 153.27 83.6818C152.986 83.6818 152.749 83.7547 152.56 83.9006C152.373 84.0445 152.231 84.2405 152.137 84.4886C152.044 84.7348 151.998 85.0114 151.998 85.3182C151.998 85.6288 152.045 85.911 152.14 86.1648C152.236 86.4167 152.378 86.6174 152.566 86.767C152.755 86.9148 152.99 86.9886 153.27 86.9886ZM159.591 84.1136L158.989 84.2841C158.951 84.1837 158.895 84.0862 158.821 83.9915C158.749 83.8949 158.651 83.8153 158.526 83.7528C158.401 83.6903 158.241 83.6591 158.046 83.6591C157.779 83.6591 157.556 83.7206 157.378 83.8438C157.202 83.965 157.114 84.1193 157.114 84.3068C157.114 84.4735 157.175 84.6051 157.296 84.7017C157.417 84.7983 157.606 84.8788 157.864 84.9432L158.512 85.1023C158.902 85.197 159.193 85.3419 159.384 85.5369C159.575 85.7301 159.671 85.9792 159.671 86.2841C159.671 86.5341 159.599 86.7576 159.455 86.9545C159.313 87.1515 159.114 87.3068 158.858 87.4205C158.603 87.5341 158.305 87.5909 157.966 87.5909C157.521 87.5909 157.153 87.4943 156.861 87.3011C156.569 87.108 156.385 86.8258 156.307 86.4545L156.944 86.2955C157.004 86.5303 157.119 86.7064 157.287 86.8239C157.458 86.9413 157.68 87 157.955 87C158.267 87 158.516 86.9337 158.699 86.8011C158.885 86.6667 158.978 86.5057 158.978 86.3182C158.978 86.1667 158.925 86.0398 158.819 85.9375C158.712 85.8333 158.55 85.7557 158.33 85.7045L157.603 85.5341C157.203 85.4394 156.909 85.2926 156.722 85.0938C156.536 84.893 156.444 84.642 156.444 84.3409C156.444 84.0947 156.513 83.8769 156.651 83.6875C156.791 83.4981 156.981 83.3494 157.222 83.2415C157.464 83.1335 157.739 83.0795 158.046 83.0795C158.478 83.0795 158.817 83.1742 159.063 83.3636C159.311 83.553 159.487 83.803 159.591 84.1136ZM161.169 87.5455C161.029 87.5455 160.908 87.4953 160.808 87.3949C160.708 87.2945 160.657 87.1742 160.657 87.0341C160.657 86.8939 160.708 86.7737 160.808 86.6733C160.908 86.5729 161.029 86.5227 161.169 86.5227C161.309 86.5227 161.429 86.5729 161.529 86.6733C161.63 86.7737 161.68 86.8939 161.68 87.0341C161.68 87.1269 161.656 87.2121 161.609 87.2898C161.564 87.3674 161.502 87.4299 161.424 87.4773C161.349 87.5227 161.263 87.5455 161.169 87.5455ZM163.372 87.5455C163.232 87.5455 163.111 87.4953 163.011 87.3949C162.911 87.2945 162.86 87.1742 162.86 87.0341C162.86 86.8939 162.911 86.7737 163.011 86.6733C163.111 86.5729 163.232 86.5227 163.372 86.5227C163.512 86.5227 163.632 86.5729 163.733 86.6733C163.833 86.7737 163.883 86.8939 163.883 87.0341C163.883 87.1269 163.859 87.2121 163.812 87.2898C163.767 87.3674 163.705 87.4299 163.627 87.4773C163.552 87.5227 163.467 87.5455 163.372 87.5455ZM165.575 87.5455C165.435 87.5455 165.315 87.4953 165.214 87.3949C165.114 87.2945 165.064 87.1742 165.064 87.0341C165.064 86.8939 165.114 86.7737 165.214 86.6733C165.315 86.5729 165.435 86.5227 165.575 86.5227C165.715 86.5227 165.835 86.5729 165.936 86.6733C166.036 86.7737 166.086 86.8939 166.086 87.0341C166.086 87.1269 166.063 87.2121 166.015 87.2898C165.97 87.3674 165.908 87.4299 165.831 87.4773C165.755 87.5227 165.67 87.5455 165.575 87.5455Z" fill="#8F8E8E"/>
<g filter="url(#filter2_d_21_176)">
<rect x="75" y="137" width="220" height="100" fill="white"/>
<rect x="69" y="131" width="232" height="112" stroke="white" stroke-width="12" stroke-linejoin="round"/>
</g>
<g filter="url(#filter3_d_21_176)">
<rect x="748" y="292" width="220" height="100" fill="white"/>
<rect x="742" y="286" width="232" height="112" stroke="white" stroke-width="12" stroke-linejoin="round"/>
</g>
<g filter="url(#filter4_d_21_176)">
<rect x="748" y="447" width="220" height="100" fill="white"/>
<rect x="742" y="441" width="232" height="112" stroke="white" stroke-width="12" stroke-linejoin="round"/>
</g>
<g filter="url(#filter5_d_21_176)">
<rect x="405" y="137" width="220" height="100" fill="white"/>
<rect x="399" y="131" width="232" height="112" stroke="white" stroke-width="12" stroke-linejoin="round"/>
</g>
<g filter="url(#filter6_d_21_176)">
<rect x="748" y="137" width="220" height="100" fill="white"/>
<rect x="742" y="131" width="232" height="112" stroke="white" stroke-width="12" stroke-linejoin="round"/>
</g>
<g filter="url(#filter7_d_21_176)">
<rect x="405" y="292" width="220" height="100" fill="white"/>
<rect x="399" y="286" width="232" height="112" stroke="white" stroke-width="12" stroke-linejoin="round"/>
</g>
<g filter="url(#filter8_d_21_176)">
<rect x="404" y="447" width="220" height="100" fill="white"/>
<rect x="398" y="441" width="232" height="112" stroke="white" stroke-width="12" stroke-linejoin="round"/>
</g>
<g filter="url(#filter9_d_21_176)">
<rect x="73" y="447" width="220" height="100" fill="white"/>
<rect x="67" y="441" width="232" height="112" stroke="white" stroke-width="12" stroke-linejoin="round"/>
</g>
<g filter="url(#filter10_d_21_176)">
<rect x="75" y="292" width="220" height="100" fill="white"/>
<rect x="69" y="286" width="232" height="112" stroke="white" stroke-width="12" stroke-linejoin="round"/>
</g>
<defs>
<filter id="filter0_d_21_176" x="72.7017" y="9.45453" width="19.4702" height="22.5455" filterUnits="userSpaceOnUse" color-interpolation-filters="sRGB">
<feFlood flood-opacity="0" result="BackgroundImageFix"/>
<feColorMatrix in="SourceAlpha" type="matrix" values="0 0 0 0 0 0 0 0 0 0 0 0 0 0 0 0 0 0 127 0" result="hardAlpha"/>
<feOffset dy="4"/>
<feGaussianBlur stdDeviation="2"/>
<feComposite in2="hardAlpha" operator="out"/>
<feColorMatrix type="matrix" values="0 0 0 0 0 0 0 0 0 0 0 0 0 0 0 0 0 0 0.25 0"/>
<feBlend mode="normal" in2="BackgroundImageFix" result="effect1_dropShadow_21_176"/>
<feBlend mode="normal" in="SourceGraphic" in2="effect1_dropShadow_21_176" result="shape"/>
</filter>
<filter id="filter1_d_21_176" x="82.7017" y="25" width="19.4702" height="22.5455" filterUnits="userSpaceOnUse" color-interpolation-filters="sRGB">
<feFlood flood-opacity="0" result="BackgroundImageFix"/>
<feColorMatrix in="SourceAlpha" type="matrix" values="0 0 0 0 0 0 0 0 0 0 0 0 0 0 0 0 0 0 127 0" result="hardAlpha"/>
<feOffset dy="4"/>
<feGaussianBlur stdDeviation="2"/>
<feComposite in2="hardAlpha" operator="out"/>
<feColorMatrix type="matrix" values="0 0 0 0 0 0 0 0 0 0 0 0 0 0 0 0 0 0 0.25 0"/>
<feBlend mode="normal" in2="BackgroundImageFix" result="effect1_dropShadow_21_176"/>
<feBlend mode="normal" in="SourceGraphic" in2="effect1_dropShadow_21_176" result="shape"/>
</filter>
<filter id="filter2_d_21_176" x="59" y="125" width="252" height="132" filterUnits="userSpaceOnUse" color-interpolation-filters="sRGB">
<feFlood flood-opacity="0" result="BackgroundImageFix"/>
<feColorMatrix in="SourceAlpha" type="matrix" values="0 0 0 0 0 0 0 0 0 0 0 0 0 0 0 0 0 0 127 0" result="hardAlpha"/>
<feOffset dy="4"/>
<feGaussianBlur stdDeviation="2"/>
<feComposite in2="hardAlpha" operator="out"/>
<feColorMatrix type="matrix" values="0 0 0 0 0 0 0 0 0 0 0 0 0 0 0 0 0 0 0.25 0"/>
<feBlend mode="normal" in2="BackgroundImageFix" result="effect1_dropShadow_21_176"/>
<feBlend mode="normal" in="SourceGraphic" in2="effect1_dropShadow_21_176" result="shape"/>
</filter>
<filter id="filter3_d_21_176" x="732" y="280" width="252" height="132" filterUnits="userSpaceOnUse" color-interpolation-filters="sRGB">
<feFlood flood-opacity="0" result="BackgroundImageFix"/>
<feColorMatrix in="SourceAlpha" type="matrix" values="0 0 0 0 0 0 0 0 0 0 0 0 0 0 0 0 0 0 127 0" result="hardAlpha"/>
<feOffset dy="4"/>
<feGaussianBlur stdDeviation="2"/>
<feComposite in2="hardAlpha" operator="out"/>
<feColorMatrix type="matrix" values="0 0 0 0 0 0 0 0 0 0 0 0 0 0 0 0 0 0 0.25 0"/>
<feBlend mode="normal" in2="BackgroundImageFix" result="effect1_dropShadow_21_176"/>
<feBlend mode="normal" in="SourceGraphic" in2="effect1_dropShadow_21_176" result="shape"/>
</filter>
<filter id="filter4_d_21_176" x="732" y="435" width="252" height="132" filterUnits="userSpaceOnUse" color-interpolation-filters="sRGB">
<feFlood flood-opacity="0" result="BackgroundImageFix"/>
<feColorMatrix in="SourceAlpha" type="matrix" values="0 0 0 0 0 0 0 0 0 0 0 0 0 0 0 0 0 0 127 0" result="hardAlpha"/>
<feOffset dy="4"/>
<feGaussianBlur stdDeviation="2"/>
<feComposite in2="hardAlpha" operator="out"/>
<feColorMatrix type="matrix" values="0 0 0 0 0 0 0 0 0 0 0 0 0 0 0 0 0 0 0.25 0"/>
<feBlend mode="normal" in2="BackgroundImageFix" result="effect1_dropShadow_21_176"/>
<feBlend mode="normal" in="SourceGraphic" in2="effect1_dropShadow_21_176" result="shape"/>
</filter>
<filter id="filter5_d_21_176" x="389" y="125" width="252" height="132" filterUnits="userSpaceOnUse" color-interpolation-filters="sRGB">
<feFlood flood-opacity="0" result="BackgroundImageFix"/>
<feColorMatrix in="SourceAlpha" type="matrix" values="0 0 0 0 0 0 0 0 0 0 0 0 0 0 0 0 0 0 127 0" result="hardAlpha"/>
<feOffset dy="4"/>
<feGaussianBlur stdDeviation="2"/>
<feComposite in2="hardAlpha" operator="out"/>
<feColorMatrix type="matrix" values="0 0 0 0 0 0 0 0 0 0 0 0 0 0 0 0 0 0 0.25 0"/>
<feBlend mode="normal" in2="BackgroundImageFix" result="effect1_dropShadow_21_176"/>
<feBlend mode="normal" in="SourceGraphic" in2="effect1_dropShadow_21_176" result="shape"/>
</filter>
<filter id="filter6_d_21_176" x="732" y="125" width="252" height="132" filterUnits="userSpaceOnUse" color-interpolation-filters="sRGB">
<feFlood flood-opacity="0" result="BackgroundImageFix"/>
<feColorMatrix in="SourceAlpha" type="matrix" values="0 0 0 0 0 0 0 0 0 0 0 0 0 0 0 0 0 0 127 0" result="hardAlpha"/>
<feOffset dy="4"/>
<feGaussianBlur stdDeviation="2"/>
<feComposite in2="hardAlpha" operator="out"/>
<feColorMatrix type="matrix" values="0 0 0 0 0 0 0 0 0 0 0 0 0 0 0 0 0 0 0.25 0"/>
<feBlend mode="normal" in2="BackgroundImageFix" result="effect1_dropShadow_21_176"/>
<feBlend mode="normal" in="SourceGraphic" in2="effect1_dropShadow_21_176" result="shape"/>
</filter>
<filter id="filter7_d_21_176" x="389" y="280" width="252" height="132" filterUnits="userSpaceOnUse" color-interpolation-filters="sRGB">
<feFlood flood-opacity="0" result="BackgroundImageFix"/>
<feColorMatrix in="SourceAlpha" type="matrix" values="0 0 0 0 0 0 0 0 0 0 0 0 0 0 0 0 0 0 127 0" result="hardAlpha"/>
<feOffset dy="4"/>
<feGaussianBlur stdDeviation="2"/>
<feComposite in2="hardAlpha" operator="out"/>
<feColorMatrix type="matrix" values="0 0 0 0 0 0 0 0 0 0 0 0 0 0 0 0 0 0 0.25 0"/>
<feBlend mode="normal" in2="BackgroundImageFix" result="effect1_dropShadow_21_176"/>
<feBlend mode="normal" in="SourceGraphic" in2="effect1_dropShadow_21_176" result="shape"/>
</filter>
<filter id="filter8_d_21_176" x="388" y="435" width="252" height="132" filterUnits="userSpaceOnUse" color-interpolation-filters="sRGB">
<feFlood flood-opacity="0" result="BackgroundImageFix"/>
<feColorMatrix in="SourceAlpha" type="matrix" values="0 0 0 0 0 0 0 0 0 0 0 0 0 0 0 0 0 0 127 0" result="hardAlpha"/>
<feOffset dy="4"/>
<feGaussianBlur stdDeviation="2"/>
<feComposite in2="hardAlpha" operator="out"/>
<feColorMatrix type="matrix" values="0 0 0 0 0 0 0 0 0 0 0 0 0 0 0 0 0 0 0.25 0"/>
<feBlend mode="normal" in2="BackgroundImageFix" result="effect1_dropShadow_21_176"/>
<feBlend mode="normal" in="SourceGraphic" in2="effect1_dropShadow_21_176" result="shape"/>
</filter>
<filter id="filter9_d_21_176" x="57" y="435" width="252" height="132" filterUnits="userSpaceOnUse" color-interpolation-filters="sRGB">
<feFlood flood-opacity="0" result="BackgroundImageFix"/>
<feColorMatrix in="SourceAlpha" type="matrix" values="0 0 0 0 0 0 0 0 0 0 0 0 0 0 0 0 0 0 127 0" result="hardAlpha"/>
<feOffset dy="4"/>
<feGaussianBlur stdDeviation="2"/>
<feComposite in2="hardAlpha" operator="out"/>
<feColorMatrix type="matrix" values="0 0 0 0 0 0 0 0 0 0 0 0 0 0 0 0 0 0 0.25 0"/>
<feBlend mode="normal" in2="BackgroundImageFix" result="effect1_dropShadow_21_176"/>
<feBlend mode="normal" in="SourceGraphic" in2="effect1_dropShadow_21_176" result="shape"/>
</filter>
<filter id="filter10_d_21_176" x="59" y="280" width="252" height="132" filterUnits="userSpaceOnUse" color-interpolation-filters="sRGB">
<feFlood flood-opacity="0" result="BackgroundImageFix"/>
<feColorMatrix in="SourceAlpha" type="matrix" values="0 0 0 0 0 0 0 0 0 0 0 0 0 0 0 0 0 0 127 0" result="hardAlpha"/>
<feOffset dy="4"/>
<feGaussianBlur stdDeviation="2"/>
<feComposite in2="hardAlpha" operator="out"/>
<feColorMatrix type="matrix" values="0 0 0 0 0 0 0 0 0 0 0 0 0 0 0 0 0 0 0.25 0"/>
<feBlend mode="normal" in2="BackgroundImageFix" result="effect1_dropShadow_21_176"/>
<feBlend mode="normal" in="SourceGraphic" in2="effect1_dropShadow_21_176" result="shape"/>
</filter>
</defs>
</svg>
