<svg width="65" height="99" viewBox="0 0 65 99" fill="none" xmlns="http://www.w3.org/2000/svg">
<g filter="url(#filter0_d_64_4)">
<path d="M4.25426 49V12.6364H18.6009C21.3471 12.6364 23.6908 13.1276 25.6321 14.1101C27.5852 15.0807 29.0708 16.4598 30.0888 18.2472C31.1186 20.0227 31.6335 22.112 31.6335 24.5149C31.6335 26.9297 31.1127 29.0071 30.071 30.7472C29.0294 32.4754 27.5201 33.8011 25.5433 34.7244C23.5784 35.6477 21.1991 36.1094 18.4055 36.1094H8.79972V29.9304H17.1626C18.6304 29.9304 19.8497 29.7292 20.8203 29.3267C21.791 28.9242 22.513 28.3205 22.9865 27.5156C23.4718 26.7107 23.7145 25.7105 23.7145 24.5149C23.7145 23.3075 23.4718 22.2895 22.9865 21.4609C22.513 20.6323 21.785 20.005 20.8026 19.5788C19.8319 19.1409 18.6068 18.9219 17.1271 18.9219H11.9425V49H4.25426ZM23.892 32.4517L32.9297 49H24.4425L15.6001 32.4517H23.892Z" fill="white"/>
<path d="M4.25426 49H3.25426C3.25426 49.5523 3.70198 50 4.25426 50V49ZM4.25426 12.6364V11.6364C3.70198 11.6364 3.25426 12.0841 3.25426 12.6364H4.25426ZM25.6321 14.1101L25.1805 15.0023L25.1871 15.0056L25.6321 14.1101ZM30.0888 18.2472L29.2198 18.7421L29.2237 18.7489L30.0888 18.2472ZM30.071 30.7472L30.9275 31.2634L30.929 31.2608L30.071 30.7472ZM25.5433 34.7244L25.1201 33.8184L25.1181 33.8194L25.5433 34.7244ZM8.79972 36.1094H7.79972C7.79972 36.6617 8.24743 37.1094 8.79972 37.1094V36.1094ZM8.79972 29.9304V28.9304C8.24743 28.9304 7.79972 29.3781 7.79972 29.9304H8.79972ZM20.8203 29.3267L21.2033 30.2504L21.2033 30.2504L20.8203 29.3267ZM22.9865 27.5156L22.1301 26.9992L22.1246 27.0086L22.9865 27.5156ZM22.9865 21.4609L22.1182 21.9571L22.1236 21.9663L22.9865 21.4609ZM20.8026 19.5788L20.3913 20.4903C20.3957 20.4923 20.4002 20.4943 20.4046 20.4963L20.8026 19.5788ZM11.9425 18.9219V17.9219C11.3902 17.9219 10.9425 18.3696 10.9425 18.9219H11.9425ZM11.9425 49V50C12.4948 50 12.9425 49.5523 12.9425 49H11.9425ZM23.892 32.4517L24.7697 31.9724C24.5944 31.6514 24.2578 31.4517 23.892 31.4517V32.4517ZM32.9297 49V50C33.2827 50 33.6096 49.8139 33.7897 49.5102C33.9699 49.2066 33.9765 48.8305 33.8073 48.5207L32.9297 49ZM24.4425 49L23.5605 49.4713C23.7344 49.7968 24.0734 50 24.4425 50V49ZM15.6001 32.4517V31.4517C15.2487 31.4517 14.9231 31.6361 14.7424 31.9375C14.5618 32.2389 14.5525 32.613 14.7182 32.923L15.6001 32.4517ZM5.25426 49V12.6364H3.25426V49H5.25426ZM4.25426 13.6364H18.6009V11.6364H4.25426V13.6364ZM18.6009 13.6364C21.2303 13.6364 23.4111 14.1068 25.1805 15.0023L26.0837 13.2178C23.9705 12.1484 21.4639 11.6364 18.6009 11.6364V13.6364ZM25.1871 15.0056C26.9735 15.8934 28.3063 17.138 29.2198 18.7421L30.9577 17.7523C29.8353 15.7815 28.1969 14.268 26.0771 13.2146L25.1871 15.0056ZM29.2237 18.7489C30.1511 20.3478 30.6335 22.2578 30.6335 24.5149H32.6335C32.6335 21.9661 32.0861 19.6977 30.9538 17.7454L29.2237 18.7489ZM30.6335 24.5149C30.6335 26.7835 30.1454 28.676 29.213 30.2335L30.929 31.2608C32.08 29.3382 32.6335 27.0759 32.6335 24.5149H30.6335ZM29.2146 30.2309C28.2838 31.7752 26.9323 32.972 25.1201 33.8184L25.9665 35.6305C28.1079 34.6303 29.7749 33.1756 30.9275 31.2634L29.2146 30.2309ZM25.1181 33.8194C23.3186 34.6649 21.0927 35.1094 18.4055 35.1094V37.1094C21.3055 37.1094 23.8382 36.6305 25.9686 35.6295L25.1181 33.8194ZM18.4055 35.1094H8.79972V37.1094H18.4055V35.1094ZM9.79972 36.1094V29.9304H7.79972V36.1094H9.79972ZM8.79972 30.9304H17.1626V28.9304H8.79972V30.9304ZM17.1626 30.9304C18.7134 30.9304 20.0733 30.719 21.2033 30.2504L20.4373 28.403C19.626 28.7393 18.5475 28.9304 17.1626 28.9304V30.9304ZM21.2033 30.2504C22.3483 29.7757 23.2512 29.038 23.8484 28.0226L22.1246 27.0086C21.7749 27.6031 21.2336 28.0728 20.4373 28.403L21.2033 30.2504ZM23.8429 28.032C24.4445 27.0341 24.7145 25.8436 24.7145 24.5149H22.7145C22.7145 25.5773 22.4991 26.3873 22.1301 26.9993L23.8429 28.032ZM24.7145 24.5149C24.7145 23.175 24.4449 21.9722 23.8494 20.9555L22.1236 21.9663C22.4988 22.6069 22.7145 23.44 22.7145 24.5149H24.7145ZM23.8547 20.9648C23.2611 19.926 22.3557 19.1625 21.2005 18.6614L20.4046 20.4963C21.2144 20.8475 21.7649 21.3387 22.1183 21.9571L23.8547 20.9648ZM21.2138 18.6673C20.0739 18.153 18.6969 17.9219 17.1271 17.9219V19.9219C18.5167 19.9219 19.5899 20.1288 20.3913 20.4903L21.2138 18.6673ZM17.1271 17.9219H11.9425V19.9219H17.1271V17.9219ZM10.9425 18.9219V49H12.9425V18.9219H10.9425ZM11.9425 48H4.25426V50H11.9425V48ZM23.0144 32.931L32.052 49.4793L33.8073 48.5207L24.7697 31.9724L23.0144 32.931ZM32.9297 48H24.4425V50H32.9297V48ZM25.3245 48.5287L16.4821 31.9804L14.7182 32.923L23.5605 49.4713L25.3245 48.5287ZM15.6001 33.4517H23.892V31.4517H15.6001V33.4517Z" fill="white"/>
</g>
<g filter="url(#filter1_d_64_4)">
<path d="M32.2543 50V86.3636H46.6009C49.3471 86.3636 51.6908 85.8724 53.6321 84.8899C55.5852 83.9193 57.0708 82.5402 58.0888 80.7528C59.1186 78.9773 59.6335 76.888 59.6335 74.4851C59.6335 72.0703 59.1127 69.9929 58.071 68.2528C57.0294 66.5246 55.5201 65.1989 53.5433 64.2756C51.5784 63.3523 49.1991 62.8906 46.4055 62.8906H36.7997V69.0696H45.1626C46.6304 69.0696 47.8497 69.2708 48.8203 69.6733C49.791 70.0758 50.513 70.6795 50.9865 71.4844C51.4718 72.2893 51.7145 73.2895 51.7145 74.4851C51.7145 75.6925 51.4718 76.7105 50.9865 77.5391C50.513 78.3677 49.785 78.995 48.8026 79.4212C47.8319 79.8591 46.6068 80.0781 45.1271 80.0781H39.9425V50H32.2543ZM51.892 66.5483L60.9297 50H52.4425L43.6001 66.5483H51.892Z" fill="white"/>
<path d="M32.2543 50H31.2543C31.2543 49.4477 31.702 49 32.2543 49V50ZM32.2543 86.3636V87.3636C31.702 87.3636 31.2543 86.9159 31.2543 86.3636H32.2543ZM53.6321 84.8899L53.1805 83.9977L53.1871 83.9944L53.6321 84.8899ZM58.0888 80.7528L57.2198 80.2579L57.2237 80.2511L58.0888 80.7528ZM58.071 68.2528L58.9275 67.7366L58.929 67.7392L58.071 68.2528ZM53.5433 64.2756L53.1201 65.1816L53.1181 65.1806L53.5433 64.2756ZM36.7997 62.8906H35.7997C35.7997 62.3383 36.2474 61.8906 36.7997 61.8906V62.8906ZM36.7997 69.0696V70.0696C36.2474 70.0696 35.7997 69.6219 35.7997 69.0696H36.7997ZM48.8203 69.6733L49.2033 68.7496L49.2033 68.7496L48.8203 69.6733ZM50.9865 71.4844L50.1301 72.0008L50.1246 71.9914L50.9865 71.4844ZM50.9865 77.5391L50.1182 77.0429L50.1236 77.0337L50.9865 77.5391ZM48.8026 79.4212L48.3913 78.5097C48.3957 78.5077 48.4002 78.5057 48.4046 78.5037L48.8026 79.4212ZM39.9425 80.0781V81.0781C39.3902 81.0781 38.9425 80.6304 38.9425 80.0781H39.9425ZM39.9425 50V49C40.4948 49 40.9425 49.4477 40.9425 50H39.9425ZM51.892 66.5483L52.7697 67.0276C52.5944 67.3486 52.2578 67.5483 51.892 67.5483V66.5483ZM60.9297 50V49C61.2827 49 61.6096 49.1861 61.7897 49.4898C61.9699 49.7934 61.9765 50.1695 61.8073 50.4793L60.9297 50ZM52.4425 50L51.5605 49.5287C51.7344 49.2032 52.0734 49 52.4425 49V50ZM43.6001 66.5483V67.5483C43.2487 67.5483 42.9231 67.3639 42.7424 67.0625C42.5618 66.7611 42.5525 66.387 42.7182 66.077L43.6001 66.5483ZM33.2543 50V86.3636H31.2543V50H33.2543ZM32.2543 85.3636H46.6009V87.3636H32.2543V85.3636ZM46.6009 85.3636C49.2303 85.3636 51.4111 84.8932 53.1805 83.9977L54.0837 85.7822C51.9705 86.8516 49.4639 87.3636 46.6009 87.3636V85.3636ZM53.1871 83.9944C54.9735 83.1066 56.3063 81.862 57.2198 80.2579L58.9577 81.2477C57.8353 83.2185 56.1969 84.732 54.0771 85.7854L53.1871 83.9944ZM57.2237 80.2511C58.1511 78.6522 58.6335 76.7422 58.6335 74.4851H60.6335C60.6335 77.0339 60.0861 79.3023 58.9538 81.2546L57.2237 80.2511ZM58.6335 74.4851C58.6335 72.2165 58.1454 70.324 57.213 68.7665L58.929 67.7392C60.08 69.6618 60.6335 71.9241 60.6335 74.4851H58.6335ZM57.2146 68.7691C56.2838 67.2248 54.9323 66.028 53.1201 65.1816L53.9665 63.3695C56.1079 64.3697 57.7749 65.8244 58.9275 67.7366L57.2146 68.7691ZM53.1181 65.1806C51.3186 64.3351 49.0927 63.8906 46.4055 63.8906V61.8906C49.3055 61.8906 51.8382 62.3695 53.9686 63.3705L53.1181 65.1806ZM46.4055 63.8906H36.7997V61.8906H46.4055V63.8906ZM37.7997 62.8906V69.0696H35.7997V62.8906H37.7997ZM36.7997 68.0696H45.1626V70.0696H36.7997V68.0696ZM45.1626 68.0696C46.7134 68.0696 48.0733 68.281 49.2033 68.7496L48.4373 70.597C47.626 70.2607 46.5475 70.0696 45.1626 70.0696V68.0696ZM49.2033 68.7496C50.3483 69.2243 51.2512 69.962 51.8484 70.9774L50.1246 71.9914C49.7749 71.3969 49.2336 70.9272 48.4373 70.597L49.2033 68.7496ZM51.8429 70.968C52.4445 71.9659 52.7145 73.1564 52.7145 74.4851H50.7145C50.7145 73.4227 50.4991 72.6127 50.1301 72.0007L51.8429 70.968ZM52.7145 74.4851C52.7145 75.825 52.4449 77.0278 51.8494 78.0445L50.1236 77.0337C50.4988 76.3931 50.7145 75.56 50.7145 74.4851H52.7145ZM51.8547 78.0352C51.2611 79.074 50.3557 79.8375 49.2005 80.3386L48.4046 78.5037C49.2144 78.1525 49.7649 77.6613 50.1183 77.0429L51.8547 78.0352ZM49.2138 80.3327C48.0739 80.847 46.6969 81.0781 45.1271 81.0781V79.0781C46.5167 79.0781 47.5899 78.8712 48.3913 78.5097L49.2138 80.3327ZM45.1271 81.0781H39.9425V79.0781H45.1271V81.0781ZM38.9425 80.0781V50H40.9425V80.0781H38.9425ZM39.9425 51H32.2543V49H39.9425V51ZM51.0144 66.069L60.052 49.5207L61.8073 50.4793L52.7697 67.0276L51.0144 66.069ZM60.9297 51H52.4425V49H60.9297V51ZM53.3245 50.4713L44.4821 67.0196L42.7182 66.077L51.5605 49.5287L53.3245 50.4713ZM43.6001 65.5483H51.892V67.5483H43.6001V65.5483Z" fill="white"/>
</g>
<defs>
<filter id="filter0_d_64_4" x="0.25415" y="12.6364" width="36.6755" height="44.3636" filterUnits="userSpaceOnUse" color-interpolation-filters="sRGB">
<feFlood flood-opacity="0" result="BackgroundImageFix"/>
<feColorMatrix in="SourceAlpha" type="matrix" values="0 0 0 0 0 0 0 0 0 0 0 0 0 0 0 0 0 0 127 0" result="hardAlpha"/>
<feOffset dy="4"/>
<feGaussianBlur stdDeviation="2"/>
<feComposite in2="hardAlpha" operator="out"/>
<feColorMatrix type="matrix" values="0 0 0 0 0 0 0 0 0 0 0 0 0 0 0 0 0 0 0.25 0"/>
<feBlend mode="normal" in2="BackgroundImageFix" result="effect1_dropShadow_64_4"/>
<feBlend mode="normal" in="SourceGraphic" in2="effect1_dropShadow_64_4" result="shape"/>
</filter>
<filter id="filter1_d_64_4" x="28.2542" y="50" width="36.6755" height="44.3636" filterUnits="userSpaceOnUse" color-interpolation-filters="sRGB">
<feFlood flood-opacity="0" result="BackgroundImageFix"/>
<feColorMatrix in="SourceAlpha" type="matrix" values="0 0 0 0 0 0 0 0 0 0 0 0 0 0 0 0 0 0 127 0" result="hardAlpha"/>
<feOffset dy="4"/>
<feGaussianBlur stdDeviation="2"/>
<feComposite in2="hardAlpha" operator="out"/>
<feColorMatrix type="matrix" values="0 0 0 0 0 0 0 0 0 0 0 0 0 0 0 0 0 0 0.25 0"/>
<feBlend mode="normal" in2="BackgroundImageFix" result="effect1_dropShadow_64_4"/>
<feBlend mode="normal" in="SourceGraphic" in2="effect1_dropShadow_64_4" result="shape"/>
</filter>
</defs>
</svg>
