<svg width="1029" height="585" viewBox="0 0 1029 585" fill="none" xmlns="http://www.w3.org/2000/svg">
<rect y="0.039917" width="1029" height="584" fill="#D9D9D9"/>
<path fill-rule="evenodd" clip-rule="evenodd" d="M457.346 584.007L552.621 575.73C647.897 567.94 838.447 551.386 914.667 535.324C990.887 519.261 952.776 502.717 952.776 486.657C952.775 470.597 990.885 454.05 971.829 437.991C952.773 421.932 876.552 405.389 876.551 389.329C876.551 373.27 952.771 356.72 895.605 340.663C838.439 324.606 647.887 308.067 647.886 292.007C647.885 275.948 984.362 312.47 933.711 243.331C883.06 174.191 981.847 167.702 990.875 194.663C999.902 221.624 876.543 162.062 724.101 146.008C571.659 129.954 342.997 113.417 228.665 97.362C114.334 81.3069 114.333 64.7606 95.2776 48.7018C76.2219 32.643 38.111 16.0982 19.0555 8.31249L6.18972e-05 0.0401001L1028.98 -1.21173e-05L1028.98 8.27312C1028.98 16.0596 1028.98 32.6058 1028.98 48.6654C1028.98 64.725 1028.98 81.2712 1028.98 97.3308C1028.98 113.39 1028.98 129.937 1028.98 145.996C1028.98 162.056 1028.98 178.602 1028.98 194.662C1028.99 210.721 1028.99 227.267 1028.99 243.327C1028.99 259.387 1028.99 275.933 1028.99 291.992C1028.99 308.052 1028.99 324.598 1028.99 340.658C1028.99 356.717 1028.99 373.264 1028.99 389.323C1028.99 405.383 1028.99 421.929 1028.99 437.989C1028.99 454.048 1029 470.594 1029 486.654C1029 502.714 1029 519.26 1029 535.319C1029 551.379 1029 567.925 1029 575.712L1029 583.985L457.346 584.007Z" fill="#293728"/>
<path fill-rule="evenodd" clip-rule="evenodd" d="M803.945 0.0401611L836.726 24.0402C872.488 49.0402 941.03 97.0402 976.791 146.04C1009.57 195.04 1009.57 243.04 1018.51 292.04C1027.45 341.04 1045.33 390.04 994.672 438.04C941.03 487.04 818.846 536.04 759.244 560.04L696.662 584.04H646V560.04C646 536.04 646 487.04 646 438.04C646 390.04 646 341.04 646 292.04C646 243.04 646 195.04 646 146.04C646 97.0402 646 49.0402 646 24.0402V0.0401611L803.945 0.0401611Z" fill="#364435"/>
<path fill-rule="evenodd" clip-rule="evenodd" d="M836.404 0.0401611L862.431 24.3735C888.458 48.7068 940.512 97.3735 875.445 146.04C810.377 194.707 628.189 243.374 667.229 292.04C706.27 340.707 966.539 389.374 1018.59 438.04C1070.65 486.707 914.485 535.374 836.404 559.707L758.324 584.04L446 584.04V559.707C446 535.374 446 486.707 446 438.04C446 389.374 446 340.707 446 292.04C446 243.374 446 194.707 446 146.04C446 97.3735 446 48.7068 446 24.3735V0.0401611L836.404 0.0401611Z" fill="#3E513D"/>
<path fill-rule="evenodd" clip-rule="evenodd" d="M670.5 0.0401611V24.3735C670.5 48.7068 670.5 97.3735 610.75 146.04C551 194.707 431.5 243.374 491.25 292.04C551 340.707 790 389.374 909.5 438.04C1029 486.707 1029 535.374 1029 559.707V584.04H312V559.707C312 535.374 312 486.707 312 438.04C312 389.374 312 340.707 312 292.04C312 243.374 312 194.707 312 146.04C312 97.3735 312 48.7068 312 24.3735V0.0401611L670.5 0.0401611Z" fill="#678164"/>
<path fill-rule="evenodd" clip-rule="evenodd" d="M189 0.0401611L265.562 24.3735C342.125 48.7068 495.25 97.3735 528.062 146.04C560.875 194.707 473.375 243.374 407.75 292.04C342.125 340.707 298.375 389.374 353.063 438.04C407.75 486.707 560.875 535.374 637.438 559.707L714 584.04L189 584.04V559.707C189 535.374 189 486.707 189 438.04C189 389.374 189 340.707 189 292.04C189 243.374 189 194.707 189 146.04C189 97.3735 189 48.7068 189 24.3735V0.0401611Z" fill="#82A47F"/>
<path fill-rule="evenodd" clip-rule="evenodd" d="M453 0.0400391L394.63 24.3734C336.259 48.7067 219.519 97.3734 204.926 146.04C190.333 194.707 277.889 243.373 299.778 292.04C321.667 340.707 277.889 389.373 248.704 438.04C219.519 486.707 204.926 535.373 197.63 559.707L190.333 584.04H59V559.707C59 535.373 59 486.707 59 438.04C59 389.373 59 340.707 59 292.04C59 243.373 59 194.707 59 146.04C59 97.3734 59 48.7067 59 24.3734V0.0400391L453 0.0400391Z" fill="#9CC29B"/>
<path fill-rule="evenodd" clip-rule="evenodd" d="M330 0.0401611L277.832 10.8234C226.667 21.6067 123.333 43.1733 87.2168 64.7399C51.1003 86.3064 82.2007 108.441 82.2007 130.007C82.2007 151.574 51.1003 173.14 77.1845 194.707C102.265 216.273 185.534 237.84 216.634 259.407C247.735 280.973 226.667 303.107 231.683 324.674C236.699 346.24 267.799 367.807 277.832 389.374C288.867 410.94 277.832 432.507 252.751 454.073C226.667 475.64 185.534 497.774 159.45 519.34C133.366 540.907 123.333 562.474 118.317 573.257L113.301 584.04H20V573.257C20 562.474 20 540.907 20 519.34C20 497.774 20 475.64 20 454.073C20 432.507 20 410.94 20 389.374C20 367.807 20 346.24 20 324.674C20 303.107 20 280.973 20 259.407C20 237.84 20 216.273 20 194.707C20 173.14 20 151.574 20 130.007C20 108.441 20 86.3064 20 64.7399C20 43.1733 20 21.6067 20 10.8234V0.0401611L330 0.0401611Z" fill="#BFDDC1"/>
<path fill-rule="evenodd" clip-rule="evenodd" d="M38.0148 0.0401611L31.3063 24.0688C24.5978 49.1421 13.417 97.1994 49.1956 146.301C87.2104 194.359 174.421 243.461 205.727 292.562C237.034 340.62 212.436 389.722 174.421 437.779C138.642 486.881 87.2104 534.938 62.6126 560.012L38.0148 584.04H1.52588e-05L1.52588e-05 560.012C1.52588e-05 534.938 1.52588e-05 486.881 1.52588e-05 437.779C1.52588e-05 389.722 1.52588e-05 340.62 1.52588e-05 292.562C1.52588e-05 243.461 1.52588e-05 194.359 1.52588e-05 146.301C1.52588e-05 97.1994 1.52588e-05 49.1421 1.52588e-05 24.0688V0.0401611L38.0148 0.0401611Z" fill="#BFDDC1"/>
<rect width="1029" height="49" fill="#514F4F"/>
<path d="M65.5 71.5C65.5 66.2533 69.7533 62 75 62H246C251.247 62 255.5 66.2533 255.5 71.5V84.2145C255.5 89.4612 251.247 93.7145 246 93.7145H75C69.7533 93.7145 65.5 89.4612 65.5 84.2145V71.5Z" fill="white" stroke="white" stroke-linejoin="round"/>
<path d="M83.1747 78.924H82.6526L82.4675 78.732C83.1376 77.8956 83.5059 76.8279 83.5051 75.7237C83.5051 74.8094 83.2532 73.9156 82.7812 73.1554C82.3091 72.3952 81.6382 71.8027 80.8533 71.4528C80.0683 71.103 79.2045 71.0114 78.3712 71.1898C77.5379 71.3681 76.7725 71.8084 76.1717 72.4549C75.5709 73.1014 75.1618 73.9251 74.996 74.8218C74.8302 75.7185 74.9153 76.648 75.2405 77.4927C75.5656 78.3374 76.1162 79.0594 76.8227 79.5673C77.5291 80.0752 78.3597 80.3464 79.2093 80.3464C80.2734 80.3464 81.2515 79.9268 82.0049 79.2298L82.1834 79.4289V79.9908L85.4878 83.5396L86.4726 82.4799L83.1747 78.924ZM79.2093 78.924C77.5637 78.924 76.2353 77.4945 76.2353 75.7237C76.2353 73.9528 77.5637 72.5233 79.2093 72.5233C80.8549 72.5233 82.1834 73.9528 82.1834 75.7237C82.1834 77.4945 80.8549 78.924 79.2093 78.924Z" fill="#8F8E8E"/>
<path d="M96.2106 76.6364C96.1765 76.3485 96.0382 76.125 95.7958 75.9659C95.5534 75.8068 95.256 75.7273 94.9038 75.7273C94.6462 75.7273 94.4208 75.7689 94.2276 75.8523C94.0363 75.9356 93.8867 76.0502 93.7788 76.196C93.6727 76.3419 93.6197 76.5076 93.6197 76.6932C93.6197 76.8485 93.6566 76.982 93.7305 77.0938C93.8062 77.2036 93.9028 77.2955 94.0202 77.3693C94.1377 77.4413 94.2608 77.5009 94.3896 77.5483C94.5183 77.5937 94.6367 77.6307 94.7447 77.6591L95.3356 77.8182C95.4871 77.858 95.6557 77.9129 95.8413 77.983C96.0288 78.053 96.2077 78.1487 96.3782 78.2699C96.5505 78.3892 96.6926 78.5426 96.8043 78.7301C96.9161 78.9176 96.9719 79.1477 96.9719 79.4205C96.9719 79.7348 96.8896 80.0189 96.7248 80.2727C96.5619 80.5265 96.3233 80.7282 96.0089 80.8778C95.6964 81.0275 95.3166 81.1023 94.8697 81.1023C94.453 81.1023 94.0922 81.035 93.7873 80.9006C93.4843 80.7661 93.2456 80.5786 93.0714 80.3381C92.899 80.0975 92.8015 79.8182 92.7788 79.5H93.506C93.525 79.7197 93.5988 79.9015 93.7276 80.0455C93.8583 80.1875 94.0231 80.2936 94.2219 80.3636C94.4227 80.4318 94.6386 80.4659 94.8697 80.4659C95.1386 80.4659 95.3801 80.4223 95.5941 80.3352C95.8081 80.2462 95.9776 80.1231 96.1026 79.9659C96.2276 79.8068 96.2901 79.6212 96.2901 79.4091C96.2901 79.2159 96.2362 79.0587 96.1282 78.9375C96.0202 78.8163 95.8782 78.7178 95.7021 78.642C95.5259 78.5663 95.3356 78.5 95.131 78.4432L94.4151 78.2386C93.9606 78.108 93.6007 77.9214 93.3356 77.679C93.0704 77.4366 92.9379 77.1193 92.9379 76.7273C92.9379 76.4015 93.0259 76.1174 93.2021 75.875C93.3801 75.6307 93.6187 75.4413 93.918 75.3068C94.2191 75.1705 94.5553 75.1023 94.9265 75.1023C95.3015 75.1023 95.6348 75.1695 95.9265 75.304C96.2182 75.4366 96.4492 75.6184 96.6197 75.8494C96.792 76.0805 96.8829 76.3428 96.8924 76.6364H96.2106ZM99.869 81.0909C99.4485 81.0909 99.0858 80.9981 98.7809 80.8125C98.4779 80.625 98.244 80.3636 98.0792 80.0284C97.9163 79.6913 97.8349 79.2992 97.8349 78.8523C97.8349 78.4053 97.9163 78.0114 98.0792 77.6705C98.244 77.3277 98.4731 77.0606 98.7667 76.8693C99.0621 76.6761 99.4068 76.5795 99.8008 76.5795C100.028 76.5795 100.252 76.6174 100.474 76.6932C100.696 76.7689 100.897 76.892 101.079 77.0625C101.261 77.2311 101.406 77.4545 101.514 77.733C101.622 78.0114 101.676 78.3542 101.676 78.7614V79.0455H98.3121V78.4659H100.994C100.994 78.2197 100.945 78 100.846 77.8068C100.75 77.6136 100.611 77.4612 100.431 77.3494C100.253 77.2377 100.043 77.1818 99.8008 77.1818C99.5337 77.1818 99.3027 77.2481 99.1076 77.3807C98.9144 77.5114 98.7657 77.6818 98.6616 77.892C98.5574 78.1023 98.5053 78.3277 98.5053 78.5682V78.9545C98.5053 79.2841 98.5621 79.5634 98.6758 79.7926C98.7913 80.0199 98.9513 80.1932 99.1559 80.3125C99.3604 80.4299 99.5981 80.4886 99.869 80.4886C100.045 80.4886 100.204 80.464 100.346 80.4148C100.49 80.3636 100.614 80.2879 100.718 80.1875C100.823 80.0852 100.903 79.9583 100.96 79.8068L101.608 79.9886C101.539 80.2083 101.425 80.4015 101.264 80.5682C101.103 80.733 100.904 80.8617 100.667 80.9545C100.431 81.0455 100.164 81.0909 99.869 81.0909ZM103.98 81.1023C103.703 81.1023 103.452 81.0502 103.227 80.946C103.002 80.84 102.823 80.6875 102.69 80.4886C102.557 80.2879 102.491 80.0455 102.491 79.7614C102.491 79.5114 102.54 79.3087 102.639 79.1534C102.737 78.9962 102.869 78.8731 103.034 78.7841C103.199 78.6951 103.38 78.6288 103.579 78.5852C103.78 78.5398 103.982 78.5038 104.184 78.4773C104.449 78.4432 104.664 78.4176 104.829 78.4006C104.996 78.3816 105.117 78.3504 105.193 78.3068C105.27 78.2633 105.309 78.1875 105.309 78.0795V78.0568C105.309 77.7765 105.233 77.5587 105.079 77.4034C104.928 77.2481 104.698 77.1705 104.389 77.1705C104.069 77.1705 103.818 77.2405 103.636 77.3807C103.454 77.5208 103.326 77.6705 103.252 77.8295L102.616 77.6023C102.73 77.3371 102.881 77.1307 103.071 76.983C103.262 76.8333 103.47 76.7292 103.696 76.6705C103.923 76.6098 104.146 76.5795 104.366 76.5795C104.506 76.5795 104.667 76.5966 104.849 76.6307C105.033 76.6629 105.21 76.7301 105.38 76.8324C105.553 76.9347 105.696 77.089 105.809 77.2955C105.923 77.5019 105.98 77.7784 105.98 78.125V81H105.309V80.4091H105.275C105.23 80.5038 105.154 80.6051 105.048 80.7131C104.942 80.821 104.801 80.9129 104.625 80.9886C104.449 81.0644 104.234 81.1023 103.98 81.1023ZM104.082 80.5C104.347 80.5 104.571 80.4479 104.752 80.3438C104.936 80.2396 105.074 80.1051 105.167 79.9403C105.262 79.7756 105.309 79.6023 105.309 79.4205V78.8068C105.281 78.8409 105.218 78.8722 105.122 78.9006C105.027 78.9271 104.917 78.9508 104.792 78.9716C104.669 78.9905 104.549 79.0076 104.431 79.0227C104.316 79.036 104.222 79.0473 104.15 79.0568C103.976 79.0795 103.813 79.1165 103.662 79.1676C103.512 79.2169 103.391 79.2917 103.298 79.392C103.207 79.4905 103.162 79.625 103.162 79.7955C103.162 80.0284 103.248 80.2045 103.42 80.3239C103.594 80.4413 103.815 80.5 104.082 80.5ZM107.203 81V76.6364H107.851V77.2955H107.897C107.976 77.0795 108.12 76.9044 108.328 76.7699C108.537 76.6354 108.772 76.5682 109.033 76.5682C109.082 76.5682 109.144 76.5691 109.218 76.571C109.292 76.5729 109.347 76.5758 109.385 76.5795V77.2614C109.363 77.2557 109.31 77.2472 109.229 77.2358C109.15 77.2225 109.065 77.2159 108.976 77.2159C108.764 77.2159 108.575 77.2604 108.408 77.3494C108.243 77.4366 108.113 77.5578 108.016 77.7131C107.921 77.8665 107.874 78.0417 107.874 78.2386V81H107.203ZM111.82 81.0909C111.411 81.0909 111.059 80.9943 110.763 80.8011C110.468 80.608 110.24 80.3419 110.081 80.0028C109.922 79.6638 109.843 79.2765 109.843 78.8409C109.843 78.3977 109.924 78.0066 110.087 77.6676C110.252 77.3267 110.481 77.0606 110.775 76.8693C111.07 76.6761 111.415 76.5795 111.809 76.5795C112.115 76.5795 112.392 76.6364 112.638 76.75C112.884 76.8636 113.086 77.0227 113.243 77.2273C113.4 77.4318 113.498 77.6705 113.536 77.9432H112.865C112.814 77.7443 112.701 77.5682 112.525 77.4148C112.35 77.2595 112.115 77.1818 111.82 77.1818C111.559 77.1818 111.329 77.25 111.132 77.3864C110.937 77.5208 110.785 77.7112 110.675 77.9574C110.567 78.2017 110.513 78.4886 110.513 78.8182C110.513 79.1553 110.566 79.4489 110.672 79.6989C110.78 79.9489 110.932 80.143 111.127 80.2812C111.324 80.4195 111.555 80.4886 111.82 80.4886C111.994 80.4886 112.152 80.4583 112.294 80.3977C112.436 80.3371 112.557 80.25 112.655 80.1364C112.754 80.0227 112.824 79.8864 112.865 79.7273H113.536C113.498 79.9848 113.404 80.2169 113.255 80.4233C113.107 80.6278 112.911 80.7907 112.667 80.9119C112.424 81.0312 112.142 81.0909 111.82 81.0909ZM115.186 78.375V81H114.516V75.1818H115.186V77.3182H115.243C115.346 77.0928 115.499 76.9138 115.703 76.7812C115.91 76.6468 116.185 76.5795 116.527 76.5795C116.825 76.5795 117.085 76.6392 117.309 76.7585C117.532 76.8759 117.705 77.0568 117.828 77.3011C117.953 77.5436 118.016 77.8523 118.016 78.2273V81H117.346V78.2727C117.346 77.9261 117.256 77.6581 117.076 77.4688C116.898 77.2775 116.65 77.1818 116.334 77.1818C116.114 77.1818 115.917 77.2282 115.743 77.321C115.571 77.4138 115.435 77.5492 115.334 77.7273C115.236 77.9053 115.186 78.1212 115.186 78.375ZM121.924 82.6364C121.811 82.6364 121.709 82.6269 121.62 82.608C121.531 82.5909 121.47 82.5739 121.436 82.5568L121.606 81.9659C121.769 82.0076 121.913 82.0227 122.038 82.0114C122.163 82 122.274 81.9441 122.37 81.8438C122.469 81.7453 122.559 81.5852 122.64 81.3636L122.765 81.0227L121.152 76.6364H121.879L123.083 80.1136H123.129L124.333 76.6364H125.061L123.208 81.6364C123.125 81.8617 123.022 82.0483 122.899 82.196C122.776 82.3456 122.633 82.4564 122.47 82.5284C122.309 82.6004 122.127 82.6364 121.924 82.6364ZM127.562 81.0909C127.168 81.0909 126.823 80.9972 126.525 80.8097C126.23 80.6222 125.999 80.3598 125.832 80.0227C125.667 79.6856 125.585 79.2917 125.585 78.8409C125.585 78.3864 125.667 77.9896 125.832 77.6506C125.999 77.3116 126.23 77.0483 126.525 76.8608C126.823 76.6733 127.168 76.5795 127.562 76.5795C127.956 76.5795 128.301 76.6733 128.596 76.8608C128.894 77.0483 129.125 77.3116 129.289 77.6506C129.456 77.9896 129.539 78.3864 129.539 78.8409C129.539 79.2917 129.456 79.6856 129.289 80.0227C129.125 80.3598 128.894 80.6222 128.596 80.8097C128.301 80.9972 127.956 81.0909 127.562 81.0909ZM127.562 80.4886C127.861 80.4886 128.108 80.4119 128.301 80.2585C128.494 80.1051 128.637 79.9034 128.73 79.6534C128.823 79.4034 128.869 79.1326 128.869 78.8409C128.869 78.5492 128.823 78.2775 128.73 78.0256C128.637 77.7737 128.494 77.5701 128.301 77.4148C128.108 77.2595 127.861 77.1818 127.562 77.1818C127.263 77.1818 127.017 77.2595 126.824 77.4148C126.63 77.5701 126.487 77.7737 126.395 78.0256C126.302 78.2775 126.255 78.5492 126.255 78.8409C126.255 79.1326 126.302 79.4034 126.395 79.6534C126.487 79.9034 126.63 80.1051 126.824 80.2585C127.017 80.4119 127.263 80.4886 127.562 80.4886ZM133.313 79.2159V76.6364H133.983V81H133.313V80.2614H133.267C133.165 80.483 133.006 80.6714 132.79 80.8267C132.574 80.9801 132.301 81.0568 131.972 81.0568C131.699 81.0568 131.457 80.9972 131.245 80.8778C131.033 80.7566 130.866 80.5748 130.745 80.3324C130.623 80.0881 130.563 79.7803 130.563 79.4091V76.6364H131.233V79.3636C131.233 79.6818 131.322 79.9356 131.5 80.125C131.68 80.3144 131.909 80.4091 132.188 80.4091C132.355 80.4091 132.524 80.3665 132.696 80.2812C132.871 80.196 133.016 80.0653 133.134 79.8892C133.253 79.7131 133.313 79.4886 133.313 79.2159ZM135.211 81V76.6364H135.859V77.2955H135.904C135.984 77.0795 136.128 76.9044 136.336 76.7699C136.545 76.6354 136.779 76.5682 137.041 76.5682C137.09 76.5682 137.152 76.5691 137.225 76.571C137.299 76.5729 137.355 76.5758 137.393 76.5795V77.2614C137.37 77.2557 137.318 77.2472 137.237 77.2358C137.157 77.2225 137.073 77.2159 136.984 77.2159C136.772 77.2159 136.583 77.2604 136.416 77.3494C136.251 77.4366 136.12 77.5578 136.024 77.7131C135.929 77.8665 135.882 78.0417 135.882 78.2386V81H135.211ZM142.381 76.6364V77.2045H140.029V76.6364H142.381ZM140.733 81V76.0341C140.733 75.7841 140.792 75.5758 140.909 75.4091C141.027 75.2424 141.179 75.1174 141.367 75.0341C141.554 74.9508 141.752 74.9091 141.961 74.9091C142.125 74.9091 142.26 74.9223 142.364 74.9489C142.468 74.9754 142.546 75 142.597 75.0227L142.404 75.6023C142.37 75.5909 142.322 75.5767 142.262 75.5597C142.203 75.5426 142.125 75.5341 142.029 75.5341C141.807 75.5341 141.647 75.59 141.549 75.7017C141.452 75.8134 141.404 75.9773 141.404 76.1932V81H140.733ZM143.321 81V76.6364H143.968V77.2955H144.014C144.093 77.0795 144.237 76.9044 144.446 76.7699C144.654 76.6354 144.889 76.5682 145.15 76.5682C145.199 76.5682 145.261 76.5691 145.335 76.571C145.409 76.5729 145.465 76.5758 145.502 76.5795V77.2614C145.48 77.2557 145.428 77.2472 145.346 77.2358C145.267 77.2225 145.182 77.2159 145.093 77.2159C144.881 77.2159 144.692 77.2604 144.525 77.3494C144.36 77.4366 144.23 77.5578 144.133 77.7131C144.038 77.8665 143.991 78.0417 143.991 78.2386V81H143.321ZM146.297 81V76.6364H146.968V81H146.297ZM146.638 75.9091C146.507 75.9091 146.395 75.8646 146.3 75.7756C146.207 75.6866 146.161 75.5795 146.161 75.4545C146.161 75.3295 146.207 75.2225 146.3 75.1335C146.395 75.0445 146.507 75 146.638 75C146.769 75 146.881 75.0445 146.973 75.1335C147.068 75.2225 147.115 75.3295 147.115 75.4545C147.115 75.5795 147.068 75.6866 146.973 75.7756C146.881 75.8646 146.769 75.9091 146.638 75.9091ZM150.025 81.0909C149.605 81.0909 149.242 80.9981 148.937 80.8125C148.634 80.625 148.4 80.3636 148.235 80.0284C148.073 79.6913 147.991 79.2992 147.991 78.8523C147.991 78.4053 148.073 78.0114 148.235 77.6705C148.4 77.3277 148.629 77.0606 148.923 76.8693C149.218 76.6761 149.563 76.5795 149.957 76.5795C150.184 76.5795 150.409 76.6174 150.63 76.6932C150.852 76.7689 151.054 76.892 151.235 77.0625C151.417 77.2311 151.562 77.4545 151.67 77.733C151.778 78.0114 151.832 78.3542 151.832 78.7614V79.0455H148.468V78.4659H151.15C151.15 78.2197 151.101 78 151.002 77.8068C150.906 77.6136 150.768 77.4612 150.588 77.3494C150.41 77.2377 150.199 77.1818 149.957 77.1818C149.69 77.1818 149.459 77.2481 149.264 77.3807C149.071 77.5114 148.922 77.6818 148.818 77.892C148.714 78.1023 148.662 78.3277 148.662 78.5682V78.9545C148.662 79.2841 148.718 79.5634 148.832 79.7926C148.948 80.0199 149.108 80.1932 149.312 80.3125C149.517 80.4299 149.754 80.4886 150.025 80.4886C150.201 80.4886 150.36 80.464 150.502 80.4148C150.646 80.3636 150.77 80.2879 150.875 80.1875C150.979 80.0852 151.059 79.9583 151.116 79.8068L151.764 79.9886C151.696 80.2083 151.581 80.4015 151.42 80.5682C151.259 80.733 151.06 80.8617 150.824 80.9545C150.587 81.0455 150.321 81.0909 150.025 81.0909ZM153.522 78.375V81H152.852V76.6364H153.5V77.3182H153.556C153.659 77.0966 153.814 76.9186 154.022 76.7841C154.231 76.6477 154.5 76.5795 154.829 76.5795C155.125 76.5795 155.383 76.6402 155.605 76.7614C155.826 76.8807 155.999 77.0625 156.122 77.3068C156.245 77.5492 156.306 77.8561 156.306 78.2273V81H155.636V78.2727C155.636 77.9299 155.547 77.6629 155.369 77.4716C155.191 77.2784 154.947 77.1818 154.636 77.1818C154.422 77.1818 154.231 77.2282 154.062 77.321C153.895 77.4138 153.764 77.5492 153.667 77.7273C153.571 77.9053 153.522 78.1212 153.522 78.375ZM159.179 81.0909C158.816 81.0909 158.495 80.9991 158.216 80.8153C157.938 80.6297 157.72 80.3684 157.563 80.0312C157.406 79.6922 157.327 79.2917 157.327 78.8295C157.327 78.3712 157.406 77.9735 157.563 77.6364C157.72 77.2992 157.939 77.0388 158.219 76.8551C158.499 76.6714 158.823 76.5795 159.191 76.5795C159.475 76.5795 159.699 76.6269 159.864 76.7216C160.031 76.8144 160.158 76.9205 160.245 77.0398C160.334 77.1572 160.403 77.2538 160.452 77.3295H160.509V75.1818H161.179V81H160.532V80.3295H160.452C160.403 80.4091 160.333 80.5095 160.242 80.6307C160.151 80.75 160.021 80.857 159.853 80.9517C159.684 81.0445 159.46 81.0909 159.179 81.0909ZM159.27 80.4886C159.539 80.4886 159.766 80.4186 159.952 80.2784C160.138 80.1364 160.279 79.9403 160.375 79.6903C160.472 79.4384 160.52 79.1477 160.52 78.8182C160.52 78.4924 160.473 78.2074 160.378 77.9631C160.283 77.7169 160.143 77.5256 159.958 77.3892C159.772 77.2509 159.543 77.1818 159.27 77.1818C158.986 77.1818 158.749 77.2547 158.56 77.4006C158.373 77.5445 158.231 77.7405 158.137 77.9886C158.044 78.2348 157.998 78.5114 157.998 78.8182C157.998 79.1288 158.045 79.411 158.14 79.6648C158.236 79.9167 158.378 80.1174 158.566 80.267C158.755 80.4148 158.99 80.4886 159.27 80.4886ZM165.591 77.6136L164.989 77.7841C164.951 77.6837 164.895 77.5862 164.821 77.4915C164.749 77.3949 164.651 77.3153 164.526 77.2528C164.401 77.1903 164.241 77.1591 164.046 77.1591C163.779 77.1591 163.556 77.2206 163.378 77.3438C163.202 77.465 163.114 77.6193 163.114 77.8068C163.114 77.9735 163.175 78.1051 163.296 78.2017C163.417 78.2983 163.606 78.3788 163.864 78.4432L164.512 78.6023C164.902 78.697 165.193 78.8419 165.384 79.0369C165.575 79.2301 165.671 79.4792 165.671 79.7841C165.671 80.0341 165.599 80.2576 165.455 80.4545C165.313 80.6515 165.114 80.8068 164.858 80.9205C164.603 81.0341 164.305 81.0909 163.966 81.0909C163.521 81.0909 163.153 80.9943 162.861 80.8011C162.569 80.608 162.385 80.3258 162.307 79.9545L162.944 79.7955C163.004 80.0303 163.119 80.2064 163.287 80.3239C163.458 80.4413 163.68 80.5 163.955 80.5C164.267 80.5 164.516 80.4337 164.699 80.3011C164.885 80.1667 164.978 80.0057 164.978 79.8182C164.978 79.6667 164.925 79.5398 164.819 79.4375C164.712 79.3333 164.55 79.2557 164.33 79.2045L163.603 79.0341C163.203 78.9394 162.909 78.7926 162.722 78.5938C162.536 78.393 162.444 78.142 162.444 77.8409C162.444 77.5947 162.513 77.3769 162.651 77.1875C162.791 76.9981 162.981 76.8494 163.222 76.7415C163.464 76.6335 163.739 76.5795 164.046 76.5795C164.478 76.5795 164.817 76.6742 165.063 76.8636C165.311 77.053 165.487 77.303 165.591 77.6136ZM167.169 81.0455C167.029 81.0455 166.908 80.9953 166.808 80.8949C166.708 80.7945 166.657 80.6742 166.657 80.5341C166.657 80.3939 166.708 80.2737 166.808 80.1733C166.908 80.0729 167.029 80.0227 167.169 80.0227C167.309 80.0227 167.429 80.0729 167.529 80.1733C167.63 80.2737 167.68 80.3939 167.68 80.5341C167.68 80.6269 167.656 80.7121 167.609 80.7898C167.564 80.8674 167.502 80.9299 167.424 80.9773C167.349 81.0227 167.263 81.0455 167.169 81.0455ZM169.372 81.0455C169.232 81.0455 169.111 80.9953 169.011 80.8949C168.911 80.7945 168.86 80.6742 168.86 80.5341C168.86 80.3939 168.911 80.2737 169.011 80.1733C169.111 80.0729 169.232 80.0227 169.372 80.0227C169.512 80.0227 169.632 80.0729 169.733 80.1733C169.833 80.2737 169.883 80.3939 169.883 80.5341C169.883 80.6269 169.859 80.7121 169.812 80.7898C169.767 80.8674 169.705 80.9299 169.627 80.9773C169.552 81.0227 169.467 81.0455 169.372 81.0455ZM171.575 81.0455C171.435 81.0455 171.315 80.9953 171.214 80.8949C171.114 80.7945 171.064 80.6742 171.064 80.5341C171.064 80.3939 171.114 80.2737 171.214 80.1733C171.315 80.0729 171.435 80.0227 171.575 80.0227C171.715 80.0227 171.835 80.0729 171.936 80.1733C172.036 80.2737 172.086 80.3939 172.086 80.5341C172.086 80.6269 172.063 80.7121 172.015 80.7898C171.97 80.8674 171.908 80.9299 171.831 80.9773C171.755 81.0227 171.67 81.0455 171.575 81.0455Z" fill="#8F8E8E"/>
<g filter="url(#filter0_d_19_144)">
<path d="M76.7017 24V9.45455H82.4403C83.5388 9.45455 84.4763 9.65104 85.2528 10.044C86.0341 10.4323 86.6283 10.9839 87.0355 11.6989C87.4474 12.4091 87.6534 13.2448 87.6534 14.206C87.6534 15.1719 87.4451 16.0028 87.0284 16.6989C86.6117 17.3902 86.008 17.9205 85.2173 18.2898C84.4313 18.6591 83.4796 18.8438 82.3622 18.8438H78.5199V16.3722H81.8651C82.4522 16.3722 82.9399 16.2917 83.3281 16.1307C83.7164 15.9697 84.0052 15.7282 84.1946 15.4062C84.3887 15.0843 84.4858 14.6842 84.4858 14.206C84.4858 13.723 84.3887 13.3158 84.1946 12.9844C84.0052 12.6529 83.714 12.402 83.321 12.2315C82.9328 12.0563 82.4427 11.9688 81.8509 11.9688H79.777V24H76.7017ZM84.5568 17.3807L88.1719 24H84.777L81.2401 17.3807H84.5568Z" fill="white"/>
<path d="M76.7017 24H75.7017C75.7017 24.5523 76.1494 25 76.7017 25V24ZM76.7017 9.45455V8.45455C76.1494 8.45455 75.7017 8.90226 75.7017 9.45455H76.7017ZM85.2528 10.044L84.8013 10.9363L84.8078 10.9395L85.2528 10.044ZM87.0355 11.6989L86.1665 12.1938L86.1705 12.2006L87.0355 11.6989ZM87.0284 16.6989L87.8849 17.2151L87.8864 17.2125L87.0284 16.6989ZM85.2173 18.2898L84.7941 17.3837L84.7921 17.3847L85.2173 18.2898ZM78.5199 18.8438H77.5199C77.5199 19.396 77.9676 19.8438 78.5199 19.8438V18.8438ZM78.5199 16.3722V15.3722C77.9676 15.3722 77.5199 15.8199 77.5199 16.3722H78.5199ZM83.3281 16.1307L83.7111 17.0544L83.3281 16.1307ZM84.1946 15.4062L83.3382 14.8899L83.3327 14.8992L84.1946 15.4062ZM84.1946 12.9844L83.3263 13.4805L83.3317 13.4898L84.1946 12.9844ZM83.321 12.2315L82.9097 13.143C82.9142 13.145 82.9186 13.147 82.9231 13.149L83.321 12.2315ZM79.777 11.9688V10.9688C79.2247 10.9688 78.777 11.4165 78.777 11.9688H79.777ZM79.777 24V25C80.3293 25 80.777 24.5523 80.777 24H79.777ZM84.5568 17.3807L85.4345 16.9014C85.2592 16.5804 84.9226 16.3807 84.5568 16.3807V17.3807ZM88.1719 24V25C88.5249 25 88.8518 24.8139 89.0319 24.5102C89.212 24.2066 89.2187 23.8305 89.0495 23.5207L88.1719 24ZM84.777 24L83.895 24.4713C84.0689 24.7968 84.408 25 84.777 25V24ZM81.2401 17.3807V16.3807C80.8887 16.3807 80.563 16.5651 80.3824 16.8665C80.2017 17.1679 80.1925 17.542 80.3581 17.852L81.2401 17.3807ZM77.7017 24V9.45455H75.7017V24H77.7017ZM76.7017 10.4545H82.4403V8.45455H76.7017V10.4545ZM82.4403 10.4545C83.422 10.4545 84.1966 10.6302 84.8013 10.9363L85.7044 9.15179C84.756 8.67183 83.6556 8.45455 82.4403 8.45455V10.4545ZM84.8078 10.9395C85.4224 11.245 85.8638 11.6621 86.1666 12.1938L87.9045 11.204C87.3928 10.3057 86.6458 9.61961 85.6979 9.14852L84.8078 10.9395ZM86.1705 12.2006C86.4799 12.7341 86.6534 13.3907 86.6534 14.206H88.6534C88.6534 13.0989 88.415 12.0841 87.9005 11.1971L86.1705 12.2006ZM86.6534 14.206C86.6534 15.0257 86.4778 15.6717 86.1704 16.1852L87.8864 17.2125C88.4124 16.3339 88.6534 15.3181 88.6534 14.206H86.6534ZM86.172 16.1826C85.8662 16.6899 85.4202 17.0913 84.7941 17.3837L85.6405 19.1958C86.5959 18.7496 87.3573 18.0904 87.8849 17.2151L86.172 16.1826ZM84.7921 17.3847C84.1716 17.6763 83.3732 17.8438 82.3622 17.8438V19.8438C83.586 19.8438 84.6911 19.6419 85.6426 19.1948L84.7921 17.3847ZM82.3622 17.8438H78.5199V19.8438H82.3622V17.8438ZM79.5199 18.8438V16.3722H77.5199V18.8438H79.5199ZM78.5199 17.3722H81.8651V15.3722H78.5199V17.3722ZM81.8651 17.3722C82.5351 17.3722 83.1635 17.2815 83.7111 17.0544L82.9451 15.2069C82.7162 15.3018 82.3692 15.3722 81.8651 15.3722V17.3722ZM83.7111 17.0544C84.2737 16.8212 84.7434 16.4457 85.0565 15.9133L83.3327 14.8992C83.2671 15.0108 83.1591 15.1182 82.9451 15.2069L83.7111 17.0544ZM85.051 15.9226C85.3614 15.4077 85.4858 14.8174 85.4858 14.206H83.4858C83.4858 14.551 83.416 14.7609 83.3382 14.8899L85.051 15.9226ZM85.4858 14.206C85.4858 13.5905 85.3618 12.9985 85.0575 12.479L83.3317 13.4898C83.4157 13.6332 83.4858 13.8555 83.4858 14.206H85.4858ZM85.0628 12.4882C84.7533 11.9466 84.2847 11.5595 83.7189 11.3141L82.9231 13.149C83.1433 13.2445 83.2571 13.3593 83.3264 13.4805L85.0628 12.4882ZM83.7323 11.32C83.1748 11.0685 82.5328 10.9688 81.8509 10.9688V12.9688C82.3526 12.9688 82.6908 13.0442 82.9097 13.143L83.7323 11.32ZM81.8509 10.9688H79.777V12.9688H81.8509V10.9688ZM78.777 11.9688V24H80.777V11.9688H78.777ZM79.777 23H76.7017V25H79.777V23ZM83.6792 17.86L87.2942 24.4793L89.0495 23.5207L85.4345 16.9014L83.6792 17.86ZM88.1719 23H84.777V25H88.1719V23ZM85.659 23.5287L82.122 16.9094L80.3581 17.852L83.895 24.4713L85.659 23.5287ZM81.2401 18.3807H84.5568V16.3807H81.2401V18.3807Z" fill="white"/>
</g>
<g filter="url(#filter1_d_19_144)">
<path d="M86.7017 25V39.5455H92.4403C93.5388 39.5455 94.4763 39.349 95.2528 38.956C96.0341 38.5677 96.6283 38.0161 97.0355 37.3011C97.4474 36.5909 97.6534 35.7552 97.6534 34.794C97.6534 33.8281 97.4451 32.9972 97.0284 32.3011C96.6117 31.6098 96.008 31.0795 95.2173 30.7102C94.4313 30.3409 93.4796 30.1562 92.3622 30.1562H88.5199V32.6278H91.8651C92.4522 32.6278 92.9399 32.7083 93.3281 32.8693C93.7164 33.0303 94.0052 33.2718 94.1946 33.5938C94.3887 33.9157 94.4858 34.3158 94.4858 34.794C94.4858 35.277 94.3887 35.6842 94.1946 36.0156C94.0052 36.3471 93.714 36.598 93.321 36.7685C92.9328 36.9437 92.4427 37.0312 91.8509 37.0312H89.777V25H86.7017ZM94.5568 31.6193L98.1719 25H94.777L91.2401 31.6193H94.5568Z" fill="white"/>
<path d="M86.7017 25H85.7017C85.7017 24.4477 86.1494 24 86.7017 24V25ZM86.7017 39.5455V40.5455C86.1494 40.5455 85.7017 40.0977 85.7017 39.5455H86.7017ZM95.2528 38.956L94.8013 38.0637L94.8078 38.0605L95.2528 38.956ZM97.0355 37.3011L96.1665 36.8062L96.1705 36.7994L97.0355 37.3011ZM97.0284 32.3011L97.8849 31.7849L97.8864 31.7875L97.0284 32.3011ZM95.2173 30.7102L94.7941 31.6163L94.7921 31.6153L95.2173 30.7102ZM88.5199 30.1562H87.5199C87.5199 29.604 87.9676 29.1562 88.5199 29.1562V30.1562ZM88.5199 32.6278V33.6278C87.9676 33.6278 87.5199 33.1801 87.5199 32.6278H88.5199ZM93.3281 32.8693L93.7111 31.9456L93.3281 32.8693ZM94.1946 33.5938L93.3382 34.1101L93.3327 34.1008L94.1946 33.5938ZM94.1946 36.0156L93.3263 35.5195L93.3317 35.5102L94.1946 36.0156ZM93.321 36.7685L92.9097 35.857C92.9142 35.855 92.9186 35.853 92.9231 35.851L93.321 36.7685ZM89.777 37.0312V38.0312C89.2247 38.0312 88.777 37.5835 88.777 37.0312H89.777ZM89.777 25V24C90.3293 24 90.777 24.4477 90.777 25H89.777ZM94.5568 31.6193L95.4345 32.0986C95.2592 32.4196 94.9226 32.6193 94.5568 32.6193V31.6193ZM98.1719 25V24C98.5249 24 98.8518 24.1861 99.0319 24.4898C99.212 24.7934 99.2187 25.1695 99.0495 25.4793L98.1719 25ZM94.777 25L93.895 24.5287C94.0689 24.2032 94.408 24 94.777 24V25ZM91.2401 31.6193V32.6193C90.8887 32.6193 90.563 32.4349 90.3824 32.1335C90.2017 31.8321 90.1925 31.458 90.3581 31.148L91.2401 31.6193ZM87.7017 25V39.5455H85.7017V25H87.7017ZM86.7017 38.5455H92.4403V40.5455H86.7017V38.5455ZM92.4403 38.5455C93.422 38.5455 94.1966 38.3698 94.8013 38.0637L95.7044 39.8482C94.756 40.3282 93.6556 40.5455 92.4403 40.5455V38.5455ZM94.8078 38.0605C95.4224 37.755 95.8638 37.3379 96.1666 36.8062L97.9045 37.796C97.3928 38.6943 96.6458 39.3804 95.6979 39.8515L94.8078 38.0605ZM96.1705 36.7994C96.4799 36.2659 96.6534 35.6093 96.6534 34.794H98.6534C98.6534 35.9011 98.415 36.9159 97.9005 37.8029L96.1705 36.7994ZM96.6534 34.794C96.6534 33.9743 96.4778 33.3283 96.1704 32.8148L97.8864 31.7875C98.4124 32.6661 98.6534 33.6819 98.6534 34.794H96.6534ZM96.172 32.8174C95.8662 32.3101 95.4202 31.9087 94.7941 31.6163L95.6405 29.8042C96.5959 30.2504 97.3573 30.9096 97.8849 31.7849L96.172 32.8174ZM94.7921 31.6153C94.1716 31.3237 93.3732 31.1562 92.3622 31.1562V29.1562C93.586 29.1562 94.6911 29.3581 95.6426 29.8052L94.7921 31.6153ZM92.3622 31.1562H88.5199V29.1562H92.3622V31.1562ZM89.5199 30.1562V32.6278H87.5199V30.1562H89.5199ZM88.5199 31.6278H91.8651V33.6278H88.5199V31.6278ZM91.8651 31.6278C92.5351 31.6278 93.1635 31.7185 93.7111 31.9456L92.9451 33.7931C92.7162 33.6982 92.3692 33.6278 91.8651 33.6278V31.6278ZM93.7111 31.9456C94.2737 32.1788 94.7434 32.5543 95.0565 33.0867L93.3327 34.1008C93.2671 33.9892 93.1591 33.8818 92.9451 33.7931L93.7111 31.9456ZM95.051 33.0774C95.3614 33.5923 95.4858 34.1826 95.4858 34.794H93.4858C93.4858 34.449 93.416 34.2391 93.3382 34.1101L95.051 33.0774ZM95.4858 34.794C95.4858 35.4095 95.3618 36.0015 95.0575 36.521L93.3317 35.5102C93.4157 35.3668 93.4858 35.1445 93.4858 34.794H95.4858ZM95.0628 36.5118C94.7533 37.0534 94.2847 37.4405 93.7189 37.6859L92.9231 35.851C93.1433 35.7555 93.2571 35.6407 93.3264 35.5195L95.0628 36.5118ZM93.7323 37.68C93.1748 37.9315 92.5328 38.0312 91.8509 38.0312V36.0312C92.3526 36.0312 92.6908 35.9558 92.9097 35.857L93.7323 37.68ZM91.8509 38.0312H89.777V36.0312H91.8509V38.0312ZM88.777 37.0312V25H90.777V37.0312H88.777ZM89.777 26H86.7017V24H89.777V26ZM93.6792 31.14L97.2942 24.5207L99.0495 25.4793L95.4345 32.0986L93.6792 31.14ZM98.1719 26H94.777V24H98.1719V26ZM95.659 25.4713L92.122 32.0906L90.3581 31.148L93.895 24.5287L95.659 25.4713ZM91.2401 30.6193H94.5568V32.6193H91.2401V30.6193Z" fill="white"/>
</g>
<g filter="url(#filter2_d_19_144)">
<rect x="304" y="77" width="513" height="480" fill="white"/>
<rect x="298" y="71" width="525" height="492" stroke="white" stroke-width="12" stroke-linejoin="round"/>
</g>
<circle cx="949" cy="124" r="50" fill="white"/>
<defs>
<filter id="filter0_d_19_144" x="72.7017" y="9.45453" width="19.4702" height="22.5455" filterUnits="userSpaceOnUse" color-interpolation-filters="sRGB">
<feFlood flood-opacity="0" result="BackgroundImageFix"/>
<feColorMatrix in="SourceAlpha" type="matrix" values="0 0 0 0 0 0 0 0 0 0 0 0 0 0 0 0 0 0 127 0" result="hardAlpha"/>
<feOffset dy="4"/>
<feGaussianBlur stdDeviation="2"/>
<feComposite in2="hardAlpha" operator="out"/>
<feColorMatrix type="matrix" values="0 0 0 0 0 0 0 0 0 0 0 0 0 0 0 0 0 0 0.25 0"/>
<feBlend mode="normal" in2="BackgroundImageFix" result="effect1_dropShadow_19_144"/>
<feBlend mode="normal" in="SourceGraphic" in2="effect1_dropShadow_19_144" result="shape"/>
</filter>
<filter id="filter1_d_19_144" x="82.7017" y="25" width="19.4702" height="22.5455" filterUnits="userSpaceOnUse" color-interpolation-filters="sRGB">
<feFlood flood-opacity="0" result="BackgroundImageFix"/>
<feColorMatrix in="SourceAlpha" type="matrix" values="0 0 0 0 0 0 0 0 0 0 0 0 0 0 0 0 0 0 127 0" result="hardAlpha"/>
<feOffset dy="4"/>
<feGaussianBlur stdDeviation="2"/>
<feComposite in2="hardAlpha" operator="out"/>
<feColorMatrix type="matrix" values="0 0 0 0 0 0 0 0 0 0 0 0 0 0 0 0 0 0 0.25 0"/>
<feBlend mode="normal" in2="BackgroundImageFix" result="effect1_dropShadow_19_144"/>
<feBlend mode="normal" in="SourceGraphic" in2="effect1_dropShadow_19_144" result="shape"/>
</filter>
<filter id="filter2_d_19_144" x="288" y="65" width="545" height="512" filterUnits="userSpaceOnUse" color-interpolation-filters="sRGB">
<feFlood flood-opacity="0" result="BackgroundImageFix"/>
<feColorMatrix in="SourceAlpha" type="matrix" values="0 0 0 0 0 0 0 0 0 0 0 0 0 0 0 0 0 0 127 0" result="hardAlpha"/>
<feOffset dy="4"/>
<feGaussianBlur stdDeviation="2"/>
<feComposite in2="hardAlpha" operator="out"/>
<feColorMatrix type="matrix" values="0 0 0 0 0 0 0 0 0 0 0 0 0 0 0 0 0 0 0.25 0"/>
<feBlend mode="normal" in2="BackgroundImageFix" result="effect1_dropShadow_19_144"/>
<feBlend mode="normal" in="SourceGraphic" in2="effect1_dropShadow_19_144" result="shape"/>
</filter>
</defs>
</svg>
