<svg width="1029" height="585" viewBox="0 0 1029 585" fill="none" xmlns="http://www.w3.org/2000/svg">
<rect y="0.039917" width="1029" height="584" fill="#D9D9D9"/>
<path fill-rule="evenodd" clip-rule="evenodd" d="M457.346 584.007L552.621 575.73C647.897 567.94 838.447 551.386 914.667 535.324C990.887 519.261 952.776 502.717 952.776 486.657C952.775 470.597 990.885 454.05 971.829 437.991C952.773 421.932 876.552 405.389 876.551 389.329C876.551 373.27 952.771 356.72 895.605 340.663C838.439 324.606 647.887 308.067 647.886 292.007C647.885 275.948 984.362 312.47 933.711 243.331C883.06 174.191 981.847 167.702 990.875 194.663C999.902 221.624 876.543 162.062 724.101 146.008C571.659 129.954 342.997 113.417 228.665 97.362C114.334 81.3069 114.333 64.7606 95.2776 48.7018C76.2219 32.643 38.111 16.0982 19.0555 8.3125L6.18973e-05 0.0401038L1028.98 -8.3797e-06L1028.98 8.27313C1028.98 16.0596 1028.98 32.6058 1028.98 48.6654C1028.98 64.725 1028.98 81.2712 1028.98 97.3308C1028.98 113.39 1028.98 129.937 1028.98 145.996C1028.98 162.056 1028.98 178.602 1028.98 194.662C1028.99 210.721 1028.99 227.267 1028.99 243.327C1028.99 259.387 1028.99 275.933 1028.99 291.992C1028.99 308.052 1028.99 324.598 1028.99 340.658C1028.99 356.717 1028.99 373.264 1028.99 389.323C1028.99 405.383 1028.99 421.929 1028.99 437.989C1028.99 454.048 1029 470.594 1029 486.654C1029 502.714 1029 519.26 1029 535.319C1029 551.379 1029 567.925 1029 575.712L1029 583.985L457.346 584.007Z" fill="#293728"/>
<path fill-rule="evenodd" clip-rule="evenodd" d="M803.945 0.0401611L836.726 24.0402C872.488 49.0402 941.03 97.0402 976.791 146.04C1009.57 195.04 1009.57 243.04 1018.51 292.04C1027.45 341.04 1045.33 390.04 994.672 438.04C941.03 487.04 818.846 536.04 759.244 560.04L696.662 584.04H646V560.04C646 536.04 646 487.04 646 438.04C646 390.04 646 341.04 646 292.04C646 243.04 646 195.04 646 146.04C646 97.0402 646 49.0402 646 24.0402V0.0401611L803.945 0.0401611Z" fill="#364435"/>
<path fill-rule="evenodd" clip-rule="evenodd" d="M836.404 0.0401611L862.431 24.3735C888.458 48.7068 940.512 97.3735 875.445 146.04C810.377 194.707 628.189 243.374 667.229 292.04C706.27 340.707 966.539 389.374 1018.59 438.04C1070.65 486.707 914.485 535.374 836.404 559.707L758.324 584.04L446 584.04V559.707C446 535.374 446 486.707 446 438.04C446 389.374 446 340.707 446 292.04C446 243.374 446 194.707 446 146.04C446 97.3735 446 48.7068 446 24.3735V0.0401611L836.404 0.0401611Z" fill="#3E513D"/>
<path fill-rule="evenodd" clip-rule="evenodd" d="M670.5 0.0401611V24.3735C670.5 48.7068 670.5 97.3735 610.75 146.04C551 194.707 431.5 243.374 491.25 292.04C551 340.707 790 389.374 909.5 438.04C1029 486.707 1029 535.374 1029 559.707V584.04H312V559.707C312 535.374 312 486.707 312 438.04C312 389.374 312 340.707 312 292.04C312 243.374 312 194.707 312 146.04C312 97.3735 312 48.7068 312 24.3735V0.0401611L670.5 0.0401611Z" fill="#678164"/>
<path fill-rule="evenodd" clip-rule="evenodd" d="M189 0.0401611L265.563 24.3735C342.125 48.7068 495.25 97.3735 528.063 146.04C560.875 194.707 473.375 243.374 407.75 292.04C342.125 340.707 298.375 389.374 353.063 438.04C407.75 486.707 560.875 535.374 637.438 559.707L714 584.04L189 584.04V559.707C189 535.374 189 486.707 189 438.04C189 389.374 189 340.707 189 292.04C189 243.374 189 194.707 189 146.04C189 97.3735 189 48.7068 189 24.3735V0.0401611Z" fill="#82A47F"/>
<path fill-rule="evenodd" clip-rule="evenodd" d="M453 0.0400391L394.63 24.3734C336.259 48.7067 219.519 97.3734 204.926 146.04C190.333 194.707 277.889 243.373 299.778 292.04C321.667 340.707 277.889 389.373 248.704 438.04C219.519 486.707 204.926 535.373 197.63 559.707L190.333 584.04H59V559.707C59 535.373 59 486.707 59 438.04C59 389.373 59 340.707 59 292.04C59 243.373 59 194.707 59 146.04C59 97.3734 59 48.7067 59 24.3734V0.0400391L453 0.0400391Z" fill="#9CC29B"/>
<path fill-rule="evenodd" clip-rule="evenodd" d="M330 0.0401611L277.832 10.8234C226.667 21.6067 123.333 43.1733 87.2168 64.7399C51.1003 86.3064 82.2007 108.441 82.2007 130.007C82.2007 151.574 51.1003 173.14 77.1845 194.707C102.265 216.273 185.534 237.84 216.634 259.407C247.735 280.973 226.667 303.107 231.683 324.674C236.699 346.24 267.799 367.807 277.832 389.374C288.867 410.94 277.832 432.507 252.751 454.073C226.667 475.64 185.534 497.774 159.45 519.34C133.366 540.907 123.333 562.474 118.317 573.257L113.301 584.04H20V573.257C20 562.474 20 540.907 20 519.34C20 497.774 20 475.64 20 454.073C20 432.507 20 410.94 20 389.374C20 367.807 20 346.24 20 324.674C20 303.107 20 280.973 20 259.407C20 237.84 20 216.273 20 194.707C20 173.14 20 151.574 20 130.007C20 108.441 20 86.3064 20 64.7399C20 43.1733 20 21.6067 20 10.8234V0.0401611L330 0.0401611Z" fill="#BFDDC1"/>
<path fill-rule="evenodd" clip-rule="evenodd" d="M38.0148 0.0401611L31.3063 24.0688C24.5978 49.1421 13.417 97.1994 49.1956 146.301C87.2105 194.359 174.421 243.461 205.727 292.563C237.034 340.62 212.436 389.722 174.421 437.779C138.642 486.881 87.2105 534.938 62.6126 560.012L38.0148 584.04H8.88419e-06L8.88419e-06 560.012C8.88419e-06 534.938 8.88419e-06 486.881 8.88419e-06 437.779C8.88419e-06 389.722 8.88419e-06 340.62 8.88419e-06 292.563C8.88419e-06 243.461 8.88419e-06 194.359 8.88419e-06 146.301C8.88419e-06 97.1994 8.88419e-06 49.1421 8.88419e-06 24.0688V0.0401611L38.0148 0.0401611Z" fill="#BFDDC1"/>
<rect width="1029" height="49" fill="#514F4F"/>
<g filter="url(#filter0_d_17_126)">
<path d="M76.7017 24V9.45455H82.4403C83.5388 9.45455 84.4763 9.65104 85.2528 10.044C86.0341 10.4323 86.6283 10.9839 87.0355 11.6989C87.4474 12.4091 87.6534 13.2448 87.6534 14.206C87.6534 15.1719 87.4451 16.0028 87.0284 16.6989C86.6117 17.3902 86.008 17.9205 85.2173 18.2898C84.4313 18.6591 83.4796 18.8438 82.3622 18.8438H78.5199V16.3722H81.8651C82.4522 16.3722 82.9399 16.2917 83.3281 16.1307C83.7164 15.9697 84.0052 15.7282 84.1946 15.4062C84.3887 15.0843 84.4858 14.6842 84.4858 14.206C84.4858 13.723 84.3887 13.3158 84.1946 12.9844C84.0052 12.6529 83.714 12.402 83.321 12.2315C82.9328 12.0563 82.4427 11.9688 81.8509 11.9688H79.777V24H76.7017ZM84.5568 17.3807L88.1719 24H84.777L81.2401 17.3807H84.5568Z" fill="white"/>
<path d="M76.7017 24H75.7017C75.7017 24.5523 76.1494 25 76.7017 25V24ZM76.7017 9.45455V8.45455C76.1494 8.45455 75.7017 8.90226 75.7017 9.45455H76.7017ZM85.2528 10.044L84.8013 10.9363L84.8078 10.9395L85.2528 10.044ZM87.0355 11.6989L86.1665 12.1938L86.1705 12.2006L87.0355 11.6989ZM87.0284 16.6989L87.8849 17.2151L87.8864 17.2125L87.0284 16.6989ZM85.2173 18.2898L84.7941 17.3837L84.7921 17.3847L85.2173 18.2898ZM78.5199 18.8438H77.5199C77.5199 19.396 77.9676 19.8438 78.5199 19.8438V18.8438ZM78.5199 16.3722V15.3722C77.9676 15.3722 77.5199 15.8199 77.5199 16.3722H78.5199ZM83.3281 16.1307L83.7111 17.0544L83.7111 17.0544L83.3281 16.1307ZM84.1946 15.4062L83.3382 14.8899L83.3327 14.8992L84.1946 15.4062ZM84.1946 12.9844L83.3263 13.4805L83.3317 13.4898L84.1946 12.9844ZM83.321 12.2315L82.9097 13.143C82.9142 13.145 82.9186 13.147 82.9231 13.149L83.321 12.2315ZM79.777 11.9688V10.9688C79.2247 10.9688 78.777 11.4165 78.777 11.9688H79.777ZM79.777 24V25C80.3293 25 80.777 24.5523 80.777 24H79.777ZM84.5568 17.3807L85.4345 16.9014C85.2592 16.5804 84.9226 16.3807 84.5568 16.3807V17.3807ZM88.1719 24V25C88.5249 25 88.8518 24.8139 89.0319 24.5102C89.212 24.2066 89.2187 23.8305 89.0495 23.5207L88.1719 24ZM84.777 24L83.895 24.4713C84.0689 24.7968 84.408 25 84.777 25V24ZM81.2401 17.3807V16.3807C80.8887 16.3807 80.563 16.5651 80.3824 16.8665C80.2017 17.1679 80.1925 17.542 80.3581 17.852L81.2401 17.3807ZM77.7017 24V9.45455H75.7017V24H77.7017ZM76.7017 10.4545H82.4403V8.45455H76.7017V10.4545ZM82.4403 10.4545C83.422 10.4545 84.1966 10.6302 84.8013 10.9363L85.7044 9.15179C84.756 8.67183 83.6556 8.45455 82.4403 8.45455V10.4545ZM84.8078 10.9395C85.4224 11.245 85.8638 11.6621 86.1666 12.1938L87.9045 11.204C87.3928 10.3057 86.6458 9.61961 85.6979 9.14852L84.8078 10.9395ZM86.1705 12.2006C86.4799 12.7341 86.6534 13.3907 86.6534 14.206H88.6534C88.6534 13.0989 88.415 12.0841 87.9005 11.1971L86.1705 12.2006ZM86.6534 14.206C86.6534 15.0257 86.4778 15.6717 86.1704 16.1852L87.8864 17.2125C88.4124 16.3339 88.6534 15.3181 88.6534 14.206H86.6534ZM86.172 16.1826C85.8662 16.6899 85.4202 17.0913 84.7941 17.3837L85.6405 19.1958C86.5959 18.7496 87.3573 18.0904 87.8849 17.2151L86.172 16.1826ZM84.7921 17.3847C84.1716 17.6763 83.3732 17.8438 82.3622 17.8438V19.8438C83.586 19.8438 84.6911 19.6419 85.6426 19.1948L84.7921 17.3847ZM82.3622 17.8438H78.5199V19.8438H82.3622V17.8438ZM79.5199 18.8438V16.3722H77.5199V18.8438H79.5199ZM78.5199 17.3722H81.8651V15.3722H78.5199V17.3722ZM81.8651 17.3722C82.5351 17.3722 83.1635 17.2815 83.7111 17.0544L82.9451 15.2069C82.7162 15.3018 82.3692 15.3722 81.8651 15.3722V17.3722ZM83.7111 17.0544C84.2737 16.8212 84.7434 16.4457 85.0565 15.9133L83.3327 14.8992C83.2671 15.0108 83.1591 15.1182 82.9451 15.2069L83.7111 17.0544ZM85.051 15.9226C85.3614 15.4077 85.4858 14.8174 85.4858 14.206H83.4858C83.4858 14.551 83.416 14.7609 83.3382 14.8899L85.051 15.9226ZM85.4858 14.206C85.4858 13.5905 85.3618 12.9985 85.0575 12.479L83.3317 13.4898C83.4157 13.6332 83.4858 13.8555 83.4858 14.206H85.4858ZM85.0628 12.4882C84.7533 11.9466 84.2847 11.5595 83.7189 11.3141L82.9231 13.149C83.1433 13.2445 83.2571 13.3593 83.3264 13.4805L85.0628 12.4882ZM83.7323 11.32C83.1748 11.0685 82.5328 10.9688 81.8509 10.9688V12.9688C82.3526 12.9688 82.6908 13.0442 82.9097 13.143L83.7323 11.32ZM81.8509 10.9688H79.777V12.9688H81.8509V10.9688ZM78.777 11.9688V24H80.777V11.9688H78.777ZM79.777 23H76.7017V25H79.777V23ZM83.6792 17.86L87.2942 24.4793L89.0495 23.5207L85.4345 16.9014L83.6792 17.86ZM88.1719 23H84.777V25H88.1719V23ZM85.659 23.5287L82.122 16.9094L80.3581 17.852L83.895 24.4713L85.659 23.5287ZM81.2401 18.3807H84.5568V16.3807H81.2401V18.3807Z" fill="white"/>
</g>
<g filter="url(#filter1_d_17_126)">
<path d="M86.7017 25V39.5455H92.4403C93.5388 39.5455 94.4763 39.349 95.2528 38.956C96.0341 38.5677 96.6283 38.0161 97.0355 37.3011C97.4474 36.5909 97.6534 35.7552 97.6534 34.794C97.6534 33.8281 97.4451 32.9972 97.0284 32.3011C96.6117 31.6098 96.008 31.0795 95.2173 30.7102C94.4313 30.3409 93.4796 30.1562 92.3622 30.1562H88.5199V32.6278H91.8651C92.4522 32.6278 92.9399 32.7083 93.3281 32.8693C93.7164 33.0303 94.0052 33.2718 94.1946 33.5938C94.3887 33.9157 94.4858 34.3158 94.4858 34.794C94.4858 35.277 94.3887 35.6842 94.1946 36.0156C94.0052 36.3471 93.714 36.598 93.321 36.7685C92.9328 36.9437 92.4427 37.0312 91.8509 37.0312H89.777V25H86.7017ZM94.5568 31.6193L98.1719 25H94.777L91.2401 31.6193H94.5568Z" fill="white"/>
<path d="M86.7017 25H85.7017C85.7017 24.4477 86.1494 24 86.7017 24V25ZM86.7017 39.5455V40.5455C86.1494 40.5455 85.7017 40.0977 85.7017 39.5455H86.7017ZM95.2528 38.956L94.8013 38.0637L94.8078 38.0605L95.2528 38.956ZM97.0355 37.3011L96.1665 36.8062L96.1705 36.7994L97.0355 37.3011ZM97.0284 32.3011L97.8849 31.7849L97.8864 31.7875L97.0284 32.3011ZM95.2173 30.7102L94.7941 31.6163L94.7921 31.6153L95.2173 30.7102ZM88.5199 30.1562H87.5199C87.5199 29.604 87.9676 29.1562 88.5199 29.1562V30.1562ZM88.5199 32.6278V33.6278C87.9676 33.6278 87.5199 33.1801 87.5199 32.6278H88.5199ZM93.3281 32.8693L93.7111 31.9456L93.7111 31.9456L93.3281 32.8693ZM94.1946 33.5938L93.3382 34.1101L93.3327 34.1008L94.1946 33.5938ZM94.1946 36.0156L93.3263 35.5195L93.3317 35.5102L94.1946 36.0156ZM93.321 36.7685L92.9097 35.857C92.9142 35.855 92.9186 35.853 92.9231 35.851L93.321 36.7685ZM89.777 37.0312V38.0312C89.2247 38.0312 88.777 37.5835 88.777 37.0312H89.777ZM89.777 25V24C90.3293 24 90.777 24.4477 90.777 25H89.777ZM94.5568 31.6193L95.4345 32.0986C95.2592 32.4196 94.9226 32.6193 94.5568 32.6193V31.6193ZM98.1719 25V24C98.5249 24 98.8518 24.1861 99.0319 24.4898C99.212 24.7934 99.2187 25.1695 99.0495 25.4793L98.1719 25ZM94.777 25L93.895 24.5287C94.0689 24.2032 94.408 24 94.777 24V25ZM91.2401 31.6193V32.6193C90.8887 32.6193 90.563 32.4349 90.3824 32.1335C90.2017 31.8321 90.1925 31.458 90.3581 31.148L91.2401 31.6193ZM87.7017 25V39.5455H85.7017V25H87.7017ZM86.7017 38.5455H92.4403V40.5455H86.7017V38.5455ZM92.4403 38.5455C93.422 38.5455 94.1966 38.3698 94.8013 38.0637L95.7044 39.8482C94.756 40.3282 93.6556 40.5455 92.4403 40.5455V38.5455ZM94.8078 38.0605C95.4224 37.755 95.8638 37.3379 96.1666 36.8062L97.9045 37.796C97.3928 38.6943 96.6458 39.3804 95.6979 39.8515L94.8078 38.0605ZM96.1705 36.7994C96.4799 36.2659 96.6534 35.6093 96.6534 34.794H98.6534C98.6534 35.9011 98.415 36.9159 97.9005 37.8029L96.1705 36.7994ZM96.6534 34.794C96.6534 33.9743 96.4778 33.3283 96.1704 32.8148L97.8864 31.7875C98.4124 32.6661 98.6534 33.6819 98.6534 34.794H96.6534ZM96.172 32.8174C95.8662 32.3101 95.4202 31.9087 94.7941 31.6163L95.6405 29.8042C96.5959 30.2504 97.3573 30.9096 97.8849 31.7849L96.172 32.8174ZM94.7921 31.6153C94.1716 31.3237 93.3732 31.1562 92.3622 31.1562V29.1562C93.586 29.1562 94.6911 29.3581 95.6426 29.8052L94.7921 31.6153ZM92.3622 31.1562H88.5199V29.1562H92.3622V31.1562ZM89.5199 30.1562V32.6278H87.5199V30.1562H89.5199ZM88.5199 31.6278H91.8651V33.6278H88.5199V31.6278ZM91.8651 31.6278C92.5351 31.6278 93.1635 31.7185 93.7111 31.9456L92.9451 33.7931C92.7162 33.6982 92.3692 33.6278 91.8651 33.6278V31.6278ZM93.7111 31.9456C94.2737 32.1788 94.7434 32.5543 95.0565 33.0867L93.3327 34.1008C93.2671 33.9892 93.1591 33.8818 92.9451 33.7931L93.7111 31.9456ZM95.051 33.0774C95.3614 33.5923 95.4858 34.1826 95.4858 34.794H93.4858C93.4858 34.449 93.416 34.2391 93.3382 34.1101L95.051 33.0774ZM95.4858 34.794C95.4858 35.4095 95.3618 36.0015 95.0575 36.521L93.3317 35.5102C93.4157 35.3668 93.4858 35.1445 93.4858 34.794H95.4858ZM95.0628 36.5118C94.7533 37.0534 94.2847 37.4405 93.7189 37.6859L92.9231 35.851C93.1433 35.7555 93.2571 35.6407 93.3264 35.5195L95.0628 36.5118ZM93.7323 37.68C93.1748 37.9315 92.5328 38.0312 91.8509 38.0312V36.0312C92.3526 36.0312 92.6908 35.9558 92.9097 35.857L93.7323 37.68ZM91.8509 38.0312H89.777V36.0312H91.8509V38.0312ZM88.777 37.0312V25H90.777V37.0312H88.777ZM89.777 26H86.7017V24H89.777V26ZM93.6792 31.14L97.2942 24.5207L99.0495 25.4793L95.4345 32.0986L93.6792 31.14ZM98.1719 26H94.777V24H98.1719V26ZM95.659 25.4713L92.122 32.0906L90.3581 31.148L93.895 24.5287L95.659 25.4713ZM91.2401 30.6193H94.5568V32.6193H91.2401V30.6193Z" fill="white"/>
</g>
<g filter="url(#filter2_d_17_126)">
<rect x="240" y="77" width="550" height="480" fill="white"/>
<rect x="234" y="71" width="562" height="492" stroke="white" stroke-width="12" stroke-linejoin="round"/>
</g>
<path d="M349.037 162V138.727H351.855V149.091H364.264V138.727H367.082V162H364.264V151.591H351.855V162H349.037ZM379.452 162.364C377.876 162.364 376.493 161.989 375.304 161.239C374.122 160.489 373.198 159.439 372.531 158.091C371.872 156.742 371.543 155.167 371.543 153.364C371.543 151.545 371.872 149.958 372.531 148.602C373.198 147.246 374.122 146.193 375.304 145.443C376.493 144.693 377.876 144.318 379.452 144.318C381.027 144.318 382.406 144.693 383.588 145.443C384.777 146.193 385.702 147.246 386.361 148.602C387.027 149.958 387.361 151.545 387.361 153.364C387.361 155.167 387.027 156.742 386.361 158.091C385.702 159.439 384.777 160.489 383.588 161.239C382.406 161.989 381.027 162.364 379.452 162.364ZM379.452 159.955C380.649 159.955 381.634 159.648 382.406 159.034C383.179 158.42 383.751 157.614 384.122 156.614C384.493 155.614 384.679 154.53 384.679 153.364C384.679 152.197 384.493 151.11 384.122 150.102C383.751 149.095 383.179 148.28 382.406 147.659C381.634 147.038 380.649 146.727 379.452 146.727C378.255 146.727 377.27 147.038 376.497 147.659C375.724 148.28 375.152 149.095 374.781 150.102C374.41 151.11 374.224 152.197 374.224 153.364C374.224 154.53 374.41 155.614 374.781 156.614C375.152 157.614 375.724 158.42 376.497 159.034C377.27 159.648 378.255 159.955 379.452 159.955ZM394.815 162L389.497 144.545H392.315L396.088 157.909H396.27L399.997 144.545H402.861L406.543 157.864H406.724L410.497 144.545H413.315L407.997 162H405.361L401.543 148.591H401.27L397.452 162H394.815ZM432.952 162.364C431.315 162.364 429.906 161.977 428.724 161.205C427.543 160.432 426.634 159.367 425.997 158.011C425.361 156.655 425.043 155.106 425.043 153.364C425.043 151.591 425.368 150.027 426.02 148.67C426.679 147.307 427.596 146.242 428.77 145.477C429.952 144.705 431.33 144.318 432.906 144.318C434.134 144.318 435.24 144.545 436.224 145C437.209 145.455 438.016 146.091 438.645 146.909C439.274 147.727 439.664 148.682 439.815 149.773H437.134C436.929 148.977 436.474 148.273 435.77 147.659C435.073 147.038 434.134 146.727 432.952 146.727C431.906 146.727 430.99 147 430.202 147.545C429.421 148.083 428.812 148.845 428.372 149.83C427.94 150.807 427.724 151.955 427.724 153.273C427.724 154.621 427.937 155.795 428.361 156.795C428.793 157.795 429.399 158.572 430.179 159.125C430.967 159.678 431.891 159.955 432.952 159.955C433.649 159.955 434.281 159.833 434.849 159.591C435.418 159.348 435.899 159 436.293 158.545C436.687 158.091 436.967 157.545 437.134 156.909H439.815C439.664 157.939 439.289 158.867 438.69 159.693C438.099 160.511 437.315 161.163 436.338 161.648C435.368 162.125 434.24 162.364 432.952 162.364ZM448.872 162.409C447.766 162.409 446.762 162.201 445.861 161.784C444.959 161.36 444.243 160.75 443.713 159.955C443.183 159.152 442.918 158.182 442.918 157.045C442.918 156.045 443.115 155.235 443.509 154.614C443.902 153.985 444.429 153.492 445.088 153.136C445.747 152.78 446.474 152.515 447.27 152.341C448.073 152.159 448.88 152.015 449.69 151.909C450.751 151.773 451.611 151.67 452.27 151.602C452.937 151.527 453.421 151.402 453.724 151.227C454.035 151.053 454.19 150.75 454.19 150.318V150.227C454.19 149.106 453.884 148.235 453.27 147.614C452.664 146.992 451.743 146.682 450.509 146.682C449.228 146.682 448.224 146.962 447.497 147.523C446.77 148.083 446.259 148.682 445.963 149.318L443.418 148.409C443.872 147.348 444.478 146.523 445.236 145.932C446.001 145.333 446.834 144.917 447.736 144.682C448.645 144.439 449.539 144.318 450.418 144.318C450.978 144.318 451.622 144.386 452.349 144.523C453.084 144.652 453.793 144.92 454.474 145.33C455.164 145.739 455.736 146.356 456.19 147.182C456.645 148.008 456.872 149.114 456.872 150.5V162H454.19V159.636H454.054C453.872 160.015 453.569 160.42 453.145 160.852C452.721 161.284 452.156 161.652 451.452 161.955C450.747 162.258 449.887 162.409 448.872 162.409ZM449.281 160C450.342 160 451.236 159.792 451.963 159.375C452.698 158.958 453.251 158.42 453.622 157.761C454.001 157.102 454.19 156.409 454.19 155.682V153.227C454.077 153.364 453.827 153.489 453.44 153.602C453.062 153.708 452.622 153.803 452.122 153.886C451.63 153.962 451.149 154.03 450.679 154.091C450.217 154.144 449.842 154.189 449.554 154.227C448.857 154.318 448.205 154.466 447.599 154.67C447.001 154.867 446.516 155.167 446.145 155.568C445.781 155.962 445.599 156.5 445.599 157.182C445.599 158.114 445.944 158.818 446.634 159.295C447.33 159.765 448.213 160 449.281 160ZM464.449 151.5V162H461.767V144.545H464.358V147.273H464.585C464.994 146.386 465.616 145.674 466.449 145.136C467.282 144.591 468.358 144.318 469.676 144.318C470.858 144.318 471.892 144.561 472.778 145.045C473.665 145.523 474.354 146.25 474.847 147.227C475.339 148.197 475.585 149.424 475.585 150.909V162H472.903V151.091C472.903 149.72 472.547 148.652 471.835 147.886C471.123 147.114 470.146 146.727 468.903 146.727C468.047 146.727 467.282 146.913 466.608 147.284C465.941 147.655 465.415 148.197 465.028 148.909C464.642 149.621 464.449 150.485 464.449 151.5ZM493.44 162L488.122 144.545H490.94L494.713 157.909H494.895L498.622 144.545H501.486L505.168 157.864H505.349L509.122 144.545H511.94L506.622 162H503.986L500.168 148.591H499.895L496.077 162H493.44ZM522.21 162.364C520.528 162.364 519.078 161.992 517.858 161.25C516.646 160.5 515.71 159.455 515.051 158.114C514.4 156.765 514.074 155.197 514.074 153.409C514.074 151.621 514.4 150.045 515.051 148.682C515.71 147.311 516.627 146.242 517.801 145.477C518.983 144.705 520.362 144.318 521.938 144.318C522.847 144.318 523.744 144.47 524.631 144.773C525.517 145.076 526.324 145.568 527.051 146.25C527.778 146.924 528.358 147.818 528.79 148.932C529.222 150.045 529.438 151.417 529.438 153.045V154.182H515.983V151.864H526.71C526.71 150.879 526.513 150 526.119 149.227C525.733 148.455 525.18 147.845 524.46 147.398C523.748 146.951 522.907 146.727 521.938 146.727C520.869 146.727 519.945 146.992 519.165 147.523C518.392 148.045 517.797 148.727 517.381 149.568C516.964 150.409 516.756 151.311 516.756 152.273V153.818C516.756 155.136 516.983 156.254 517.438 157.17C517.9 158.08 518.54 158.773 519.358 159.25C520.176 159.72 521.127 159.955 522.21 159.955C522.915 159.955 523.551 159.856 524.119 159.659C524.695 159.455 525.191 159.152 525.608 158.75C526.025 158.341 526.347 157.833 526.574 157.227L529.165 157.955C528.892 158.833 528.434 159.606 527.79 160.273C527.146 160.932 526.35 161.447 525.403 161.818C524.456 162.182 523.392 162.364 522.21 162.364ZM545.199 151.5V162H542.517V138.727H545.199V147.273H545.426C545.835 146.371 546.449 145.655 547.267 145.125C548.093 144.587 549.191 144.318 550.562 144.318C551.752 144.318 552.794 144.557 553.688 145.034C554.581 145.504 555.275 146.227 555.767 147.205C556.267 148.174 556.517 149.409 556.517 150.909V162H553.835V151.091C553.835 149.705 553.475 148.633 552.756 147.875C552.044 147.11 551.055 146.727 549.79 146.727C548.911 146.727 548.123 146.913 547.426 147.284C546.737 147.655 546.191 148.197 545.79 148.909C545.396 149.621 545.199 150.485 545.199 151.5ZM568.741 162.364C567.06 162.364 565.609 161.992 564.389 161.25C563.177 160.5 562.241 159.455 561.582 158.114C560.931 156.765 560.605 155.197 560.605 153.409C560.605 151.621 560.931 150.045 561.582 148.682C562.241 147.311 563.158 146.242 564.332 145.477C565.514 144.705 566.893 144.318 568.469 144.318C569.378 144.318 570.276 144.47 571.162 144.773C572.048 145.076 572.855 145.568 573.582 146.25C574.31 146.924 574.889 147.818 575.321 148.932C575.753 150.045 575.969 151.417 575.969 153.045V154.182H562.514V151.864H573.241C573.241 150.879 573.045 150 572.651 149.227C572.264 148.455 571.711 147.845 570.991 147.398C570.279 146.951 569.438 146.727 568.469 146.727C567.401 146.727 566.476 146.992 565.696 147.523C564.923 148.045 564.329 148.727 563.912 149.568C563.495 150.409 563.287 151.311 563.287 152.273V153.818C563.287 155.136 563.514 156.254 563.969 157.17C564.431 158.08 565.071 158.773 565.889 159.25C566.707 159.72 567.658 159.955 568.741 159.955C569.446 159.955 570.082 159.856 570.651 159.659C571.226 159.455 571.723 159.152 572.139 158.75C572.556 158.341 572.878 157.833 573.105 157.227L575.696 157.955C575.423 158.833 574.965 159.606 574.321 160.273C573.677 160.932 572.882 161.447 571.935 161.818C570.988 162.182 569.923 162.364 568.741 162.364ZM582.73 138.727V162H580.048V138.727H582.73ZM587.642 168.545V144.545H590.233V147.318H590.551C590.748 147.015 591.021 146.629 591.369 146.159C591.725 145.682 592.233 145.258 592.892 144.886C593.559 144.508 594.46 144.318 595.597 144.318C597.066 144.318 598.362 144.686 599.483 145.42C600.604 146.155 601.479 147.197 602.108 148.545C602.737 149.894 603.051 151.485 603.051 153.318C603.051 155.167 602.737 156.769 602.108 158.125C601.479 159.473 600.608 160.519 599.494 161.261C598.381 161.996 597.097 162.364 595.642 162.364C594.521 162.364 593.623 162.178 592.949 161.807C592.275 161.428 591.756 161 591.392 160.523C591.028 160.038 590.748 159.636 590.551 159.318H590.324V168.545H587.642ZM590.278 153.273C590.278 154.591 590.472 155.754 590.858 156.761C591.244 157.761 591.809 158.545 592.551 159.114C593.294 159.674 594.203 159.955 595.278 159.955C596.4 159.955 597.335 159.659 598.085 159.068C598.843 158.47 599.411 157.667 599.79 156.659C600.176 155.644 600.369 154.515 600.369 153.273C600.369 152.045 600.18 150.939 599.801 149.955C599.43 148.962 598.866 148.178 598.108 147.602C597.358 147.019 596.415 146.727 595.278 146.727C594.188 146.727 593.271 147.004 592.528 147.557C591.786 148.102 591.225 148.867 590.847 149.852C590.468 150.83 590.278 151.97 590.278 153.273ZM617.869 168.545C617.415 168.545 617.009 168.508 616.653 168.432C616.297 168.364 616.051 168.295 615.915 168.227L616.597 165.864C617.248 166.03 617.824 166.091 618.324 166.045C618.824 166 619.267 165.777 619.653 165.375C620.047 164.981 620.407 164.341 620.733 163.455L621.233 162.091L614.778 144.545H617.688L622.506 158.455H622.688L627.506 144.545H630.415L623.006 164.545C622.672 165.447 622.259 166.193 621.767 166.784C621.275 167.383 620.703 167.826 620.051 168.114C619.407 168.402 618.68 168.545 617.869 168.545ZM640.42 162.364C638.845 162.364 637.462 161.989 636.273 161.239C635.091 160.489 634.167 159.439 633.5 158.091C632.841 156.742 632.511 155.167 632.511 153.364C632.511 151.545 632.841 149.958 633.5 148.602C634.167 147.246 635.091 146.193 636.273 145.443C637.462 144.693 638.845 144.318 640.42 144.318C641.996 144.318 643.375 144.693 644.557 145.443C645.746 146.193 646.67 147.246 647.33 148.602C647.996 149.958 648.33 151.545 648.33 153.364C648.33 155.167 647.996 156.742 647.33 158.091C646.67 159.439 645.746 160.489 644.557 161.239C643.375 161.989 641.996 162.364 640.42 162.364ZM640.42 159.955C641.617 159.955 642.602 159.648 643.375 159.034C644.148 158.42 644.72 157.614 645.091 156.614C645.462 155.614 645.648 154.53 645.648 153.364C645.648 152.197 645.462 151.11 645.091 150.102C644.72 149.095 644.148 148.28 643.375 147.659C642.602 147.038 641.617 146.727 640.42 146.727C639.223 146.727 638.239 147.038 637.466 147.659C636.693 148.28 636.121 149.095 635.75 150.102C635.379 151.11 635.193 152.197 635.193 153.364C635.193 154.53 635.379 155.614 635.75 156.614C636.121 157.614 636.693 158.42 637.466 159.034C638.239 159.648 639.223 159.955 640.42 159.955ZM663.423 154.864V144.545H666.105V162H663.423V159.045H663.241C662.832 159.932 662.196 160.686 661.332 161.307C660.469 161.92 659.378 162.227 658.06 162.227C656.969 162.227 655.999 161.989 655.151 161.511C654.302 161.027 653.635 160.299 653.151 159.33C652.666 158.352 652.423 157.121 652.423 155.636V144.545H655.105V155.455C655.105 156.727 655.461 157.742 656.173 158.5C656.893 159.258 657.81 159.636 658.923 159.636C659.59 159.636 660.268 159.466 660.957 159.125C661.654 158.784 662.238 158.261 662.707 157.557C663.185 156.852 663.423 155.955 663.423 154.864ZM674.517 155.455V155.318C674.532 153.871 674.684 152.72 674.972 151.864C675.259 151.008 675.669 150.314 676.199 149.784C676.729 149.254 677.366 148.765 678.108 148.318C678.555 148.045 678.956 147.723 679.312 147.352C679.669 146.973 679.949 146.538 680.153 146.045C680.366 145.553 680.472 145.008 680.472 144.409C680.472 143.667 680.297 143.023 679.949 142.477C679.6 141.932 679.134 141.511 678.551 141.216C677.968 140.92 677.32 140.773 676.608 140.773C675.987 140.773 675.388 140.902 674.812 141.159C674.237 141.417 673.756 141.822 673.369 142.375C672.983 142.928 672.759 143.652 672.699 144.545H669.835C669.896 143.258 670.229 142.155 670.835 141.239C671.449 140.322 672.256 139.621 673.256 139.136C674.263 138.652 675.381 138.409 676.608 138.409C677.941 138.409 679.1 138.674 680.085 139.205C681.078 139.735 681.843 140.462 682.381 141.386C682.926 142.311 683.199 143.364 683.199 144.545C683.199 145.379 683.07 146.133 682.812 146.807C682.562 147.481 682.199 148.083 681.722 148.614C681.252 149.144 680.684 149.614 680.017 150.023C679.35 150.439 678.816 150.879 678.415 151.341C678.013 151.795 677.722 152.337 677.54 152.966C677.358 153.595 677.259 154.379 677.244 155.318V155.455H674.517ZM675.972 162.182C675.411 162.182 674.93 161.981 674.528 161.58C674.127 161.178 673.926 160.697 673.926 160.136C673.926 159.576 674.127 159.095 674.528 158.693C674.93 158.292 675.411 158.091 675.972 158.091C676.532 158.091 677.013 158.292 677.415 158.693C677.816 159.095 678.017 159.576 678.017 160.136C678.017 160.508 677.922 160.848 677.733 161.159C677.551 161.47 677.305 161.72 676.994 161.909C676.691 162.091 676.35 162.182 675.972 162.182Z" fill="#293728"/>
<path d="M349.037 162H348.037C348.037 162.552 348.485 163 349.037 163V162ZM349.037 138.727V137.727C348.485 137.727 348.037 138.175 348.037 138.727H349.037ZM351.855 138.727H352.855C352.855 138.175 352.407 137.727 351.855 137.727V138.727ZM351.855 149.091H350.855C350.855 149.643 351.303 150.091 351.855 150.091V149.091ZM364.264 149.091V150.091C364.816 150.091 365.264 149.643 365.264 149.091H364.264ZM364.264 138.727V137.727C363.712 137.727 363.264 138.175 363.264 138.727H364.264ZM367.082 138.727H368.082C368.082 138.175 367.635 137.727 367.082 137.727V138.727ZM367.082 162V163C367.635 163 368.082 162.552 368.082 162H367.082ZM364.264 162H363.264C363.264 162.552 363.712 163 364.264 163V162ZM364.264 151.591H365.264C365.264 151.039 364.816 150.591 364.264 150.591V151.591ZM351.855 151.591V150.591C351.303 150.591 350.855 151.039 350.855 151.591H351.855ZM351.855 162V163C352.407 163 352.855 162.552 352.855 162H351.855ZM350.037 162V138.727H348.037V162H350.037ZM349.037 139.727H351.855V137.727H349.037V139.727ZM350.855 138.727V149.091H352.855V138.727H350.855ZM351.855 150.091H364.264V148.091H351.855V150.091ZM365.264 149.091V138.727H363.264V149.091H365.264ZM364.264 139.727H367.082V137.727H364.264V139.727ZM366.082 138.727V162H368.082V138.727H366.082ZM367.082 161H364.264V163H367.082V161ZM365.264 162V151.591H363.264V162H365.264ZM364.264 150.591H351.855V152.591H364.264V150.591ZM350.855 151.591V162H352.855V151.591H350.855ZM351.855 161H349.037V163H351.855V161ZM375.304 161.239L374.768 162.083L374.771 162.085L375.304 161.239ZM372.531 158.091L371.633 158.53L371.635 158.534L372.531 158.091ZM372.531 148.602L371.634 148.161L371.632 148.165L372.531 148.602ZM375.304 145.443L374.771 144.597L374.768 144.599L375.304 145.443ZM383.588 145.443L383.052 146.288L383.055 146.289L383.588 145.443ZM386.361 148.602L385.461 149.039L385.463 149.043L386.361 148.602ZM386.361 158.091L385.464 157.648L385.462 157.652L386.361 158.091ZM383.588 161.239L383.055 160.393L383.052 160.394L383.588 161.239ZM382.406 159.034L381.784 158.251L381.784 158.251L382.406 159.034ZM384.122 156.614L385.06 156.962L385.06 156.962L384.122 156.614ZM384.122 150.102L385.061 149.757L385.061 149.757L384.122 150.102ZM382.406 147.659L383.033 146.88L383.033 146.88L382.406 147.659ZM376.497 147.659L375.871 146.88L375.871 146.88L376.497 147.659ZM374.781 150.102L373.843 149.757L373.843 149.757L374.781 150.102ZM374.781 156.614L373.844 156.962L373.844 156.962L374.781 156.614ZM376.497 159.034L377.119 158.251L377.119 158.251L376.497 159.034ZM379.452 161.364C378.041 161.364 376.848 161.03 375.837 160.393L374.771 162.085C376.138 162.947 377.711 163.364 379.452 163.364V161.364ZM375.84 160.394C374.824 159.75 374.019 158.845 373.428 157.648L371.635 158.534C372.376 160.034 373.42 161.227 374.768 162.083L375.84 160.394ZM373.43 157.652C372.85 156.465 372.543 155.045 372.543 153.364H370.543C370.543 155.289 370.895 157.02 371.633 158.53L373.43 157.652ZM372.543 153.364C372.543 151.666 372.85 150.234 373.431 149.039L371.632 148.165C370.894 149.683 370.543 151.425 370.543 153.364H372.543ZM373.429 149.043C374.021 147.839 374.826 146.931 375.84 146.288L374.768 144.599C373.419 145.455 372.375 146.654 371.634 148.161L373.429 149.043ZM375.837 146.289C376.848 145.652 378.041 145.318 379.452 145.318V143.318C377.711 143.318 376.138 143.735 374.771 144.597L375.837 146.289ZM379.452 145.318C380.862 145.318 382.05 145.652 383.052 146.288L384.124 144.599C382.762 143.735 381.193 143.318 379.452 143.318V145.318ZM383.055 146.289C384.075 146.932 384.878 147.838 385.461 149.039L387.26 148.165C386.526 146.654 385.48 145.454 384.121 144.597L383.055 146.289ZM385.463 149.043C386.05 150.237 386.361 151.668 386.361 153.364H388.361C388.361 151.423 388.005 149.68 387.258 148.161L385.463 149.043ZM386.361 153.364C386.361 155.043 386.051 156.462 385.464 157.648L387.257 158.534C388.004 157.023 388.361 155.29 388.361 153.364H386.361ZM385.462 157.652C384.879 158.845 384.076 159.749 383.055 160.393L384.121 162.085C385.479 161.229 386.524 160.034 387.259 158.53L385.462 157.652ZM383.052 160.394C382.05 161.03 380.862 161.364 379.452 161.364V163.364C381.193 163.364 382.762 162.947 384.124 162.083L383.052 160.394ZM379.452 160.955C380.825 160.955 382.043 160.599 383.028 159.817L381.784 158.251C381.224 158.696 380.473 158.955 379.452 158.955V160.955ZM383.028 159.817C383.955 159.081 384.63 158.118 385.06 156.962L383.185 156.266C382.872 157.109 382.403 157.76 381.784 158.251L383.028 159.817ZM385.06 156.962C385.476 155.84 385.679 154.638 385.679 153.364H383.679C383.679 154.423 383.511 155.387 383.185 156.266L385.06 156.962ZM385.679 153.364C385.679 152.089 385.476 150.884 385.061 149.757L383.184 150.448C383.511 151.336 383.679 152.305 383.679 153.364H385.679ZM385.061 149.757C384.632 148.593 383.959 147.624 383.033 146.88L381.78 148.438C382.399 148.937 382.87 149.596 383.184 150.448L385.061 149.757ZM383.033 146.88C382.048 146.088 380.828 145.727 379.452 145.727V147.727C380.47 147.727 381.219 147.988 381.78 148.438L383.033 146.88ZM379.452 145.727C378.076 145.727 376.856 146.088 375.871 146.88L377.124 148.438C377.684 147.988 378.434 147.727 379.452 147.727V145.727ZM375.871 146.88C374.945 147.624 374.271 148.593 373.843 149.757L375.72 150.448C376.034 149.596 376.504 148.937 377.124 148.438L375.871 146.88ZM373.843 149.757C373.428 150.884 373.224 152.089 373.224 153.364H375.224C375.224 152.305 375.393 151.336 375.72 150.448L373.843 149.757ZM373.224 153.364C373.224 154.638 373.427 155.84 373.844 156.962L375.719 156.266C375.393 155.387 375.224 154.423 375.224 153.364H373.224ZM373.844 156.962C374.273 158.118 374.948 159.081 375.875 159.817L377.119 158.251C376.501 157.76 376.032 157.109 375.719 156.266L373.844 156.962ZM375.875 159.817C376.86 160.599 378.079 160.955 379.452 160.955V158.955C378.431 158.955 377.68 158.696 377.119 158.251L375.875 159.817ZM394.815 162L393.859 162.291C393.987 162.712 394.375 163 394.815 163V162ZM389.497 144.545V143.545C389.18 143.545 388.882 143.696 388.694 143.95C388.505 144.205 388.448 144.534 388.541 144.837L389.497 144.545ZM392.315 144.545L393.278 144.274C393.156 143.843 392.763 143.545 392.315 143.545V144.545ZM396.088 157.909L395.126 158.181C395.247 158.612 395.64 158.909 396.088 158.909V157.909ZM396.27 157.909V158.909C396.719 158.909 397.113 158.61 397.233 158.178L396.27 157.909ZM399.997 144.545V143.545C399.548 143.545 399.155 143.844 399.034 144.277L399.997 144.545ZM402.861 144.545L403.825 144.279C403.705 143.846 403.31 143.545 402.861 143.545V144.545ZM406.543 157.864L405.579 158.13C405.699 158.564 406.093 158.864 406.543 158.864V157.864ZM406.724 157.864V158.864C407.172 158.864 407.565 158.567 407.687 158.136L406.724 157.864ZM410.497 144.545V143.545C410.05 143.545 409.657 143.843 409.535 144.273L410.497 144.545ZM413.315 144.545L414.272 144.837C414.364 144.534 414.308 144.205 414.119 143.95C413.93 143.696 413.632 143.545 413.315 143.545V144.545ZM407.997 162V163C408.437 163 408.825 162.712 408.954 162.291L407.997 162ZM405.361 162L404.399 162.274C404.521 162.704 404.914 163 405.361 163V162ZM401.543 148.591L402.504 148.317C402.382 147.887 401.989 147.591 401.543 147.591V148.591ZM401.27 148.591V147.591C400.823 147.591 400.43 147.887 400.308 148.317L401.27 148.591ZM397.452 162V163C397.899 163 398.291 162.704 398.413 162.274L397.452 162ZM395.772 161.709L390.454 144.254L388.541 144.837L393.859 162.291L395.772 161.709ZM389.497 145.545H392.315V143.545H389.497V145.545ZM391.353 144.817L395.126 158.181L397.05 157.637L393.278 144.274L391.353 144.817ZM396.088 158.909H396.27V156.909H396.088V158.909ZM397.233 158.178L400.96 144.814L399.034 144.277L395.307 157.64L397.233 158.178ZM399.997 145.545H402.861V143.545H399.997V145.545ZM401.897 144.812L405.579 158.13L407.506 157.597L403.825 144.279L401.897 144.812ZM406.543 158.864H406.724V156.864H406.543V158.864ZM407.687 158.136L411.459 144.818L409.535 144.273L405.762 157.591L407.687 158.136ZM410.497 145.545H413.315V143.545H410.497V145.545ZM412.359 144.254L407.041 161.709L408.954 162.291L414.272 144.837L412.359 144.254ZM407.997 161H405.361V163H407.997V161ZM406.323 161.726L402.504 148.317L400.581 148.865L404.399 162.274L406.323 161.726ZM401.543 147.591H401.27V149.591H401.543V147.591ZM400.308 148.317L396.49 161.726L398.413 162.274L402.232 148.865L400.308 148.317ZM397.452 161H394.815V163H397.452V161ZM428.724 161.205L428.177 162.042L428.177 162.042L428.724 161.205ZM426.02 148.67L425.12 148.235L425.119 148.237L426.02 148.67ZM428.77 145.477L429.316 146.315L429.317 146.314L428.77 145.477ZM438.645 146.909L439.438 146.3L439.438 146.3L438.645 146.909ZM439.815 149.773V150.773C440.105 150.773 440.38 150.648 440.57 150.429C440.759 150.211 440.846 149.922 440.806 149.635L439.815 149.773ZM437.134 149.773L436.165 150.022C436.279 150.464 436.677 150.773 437.134 150.773V149.773ZM435.77 147.659L435.104 148.406L435.113 148.413L435.77 147.659ZM430.202 147.545L430.769 148.369L430.771 148.368L430.202 147.545ZM428.372 149.83L427.459 149.422L427.457 149.425L428.372 149.83ZM428.361 156.795L427.44 157.186L427.443 157.192L428.361 156.795ZM430.179 159.125L429.601 159.941L429.604 159.943L430.179 159.125ZM434.849 159.591L434.457 158.671L434.457 158.671L434.849 159.591ZM436.293 158.545L437.048 159.2L437.048 159.2L436.293 158.545ZM437.134 156.909V155.909C436.679 155.909 436.281 156.216 436.166 156.656L437.134 156.909ZM439.815 156.909L440.805 157.055C440.847 156.767 440.762 156.475 440.572 156.255C440.382 156.036 440.106 155.909 439.815 155.909V156.909ZM438.69 159.693L437.881 159.106L437.88 159.108L438.69 159.693ZM436.338 161.648L436.78 162.545L436.783 162.544L436.338 161.648ZM432.952 161.364C431.478 161.364 430.266 161.018 429.272 160.368L428.177 162.042C429.546 162.937 431.153 163.364 432.952 163.364V161.364ZM429.272 160.368C428.255 159.703 427.465 158.785 426.902 157.587L425.092 158.436C425.802 159.95 426.831 161.161 428.177 162.042L429.272 160.368ZM426.902 157.587C426.338 156.383 426.043 154.983 426.043 153.364H424.043C424.043 155.229 424.384 156.927 425.092 158.436L426.902 157.587ZM426.043 153.364C426.043 151.714 426.345 150.302 426.921 149.104L425.119 148.237C424.391 149.751 424.043 151.468 424.043 153.364H426.043ZM426.92 149.106C427.507 147.892 428.306 146.973 429.316 146.315L428.224 144.639C426.885 145.512 425.851 146.721 425.12 148.235L426.92 149.106ZM429.317 146.314C430.318 145.66 431.502 145.318 432.906 145.318V143.318C431.159 143.318 429.586 143.749 428.223 144.64L429.317 146.314ZM432.906 145.318C434.008 145.318 434.968 145.522 435.805 145.908L436.643 144.092C435.511 143.569 434.259 143.318 432.906 143.318V145.318ZM435.805 145.908C436.651 146.298 437.327 146.835 437.852 147.518L439.438 146.3C438.705 145.347 437.768 144.611 436.643 144.092L435.805 145.908ZM437.852 147.518C438.368 148.19 438.696 148.979 438.825 149.91L440.806 149.635C440.632 148.384 440.179 147.265 439.438 146.3L437.852 147.518ZM439.815 148.773H437.134V150.773H439.815V148.773ZM438.102 149.524C437.84 148.506 437.262 147.633 436.427 146.905L435.113 148.413C435.687 148.913 436.018 149.448 436.165 150.022L438.102 149.524ZM436.435 146.913C435.51 146.088 434.311 145.727 432.952 145.727V147.727C433.956 147.727 434.635 147.988 435.105 148.406L436.435 146.913ZM432.952 145.727C431.722 145.727 430.603 146.051 429.632 146.723L430.771 148.368C431.376 147.949 432.09 147.727 432.952 147.727V145.727ZM429.634 146.722C428.683 147.378 427.963 148.293 427.459 149.422L429.285 150.237C429.66 149.396 430.16 148.789 430.769 148.369L429.634 146.722ZM427.457 149.425C426.958 150.556 426.724 151.847 426.724 153.273H428.724C428.724 152.062 428.923 151.058 429.287 150.234L427.457 149.425ZM426.724 153.273C426.724 154.724 426.953 156.037 427.44 157.186L429.281 156.405C428.921 155.554 428.724 154.518 428.724 153.273H426.724ZM427.443 157.192C427.937 158.336 428.651 159.268 429.601 159.941L430.757 158.309C430.146 157.876 429.648 157.255 429.279 156.399L427.443 157.192ZM429.604 159.943C430.578 160.627 431.707 160.955 432.952 160.955V158.955C432.075 158.955 431.356 158.729 430.753 158.307L429.604 159.943ZM432.952 160.955C433.766 160.955 434.535 160.812 435.242 160.511L434.457 158.671C434.028 158.854 433.531 158.955 432.952 158.955V160.955ZM435.242 160.511C435.946 160.21 436.552 159.773 437.048 159.2L435.537 157.891C435.245 158.227 434.889 158.487 434.457 158.671L435.242 160.511ZM437.048 159.2C437.552 158.619 437.899 157.933 438.101 157.162L436.166 156.656C436.035 157.158 435.821 157.562 435.537 157.891L437.048 159.2ZM437.134 157.909H439.815V155.909H437.134V157.909ZM438.826 156.764C438.697 157.638 438.382 158.414 437.881 159.106L439.5 160.28C440.195 159.321 440.63 158.241 440.805 157.055L438.826 156.764ZM437.88 159.108C437.391 159.784 436.738 160.333 435.894 160.752L436.783 162.544C437.893 161.993 438.807 161.239 439.501 160.279L437.88 159.108ZM435.896 160.751C435.088 161.148 434.116 161.364 432.952 161.364V163.364C434.364 163.364 435.649 163.102 436.78 162.545L435.896 160.751ZM445.861 161.784L445.435 162.689L445.441 162.692L445.861 161.784ZM443.713 159.955L442.879 160.506L442.881 160.509L443.713 159.955ZM443.509 154.614L444.353 155.149L444.356 155.145L443.509 154.614ZM447.27 152.341L447.484 153.318L447.491 153.316L447.27 152.341ZM449.69 151.909L449.563 150.917L449.561 150.918L449.69 151.909ZM452.27 151.602L452.373 152.597L452.383 152.596L452.27 151.602ZM453.724 151.227L453.235 150.355L453.226 150.36L453.724 151.227ZM453.27 147.614L452.554 148.312L452.558 148.316L453.27 147.614ZM447.497 147.523L448.108 148.315L448.108 148.315L447.497 147.523ZM445.963 149.318L445.627 150.26C446.113 150.434 446.652 150.208 446.87 149.739L445.963 149.318ZM443.418 148.409L442.498 148.015C442.39 148.269 442.391 148.556 442.501 148.809C442.611 149.062 442.821 149.258 443.081 149.351L443.418 148.409ZM445.236 145.932L445.851 146.72L445.852 146.719L445.236 145.932ZM447.736 144.682L447.988 145.65L447.993 145.648L447.736 144.682ZM452.349 144.523L452.165 145.506L452.177 145.508L452.349 144.523ZM454.474 145.33L453.96 146.187L453.964 146.19L454.474 145.33ZM456.19 147.182L455.314 147.664L455.314 147.664L456.19 147.182ZM456.872 162V163C457.424 163 457.872 162.552 457.872 162H456.872ZM454.19 162H453.19C453.19 162.552 453.638 163 454.19 163V162ZM454.19 159.636H455.19C455.19 159.084 454.743 158.636 454.19 158.636V159.636ZM454.054 159.636V158.636C453.669 158.636 453.319 158.857 453.152 159.204L454.054 159.636ZM453.145 160.852L453.858 161.553L453.858 161.553L453.145 160.852ZM451.452 161.955L451.057 161.036L451.057 161.036L451.452 161.955ZM451.963 159.375L451.47 158.505L451.466 158.507L451.963 159.375ZM453.622 157.761L452.755 157.263L452.751 157.271L453.622 157.761ZM454.19 153.227H455.19C455.19 152.806 454.927 152.43 454.531 152.287C454.135 152.144 453.692 152.264 453.422 152.587L454.19 153.227ZM453.44 153.602L453.71 154.565L453.723 154.562L453.44 153.602ZM452.122 153.886L452.274 154.875L452.287 154.873L452.122 153.886ZM450.679 154.091L450.793 155.084L450.807 155.083L450.679 154.091ZM449.554 154.227L449.683 155.219L449.684 155.219L449.554 154.227ZM447.599 154.67L447.912 155.62L447.919 155.618L447.599 154.67ZM446.145 155.568L445.411 154.889L445.41 154.89L446.145 155.568ZM446.634 159.295L446.064 160.118L446.075 160.125L446.634 159.295ZM448.872 161.409C447.894 161.409 447.036 161.226 446.28 160.876L445.441 162.692C446.489 163.176 447.638 163.409 448.872 163.409V161.409ZM446.287 160.879C445.543 160.529 444.97 160.037 444.545 159.4L442.881 160.509C443.517 161.463 444.376 162.191 445.435 162.689L446.287 160.879ZM444.548 159.403C444.144 158.792 443.918 158.022 443.918 157.045H441.918C441.918 158.342 442.222 159.511 442.879 160.506L444.548 159.403ZM443.918 157.045C443.918 156.169 444.091 155.562 444.353 155.149L442.664 154.078C442.138 154.907 441.918 155.922 441.918 157.045H443.918ZM444.356 155.145C444.657 154.664 445.055 154.291 445.563 154.016L444.613 152.257C443.803 152.694 443.148 153.306 442.661 154.083L444.356 155.145ZM445.563 154.016C446.134 153.708 446.772 153.474 447.484 153.318L447.056 151.364C446.177 151.557 445.361 151.852 444.613 152.257L445.563 154.016ZM447.491 153.316C448.264 153.141 449.04 153.003 449.82 152.901L449.561 150.918C448.719 151.028 447.882 151.177 447.049 151.366L447.491 153.316ZM449.818 152.901C450.875 152.765 451.725 152.664 452.373 152.597L452.167 150.608C451.496 150.677 450.627 150.78 449.563 150.917L449.818 152.901ZM452.383 152.596C453.083 152.516 453.737 152.374 454.223 152.094L453.226 150.36C453.106 150.429 452.79 150.537 452.157 150.609L452.383 152.596ZM454.214 152.099C454.912 151.708 455.19 151.021 455.19 150.318H453.19C453.19 150.417 453.172 150.436 453.184 150.413C453.19 150.402 453.2 150.387 453.213 150.374C453.219 150.368 453.224 150.363 453.229 150.36C453.233 150.356 453.236 150.355 453.235 150.355L454.214 152.099ZM455.19 150.318V150.227H453.19V150.318H455.19ZM455.19 150.227C455.19 148.921 454.828 147.768 453.981 146.911L452.558 148.316C452.939 148.701 453.19 149.291 453.19 150.227H455.19ZM453.986 146.915C453.124 146.032 451.897 145.682 450.509 145.682V147.682C451.589 147.682 452.204 147.953 452.554 148.312L453.986 146.915ZM450.509 145.682C449.093 145.682 447.846 145.991 446.887 146.731L448.108 148.315C448.603 147.933 449.364 147.682 450.509 147.682V145.682ZM446.887 146.731C446.07 147.36 445.437 148.077 445.056 148.897L446.87 149.739C447.08 149.287 447.47 148.807 448.108 148.315L446.887 146.731ZM446.299 148.376L443.754 147.467L443.081 149.351L445.627 150.26L446.299 148.376ZM444.337 148.803C444.738 147.866 445.251 147.188 445.851 146.72L444.621 145.143C443.706 145.857 443.006 146.831 442.498 148.015L444.337 148.803ZM445.852 146.719C446.514 146.202 447.224 145.848 447.988 145.65L447.484 143.714C446.444 143.985 445.488 144.465 444.62 145.144L445.852 146.719ZM447.993 145.648C448.824 145.426 449.632 145.318 450.418 145.318V143.318C449.446 143.318 448.465 143.452 447.478 143.716L447.993 145.648ZM450.418 145.318C450.9 145.318 451.481 145.377 452.165 145.506L452.534 143.54C451.764 143.395 451.056 143.318 450.418 143.318V145.318ZM452.177 145.508C452.783 145.614 453.376 145.837 453.96 146.187L454.989 144.472C454.209 144.004 453.385 143.689 452.522 143.538L452.177 145.508ZM453.964 146.19C454.475 146.493 454.931 146.967 455.314 147.664L457.066 146.7C456.541 145.745 455.853 144.985 454.985 144.47L453.964 146.19ZM455.314 147.664C455.658 148.289 455.872 149.208 455.872 150.5H457.872C457.872 149.019 457.632 147.726 457.066 146.7L455.314 147.664ZM455.872 150.5V162H457.872V150.5H455.872ZM456.872 161H454.19V163H456.872V161ZM455.19 162V159.636H453.19V162H455.19ZM454.19 158.636H454.054V160.636H454.19V158.636ZM453.152 159.204C453.034 159.45 452.81 159.767 452.432 160.151L453.858 161.553C454.329 161.074 454.71 160.58 454.956 160.069L453.152 159.204ZM452.432 160.151C452.119 160.47 451.673 160.771 451.057 161.036L451.847 162.873C452.64 162.532 453.322 162.099 453.858 161.553L452.432 160.151ZM451.057 161.036C450.51 161.271 449.793 161.409 448.872 161.409V163.409C449.981 163.409 450.984 163.244 451.847 162.873L451.057 161.036ZM449.281 161C450.471 161 451.546 160.766 452.46 160.243L451.466 158.507C450.925 158.817 450.213 159 449.281 159V161ZM452.456 160.245C453.33 159.749 454.023 159.088 454.493 158.252L452.751 157.271C452.479 157.753 452.065 158.167 451.47 158.505L452.456 160.245ZM454.489 158.26C454.951 157.456 455.19 156.592 455.19 155.682H453.19C453.19 156.226 453.051 156.748 452.755 157.263L454.489 158.26ZM455.19 155.682V153.227H453.19V155.682H455.19ZM453.422 152.587C453.46 152.542 453.49 152.52 453.496 152.515C453.503 152.511 453.496 152.516 453.47 152.529C453.416 152.556 453.317 152.596 453.158 152.643L453.723 154.562C453.95 154.495 454.169 154.415 454.365 154.318C454.55 154.225 454.777 154.085 454.959 153.867L453.422 152.587ZM453.171 152.639C452.835 152.733 452.432 152.821 451.958 152.9L452.287 154.873C452.812 154.785 453.288 154.683 453.71 154.565L453.171 152.639ZM451.97 152.898C451.485 152.973 451.012 153.04 450.551 153.099L450.807 155.083C451.285 155.021 451.774 154.952 452.274 154.875L451.97 152.898ZM450.565 153.097C450.1 153.151 449.719 153.197 449.424 153.236L449.684 155.219C449.965 155.182 450.334 155.137 450.793 155.084L450.565 153.097ZM449.425 153.236C448.669 153.334 447.953 153.496 447.28 153.723L447.919 155.618C448.458 155.436 449.045 155.302 449.683 155.219L449.425 153.236ZM447.287 153.721C446.552 153.962 445.914 154.345 445.411 154.889L446.879 156.247C447.119 155.988 447.45 155.772 447.912 155.62L447.287 153.721ZM445.41 154.89C444.833 155.515 444.599 156.319 444.599 157.182H446.599C446.599 156.681 446.729 156.409 446.88 156.246L445.41 154.89ZM444.599 157.182C444.599 158.399 445.072 159.431 446.064 160.118L447.203 158.473C446.816 158.206 446.599 157.828 446.599 157.182H444.599ZM446.075 160.125C446.976 160.732 448.068 161 449.281 161V159C448.358 159 447.685 158.798 447.192 158.466L446.075 160.125ZM464.449 162V163C465.001 163 465.449 162.552 465.449 162H464.449ZM461.767 162H460.767C460.767 162.552 461.215 163 461.767 163V162ZM461.767 144.545V143.545C461.215 143.545 460.767 143.993 460.767 144.545H461.767ZM464.358 144.545H465.358C465.358 143.993 464.91 143.545 464.358 143.545V144.545ZM464.358 147.273H463.358C463.358 147.825 463.806 148.273 464.358 148.273V147.273ZM464.585 147.273V148.273C464.975 148.273 465.33 148.046 465.493 147.692L464.585 147.273ZM466.449 145.136L466.991 145.977L466.997 145.973L466.449 145.136ZM472.778 145.045L472.298 145.923L472.304 145.926L472.778 145.045ZM474.847 147.227L473.954 147.677L473.955 147.68L474.847 147.227ZM475.585 162V163C476.138 163 476.585 162.552 476.585 162H475.585ZM472.903 162H471.903C471.903 162.552 472.351 163 472.903 163V162ZM471.835 147.886L471.1 148.564L471.103 148.568L471.835 147.886ZM466.608 147.284L466.126 146.408L466.121 146.41L466.608 147.284ZM465.028 148.909L464.149 148.432L464.149 148.432L465.028 148.909ZM463.449 151.5V162H465.449V151.5H463.449ZM464.449 161H461.767V163H464.449V161ZM462.767 162V144.545H460.767V162H462.767ZM461.767 145.545H464.358V143.545H461.767V145.545ZM463.358 144.545V147.273H465.358V144.545H463.358ZM464.358 148.273H464.585V146.273H464.358V148.273ZM465.493 147.692C465.821 146.981 466.314 146.413 466.991 145.977L465.907 144.296C464.917 144.935 464.167 145.792 463.677 146.854L465.493 147.692ZM466.997 145.973C467.622 145.564 468.491 145.318 469.676 145.318V143.318C468.225 143.318 466.942 143.618 465.901 144.3L466.997 145.973ZM469.676 145.318C470.719 145.318 471.582 145.531 472.299 145.923L473.258 144.168C472.202 143.59 470.997 143.318 469.676 143.318V145.318ZM472.304 145.926C472.994 146.298 473.545 146.866 473.954 147.677L475.74 146.777C475.163 145.634 474.335 144.748 473.253 144.165L472.304 145.926ZM473.955 147.68C474.355 148.468 474.585 149.527 474.585 150.909H476.585C476.585 149.321 476.323 147.926 475.738 146.774L473.955 147.68ZM474.585 150.909V162H476.585V150.909H474.585ZM475.585 161H472.903V163H475.585V161ZM473.903 162V151.091H471.903V162H473.903ZM473.903 151.091C473.903 149.548 473.5 148.207 472.567 147.205L471.103 148.568C471.595 149.096 471.903 149.891 471.903 151.091H473.903ZM472.571 147.209C471.635 146.193 470.37 145.727 468.903 145.727V147.727C469.922 147.727 470.612 148.034 471.1 148.564L472.571 147.209ZM468.903 145.727C467.898 145.727 466.964 145.947 466.126 146.408L467.09 148.16C467.601 147.879 468.197 147.727 468.903 147.727V145.727ZM466.121 146.41C465.279 146.88 464.62 147.564 464.149 148.432L465.907 149.386C466.209 148.83 466.604 148.431 467.094 148.158L466.121 146.41ZM464.149 148.432C463.666 149.323 463.449 150.36 463.449 151.5H465.449C465.449 150.61 465.618 149.919 465.907 149.386L464.149 148.432ZM493.44 162L492.484 162.291C492.612 162.712 493 163 493.44 163V162ZM488.122 144.545V143.545C487.805 143.545 487.507 143.696 487.319 143.95C487.13 144.205 487.073 144.534 487.166 144.837L488.122 144.545ZM490.94 144.545L491.903 144.274C491.781 143.843 491.388 143.545 490.94 143.545V144.545ZM494.713 157.909L493.751 158.181C493.872 158.612 494.265 158.909 494.713 158.909V157.909ZM494.895 157.909V158.909C495.344 158.909 495.738 158.61 495.858 158.178L494.895 157.909ZM498.622 144.545V143.545C498.173 143.545 497.78 143.844 497.659 144.277L498.622 144.545ZM501.486 144.545L502.45 144.279C502.33 143.846 501.935 143.545 501.486 143.545V144.545ZM505.168 157.864L504.204 158.13C504.324 158.564 504.718 158.864 505.168 158.864V157.864ZM505.349 157.864V158.864C505.797 158.864 506.19 158.567 506.312 158.136L505.349 157.864ZM509.122 144.545V143.545C508.675 143.545 508.282 143.843 508.16 144.273L509.122 144.545ZM511.94 144.545L512.897 144.837C512.989 144.534 512.933 144.205 512.744 143.95C512.555 143.696 512.257 143.545 511.94 143.545V144.545ZM506.622 162V163C507.062 163 507.45 162.712 507.579 162.291L506.622 162ZM503.986 162L503.024 162.274C503.146 162.704 503.539 163 503.986 163V162ZM500.168 148.591L501.129 148.317C501.007 147.887 500.614 147.591 500.168 147.591V148.591ZM499.895 148.591V147.591C499.448 147.591 499.055 147.887 498.933 148.317L499.895 148.591ZM496.077 162V163C496.524 163 496.916 162.704 497.038 162.274L496.077 162ZM494.397 161.709L489.079 144.254L487.166 144.837L492.484 162.291L494.397 161.709ZM488.122 145.545H490.94V143.545H488.122V145.545ZM489.978 144.817L493.751 158.181L495.675 157.637L491.903 144.274L489.978 144.817ZM494.713 158.909H494.895V156.909H494.713V158.909ZM495.858 158.178L499.585 144.814L497.659 144.277L493.932 157.64L495.858 158.178ZM498.622 145.545H501.486V143.545H498.622V145.545ZM500.522 144.812L504.204 158.13L506.131 157.597L502.45 144.279L500.522 144.812ZM505.168 158.864H505.349V156.864H505.168V158.864ZM506.312 158.136L510.084 144.818L508.16 144.273L504.387 157.591L506.312 158.136ZM509.122 145.545H511.94V143.545H509.122V145.545ZM510.984 144.254L505.666 161.709L507.579 162.291L512.897 144.837L510.984 144.254ZM506.622 161H503.986V163H506.622V161ZM504.948 161.726L501.129 148.317L499.206 148.865L503.024 162.274L504.948 161.726ZM500.168 147.591H499.895V149.591H500.168V147.591ZM498.933 148.317L495.115 161.726L497.038 162.274L500.857 148.865L498.933 148.317ZM496.077 161H493.44V163H496.077V161ZM517.858 161.25L517.332 162.1L517.338 162.104L517.858 161.25ZM515.051 158.114L514.151 158.549L514.154 158.555L515.051 158.114ZM515.051 148.682L514.15 148.249L514.149 148.251L515.051 148.682ZM517.801 145.477L518.347 146.315L518.348 146.314L517.801 145.477ZM524.631 144.773L524.954 143.826L524.954 143.826L524.631 144.773ZM527.051 146.25L526.367 146.98L526.371 146.983L527.051 146.25ZM528.79 148.932L529.722 148.57L529.722 148.57L528.79 148.932ZM529.438 154.182V155.182C529.99 155.182 530.438 154.734 530.438 154.182H529.438ZM515.983 154.182H514.983C514.983 154.734 515.431 155.182 515.983 155.182V154.182ZM515.983 151.864V150.864C515.431 150.864 514.983 151.311 514.983 151.864H515.983ZM526.71 151.864V152.864C527.263 152.864 527.71 152.416 527.71 151.864H526.71ZM526.119 149.227L525.225 149.674L525.228 149.681L526.119 149.227ZM524.46 147.398L523.929 148.245L523.933 148.247L524.46 147.398ZM519.165 147.523L519.725 148.351L519.727 148.35L519.165 147.523ZM517.381 149.568L516.485 149.124L516.485 149.124L517.381 149.568ZM517.438 157.17L516.542 157.615L516.546 157.624L517.438 157.17ZM519.358 159.25L518.854 160.114L518.86 160.117L519.358 159.25ZM524.119 159.659L524.447 160.604L524.454 160.601L524.119 159.659ZM525.608 158.75L526.302 159.47L526.309 159.464L525.608 158.75ZM526.574 157.227L526.844 156.264C526.344 156.124 525.82 156.39 525.638 156.876L526.574 157.227ZM529.165 157.955L530.12 158.251C530.2 157.993 530.172 157.714 530.043 157.477C529.914 157.24 529.695 157.065 529.435 156.992L529.165 157.955ZM527.79 160.273L528.505 160.972L528.509 160.967L527.79 160.273ZM525.403 161.818L525.762 162.752L525.768 162.749L525.403 161.818ZM522.21 161.364C520.679 161.364 519.415 161.027 518.378 160.396L517.338 162.104C518.74 162.958 520.378 163.364 522.21 163.364V161.364ZM518.384 160.4C517.34 159.753 516.529 158.853 515.949 157.673L514.154 158.555C514.891 160.056 515.952 161.247 517.332 162.1L518.384 160.4ZM515.952 157.679C515.377 156.49 515.074 155.075 515.074 153.409H513.074C513.074 155.319 513.422 157.041 514.151 158.549L515.952 157.679ZM515.074 153.409C515.074 151.743 515.377 150.319 515.953 149.113L514.149 148.251C513.422 149.771 513.074 151.499 513.074 153.409H515.074ZM515.952 149.115C516.539 147.894 517.339 146.972 518.347 146.315L517.255 144.639C515.915 145.513 514.881 146.727 514.15 148.249L515.952 149.115ZM518.348 146.314C519.349 145.66 520.533 145.318 521.938 145.318V143.318C520.191 143.318 518.617 143.749 517.254 144.64L518.348 146.314ZM521.938 145.318C522.733 145.318 523.522 145.45 524.307 145.719L524.954 143.826C523.967 143.489 522.96 143.318 521.938 143.318V145.318ZM524.307 145.719C525.051 145.973 525.737 146.388 526.367 146.98L527.735 145.52C526.911 144.748 525.983 144.178 524.954 143.826L524.307 145.719ZM526.371 146.983C526.967 147.535 527.469 148.293 527.857 149.293L529.722 148.57C529.247 147.344 528.59 146.313 527.731 145.517L526.371 146.983ZM527.857 149.293C528.232 150.258 528.438 151.498 528.438 153.045H530.438C530.438 151.335 530.212 149.833 529.722 148.57L527.857 149.293ZM528.438 153.045V154.182H530.438V153.045H528.438ZM529.438 153.182H515.983V155.182H529.438V153.182ZM516.983 154.182V151.864H514.983V154.182H516.983ZM515.983 152.864H526.71V150.864H515.983V152.864ZM527.71 151.864C527.71 150.742 527.485 149.704 527.01 148.773L525.228 149.681C525.541 150.296 525.71 151.015 525.71 151.864H527.71ZM527.014 148.78C526.546 147.845 525.868 147.095 524.988 146.548L523.933 148.247C524.492 148.595 524.92 149.064 525.225 149.674L527.014 148.78ZM524.992 146.551C524.097 145.989 523.066 145.727 521.938 145.727V147.727C522.749 147.727 523.399 147.912 523.929 148.245L524.992 146.551ZM521.938 145.727C520.696 145.727 519.57 146.038 518.603 146.696L519.727 148.35C520.32 147.947 521.042 147.727 521.938 147.727V145.727ZM518.604 146.694C517.688 147.315 516.978 148.129 516.485 149.124L518.277 150.012C518.617 149.325 519.097 148.776 519.725 148.351L518.604 146.694ZM516.485 149.124C515.998 150.107 515.756 151.161 515.756 152.273H517.756C517.756 151.461 517.93 150.712 518.277 150.012L516.485 149.124ZM515.756 152.273V153.818H517.756V152.273H515.756ZM515.756 153.818C515.756 155.248 516.002 156.526 516.542 157.615L518.333 156.726C517.964 155.982 517.756 155.025 517.756 153.818H515.756ZM516.546 157.624C517.088 158.69 517.857 159.532 518.854 160.114L519.862 158.386C519.222 158.013 518.711 157.469 518.329 156.717L516.546 157.624ZM518.86 160.117C519.851 160.686 520.978 160.955 522.21 160.955V158.955C521.275 158.955 520.501 158.753 519.856 158.383L518.86 160.117ZM522.21 160.955C523.008 160.955 523.757 160.843 524.447 160.604L523.792 158.714C523.345 158.869 522.822 158.955 522.21 158.955V160.955ZM524.454 160.601C525.156 160.352 525.777 159.976 526.302 159.47L524.914 158.03C524.606 158.327 524.234 158.557 523.785 158.717L524.454 160.601ZM526.309 159.464C526.84 158.942 527.237 158.306 527.51 157.578L525.638 156.876C525.456 157.361 525.209 157.74 524.907 158.036L526.309 159.464ZM526.304 158.19L528.895 158.917L529.435 156.992L526.844 156.264L526.304 158.19ZM528.21 157.658C527.984 158.386 527.607 159.023 527.071 159.578L528.509 160.967C529.261 160.189 529.8 159.28 530.12 158.251L528.21 157.658ZM527.074 159.574C526.539 160.122 525.867 160.562 525.038 160.887L525.768 162.749C526.833 162.332 527.752 161.742 528.505 160.972L527.074 159.574ZM525.045 160.885C524.23 161.198 523.289 161.364 522.21 161.364V163.364C523.495 163.364 524.683 163.166 525.762 162.752L525.045 160.885ZM545.199 162V163C545.751 163 546.199 162.552 546.199 162H545.199ZM542.517 162H541.517C541.517 162.552 541.965 163 542.517 163V162ZM542.517 138.727V137.727C541.965 137.727 541.517 138.175 541.517 138.727H542.517ZM545.199 138.727H546.199C546.199 138.175 545.751 137.727 545.199 137.727V138.727ZM545.199 147.273H544.199C544.199 147.825 544.647 148.273 545.199 148.273V147.273ZM545.426 147.273V148.273C545.819 148.273 546.175 148.043 546.337 147.686L545.426 147.273ZM547.267 145.125L547.811 145.964L547.813 145.963L547.267 145.125ZM553.688 145.034L553.217 145.916L553.222 145.919L553.688 145.034ZM555.767 147.205L554.874 147.655L554.878 147.663L555.767 147.205ZM556.517 162V163C557.069 163 557.517 162.552 557.517 162H556.517ZM553.835 162H552.835C552.835 162.552 553.283 163 553.835 163V162ZM552.756 147.875L552.024 148.556L552.031 148.564L552.756 147.875ZM547.426 147.284L546.956 146.401L546.952 146.404L547.426 147.284ZM545.79 148.909L544.919 148.418L544.915 148.425L545.79 148.909ZM544.199 151.5V162H546.199V151.5H544.199ZM545.199 161H542.517V163H545.199V161ZM543.517 162V138.727H541.517V162H543.517ZM542.517 139.727H545.199V137.727H542.517V139.727ZM544.199 138.727V147.273H546.199V138.727H544.199ZM545.199 148.273H545.426V146.273H545.199V148.273ZM546.337 147.686C546.668 146.956 547.156 146.389 547.811 145.964L546.723 144.286C545.742 144.922 545.002 145.787 544.516 146.86L546.337 147.686ZM547.813 145.963C548.424 145.565 549.312 145.318 550.562 145.318V143.318C549.071 143.318 547.761 143.61 546.721 144.287L547.813 145.963ZM550.562 145.318C551.616 145.318 552.491 145.529 553.217 145.916L554.158 144.152C553.096 143.585 551.888 143.318 550.562 143.318V145.318ZM553.222 145.919C553.916 146.284 554.467 146.847 554.874 147.655L556.66 146.755C556.082 145.608 555.247 144.724 554.153 144.149L553.222 145.919ZM554.878 147.663C555.283 148.448 555.517 149.512 555.517 150.909H557.517C557.517 149.306 557.251 147.901 556.656 146.746L554.878 147.663ZM555.517 150.909V162H557.517V150.909H555.517ZM556.517 161H553.835V163H556.517V161ZM554.835 162V151.091H552.835V162H554.835ZM554.835 151.091C554.835 149.534 554.428 148.184 553.481 147.186L552.031 148.564C552.522 149.081 552.835 149.875 552.835 151.091H554.835ZM553.488 147.194C552.547 146.183 551.27 145.727 549.79 145.727V147.727C550.84 147.727 551.54 148.036 552.024 148.556L553.488 147.194ZM549.79 145.727C548.766 145.727 547.813 145.945 546.956 146.401L547.896 148.167C548.433 147.881 549.056 147.727 549.79 147.727V145.727ZM546.952 146.404C546.089 146.869 545.409 147.549 544.919 148.418L546.661 149.4C546.974 148.845 547.385 148.442 547.9 148.165L546.952 146.404ZM544.915 148.425C544.421 149.318 544.199 150.357 544.199 151.5H546.199C546.199 150.613 546.371 149.925 546.665 149.393L544.915 148.425ZM564.389 161.25L563.863 162.1L563.869 162.104L564.389 161.25ZM561.582 158.114L560.682 158.549L560.685 158.555L561.582 158.114ZM561.582 148.682L560.681 148.249L560.68 148.251L561.582 148.682ZM564.332 145.477L564.878 146.315L564.88 146.314L564.332 145.477ZM571.162 144.773L571.485 143.826L571.485 143.826L571.162 144.773ZM573.582 146.25L572.898 146.98L572.903 146.983L573.582 146.25ZM575.321 148.932L576.253 148.57L576.253 148.57L575.321 148.932ZM575.969 154.182V155.182C576.521 155.182 576.969 154.734 576.969 154.182H575.969ZM562.514 154.182H561.514C561.514 154.734 561.962 155.182 562.514 155.182V154.182ZM562.514 151.864V150.864C561.962 150.864 561.514 151.311 561.514 151.864H562.514ZM573.241 151.864V152.864C573.794 152.864 574.241 152.416 574.241 151.864H573.241ZM572.651 149.227L571.756 149.674L571.76 149.681L572.651 149.227ZM570.991 147.398L570.46 148.245L570.464 148.247L570.991 147.398ZM565.696 147.523L566.256 148.351L566.258 148.35L565.696 147.523ZM563.912 149.568L563.016 149.124L563.016 149.124L563.912 149.568ZM563.969 157.17L563.073 157.615L563.077 157.624L563.969 157.17ZM565.889 159.25L565.385 160.114L565.391 160.117L565.889 159.25ZM570.651 159.659L570.978 160.604L570.985 160.601L570.651 159.659ZM572.139 158.75L572.833 159.47L572.84 159.464L572.139 158.75ZM573.105 157.227L573.375 156.264C572.875 156.124 572.351 156.39 572.169 156.876L573.105 157.227ZM575.696 157.955L576.651 158.251C576.731 157.993 576.703 157.714 576.575 157.477C576.446 157.24 576.226 157.065 575.966 156.992L575.696 157.955ZM574.321 160.273L575.036 160.972L575.04 160.967L574.321 160.273ZM571.935 161.818L572.293 162.752L572.3 162.749L571.935 161.818ZM568.741 161.364C567.21 161.364 565.946 161.027 564.909 160.396L563.869 162.104C565.272 162.958 566.909 163.364 568.741 163.364V161.364ZM564.915 160.4C563.871 159.753 563.06 158.853 562.48 157.673L560.685 158.555C561.423 160.056 562.483 161.247 563.863 162.1L564.915 160.4ZM562.483 157.679C561.908 156.49 561.605 155.075 561.605 153.409H559.605C559.605 155.319 559.953 157.041 560.682 158.549L562.483 157.679ZM561.605 153.409C561.605 151.743 561.908 150.319 562.485 149.113L560.68 148.251C559.954 149.771 559.605 151.499 559.605 153.409H561.605ZM562.484 149.115C563.071 147.894 563.87 146.972 564.878 146.315L563.786 144.639C562.446 145.513 561.412 146.727 560.681 148.249L562.484 149.115ZM564.88 146.314C565.88 145.66 567.064 145.318 568.469 145.318V143.318C566.722 143.318 565.148 143.749 563.785 144.64L564.88 146.314ZM568.469 145.318C569.264 145.318 570.053 145.45 570.838 145.719L571.485 143.826C570.498 143.489 569.491 143.318 568.469 143.318V145.318ZM570.838 145.719C571.582 145.973 572.268 146.388 572.898 146.98L574.266 145.52C573.442 144.748 572.514 144.178 571.485 143.826L570.838 145.719ZM572.903 146.983C573.498 147.535 574.001 148.293 574.389 149.293L576.253 148.57C575.778 147.344 575.121 146.313 574.262 145.517L572.903 146.983ZM574.389 149.293C574.763 150.258 574.969 151.498 574.969 153.045H576.969C576.969 151.335 576.743 149.833 576.253 148.57L574.389 149.293ZM574.969 153.045V154.182H576.969V153.045H574.969ZM575.969 153.182H562.514V155.182H575.969V153.182ZM563.514 154.182V151.864H561.514V154.182H563.514ZM562.514 152.864H573.241V150.864H562.514V152.864ZM574.241 151.864C574.241 150.742 574.016 149.704 573.541 148.773L571.76 149.681C572.073 150.296 572.241 151.015 572.241 151.864H574.241ZM573.545 148.78C573.078 147.845 572.399 147.095 571.519 146.548L570.464 148.247C571.023 148.595 571.451 149.064 571.756 149.674L573.545 148.78ZM571.523 146.551C570.628 145.989 569.597 145.727 568.469 145.727V147.727C569.28 147.727 569.93 147.912 570.46 148.245L571.523 146.551ZM568.469 145.727C567.228 145.727 566.101 146.038 565.134 146.696L566.258 148.35C566.851 147.947 567.574 147.727 568.469 147.727V145.727ZM565.136 146.694C564.219 147.315 563.509 148.129 563.016 149.124L564.808 150.012C565.148 149.325 565.628 148.776 566.256 148.351L565.136 146.694ZM563.016 149.124C562.529 150.107 562.287 151.161 562.287 152.273H564.287C564.287 151.461 564.461 150.712 564.808 150.012L563.016 149.124ZM562.287 152.273V153.818H564.287V152.273H562.287ZM562.287 153.818C562.287 155.248 562.533 156.526 563.073 157.615L564.865 156.726C564.495 155.982 564.287 155.025 564.287 153.818H562.287ZM563.077 157.624C563.62 158.69 564.388 159.532 565.385 160.114L566.393 158.386C565.754 158.013 565.242 157.469 564.86 156.717L563.077 157.624ZM565.391 160.117C566.382 160.686 567.51 160.955 568.741 160.955V158.955C567.807 158.955 567.032 158.753 566.387 158.383L565.391 160.117ZM568.741 160.955C569.539 160.955 570.288 160.843 570.978 160.604L570.323 158.714C569.877 158.869 569.353 158.955 568.741 158.955V160.955ZM570.985 160.601C571.688 160.352 572.308 159.976 572.833 159.47L571.445 158.03C571.137 158.327 570.765 158.557 570.316 158.717L570.985 160.601ZM572.84 159.464C573.371 158.942 573.769 158.306 574.041 157.578L572.169 156.876C571.987 157.361 571.74 157.74 571.439 158.036L572.84 159.464ZM572.835 158.19L575.426 158.917L575.966 156.992L573.375 156.264L572.835 158.19ZM574.741 157.658C574.515 158.386 574.138 159.023 573.602 159.578L575.04 160.967C575.792 160.189 576.332 159.28 576.651 158.251L574.741 157.658ZM573.606 159.574C573.071 160.122 572.399 160.562 571.57 160.887L572.3 162.749C573.365 162.332 574.283 161.742 575.036 160.972L573.606 159.574ZM571.576 160.885C570.761 161.198 569.821 161.364 568.741 161.364V163.364C570.026 163.364 571.215 163.166 572.293 162.752L571.576 160.885ZM582.73 138.727H583.73C583.73 138.175 583.282 137.727 582.73 137.727V138.727ZM582.73 162V163C583.282 163 583.73 162.552 583.73 162H582.73ZM580.048 162H579.048C579.048 162.552 579.496 163 580.048 163V162ZM580.048 138.727V137.727C579.496 137.727 579.048 138.175 579.048 138.727H580.048ZM581.73 138.727V162H583.73V138.727H581.73ZM582.73 161H580.048V163H582.73V161ZM581.048 162V138.727H579.048V162H581.048ZM580.048 139.727H582.73V137.727H580.048V139.727ZM587.642 168.545H586.642C586.642 169.098 587.09 169.545 587.642 169.545V168.545ZM587.642 144.545V143.545C587.09 143.545 586.642 143.993 586.642 144.545H587.642ZM590.233 144.545H591.233C591.233 143.993 590.785 143.545 590.233 143.545V144.545ZM590.233 147.318H589.233C589.233 147.87 589.681 148.318 590.233 148.318V147.318ZM590.551 147.318V148.318C590.89 148.318 591.205 148.147 591.39 147.863L590.551 147.318ZM591.369 146.159L590.568 145.561L590.566 145.563L591.369 146.159ZM592.892 144.886L593.383 145.758L593.386 145.756L592.892 144.886ZM599.483 145.42L600.031 144.584L600.031 144.584L599.483 145.42ZM602.108 148.545L603.014 148.123L603.014 148.123L602.108 148.545ZM602.108 158.125L603.014 158.548L603.015 158.546L602.108 158.125ZM599.494 161.261L600.045 162.096L600.049 162.093L599.494 161.261ZM592.949 161.807L592.459 162.679L592.467 162.683L592.949 161.807ZM591.392 160.523L590.592 161.123L590.597 161.129L591.392 160.523ZM590.551 159.318L591.401 158.792C591.219 158.497 590.897 158.318 590.551 158.318V159.318ZM590.324 159.318V158.318C589.772 158.318 589.324 158.766 589.324 159.318H590.324ZM590.324 168.545V169.545C590.876 169.545 591.324 169.098 591.324 168.545H590.324ZM590.858 156.761L589.924 157.119L589.925 157.122L590.858 156.761ZM592.551 159.114L591.943 159.908L591.949 159.912L592.551 159.114ZM598.085 159.068L598.704 159.854L598.705 159.853L598.085 159.068ZM599.79 156.659L598.855 156.303L598.854 156.307L599.79 156.659ZM599.801 149.955L598.864 150.305L598.868 150.314L599.801 149.955ZM598.108 147.602L597.494 148.392L597.503 148.398L598.108 147.602ZM592.528 147.557L593.12 148.363L593.126 148.359L592.528 147.557ZM590.847 149.852L591.779 150.214L591.78 150.211L590.847 149.852ZM588.642 168.545V144.545H586.642V168.545H588.642ZM587.642 145.545H590.233V143.545H587.642V145.545ZM589.233 144.545V147.318H591.233V144.545H589.233ZM590.233 148.318H590.551V146.318H590.233V148.318ZM591.39 147.863C591.571 147.585 591.83 147.217 592.172 146.755L590.566 145.563C590.212 146.041 589.926 146.446 589.713 146.773L591.39 147.863ZM592.171 146.757C592.424 146.417 592.814 146.078 593.383 145.758L592.401 144.015C591.652 144.437 591.027 144.946 590.568 145.561L592.171 146.757ZM593.386 145.756C593.847 145.494 594.556 145.318 595.597 145.318V143.318C594.365 143.318 593.271 143.521 592.398 144.017L593.386 145.756ZM595.597 145.318C596.891 145.318 597.992 145.639 598.935 146.257L600.031 144.584C598.731 143.732 597.242 143.318 595.597 143.318V145.318ZM598.935 146.257C599.884 146.879 600.643 147.769 601.202 148.968L603.014 148.123C602.316 146.625 601.325 145.432 600.031 144.584L598.935 146.257ZM601.202 148.968C601.756 150.157 602.051 151.598 602.051 153.318H604.051C604.051 151.372 603.717 149.631 603.014 148.123L601.202 148.968ZM602.051 153.318C602.051 155.055 601.756 156.507 601.201 157.704L603.015 158.546C603.718 157.03 604.051 155.278 604.051 153.318H602.051ZM601.202 157.702C600.641 158.904 599.884 159.8 598.94 160.429L600.049 162.093C601.332 161.238 602.317 160.043 603.014 158.548L601.202 157.702ZM598.944 160.427C598.008 161.044 596.919 161.364 595.642 161.364V163.364C597.274 163.364 598.753 162.948 600.045 162.096L598.944 160.427ZM595.642 161.364C594.618 161.364 593.905 161.192 593.431 160.931L592.467 162.683C593.341 163.164 594.424 163.364 595.642 163.364V161.364ZM593.439 160.935C592.85 160.605 592.448 160.259 592.187 159.917L590.597 161.129C591.063 161.741 591.699 162.252 592.459 162.679L593.439 160.935ZM592.192 159.923C591.837 159.449 591.576 159.074 591.401 158.792L589.701 159.845C589.92 160.199 590.22 160.627 590.592 161.123L592.192 159.923ZM590.551 158.318H590.324V160.318H590.551V158.318ZM589.324 159.318V168.545H591.324V159.318H589.324ZM590.324 167.545H587.642V169.545H590.324V167.545ZM589.278 153.273C589.278 154.687 589.486 155.975 589.924 157.119L591.792 156.403C591.458 155.532 591.278 154.495 591.278 153.273H589.278ZM589.925 157.122C590.368 158.268 591.034 159.212 591.943 159.908L593.159 158.32C592.583 157.879 592.121 157.255 591.791 156.401L589.925 157.122ZM591.949 159.912C592.891 160.623 594.021 160.955 595.278 160.955V158.955C594.385 158.955 593.696 158.725 593.154 158.316L591.949 159.912ZM595.278 160.955C596.583 160.955 597.748 160.607 598.704 159.854L597.466 158.283C596.922 158.711 596.216 158.955 595.278 158.955V160.955ZM598.705 159.853C599.621 159.129 600.291 158.169 600.726 157.011L598.854 156.307C598.531 157.165 598.064 157.81 597.465 158.284L598.705 159.853ZM600.724 157.015C601.16 155.871 601.369 154.619 601.369 153.273H599.369C599.369 154.411 599.193 155.417 598.855 156.303L600.724 157.015ZM601.369 153.273C601.369 151.942 601.164 150.712 600.734 149.596L598.868 150.314C599.196 151.167 599.369 152.148 599.369 153.273H601.369ZM600.738 149.604C600.308 148.456 599.638 147.509 598.713 146.806L597.503 148.398C598.093 148.847 598.552 149.469 598.865 150.305L600.738 149.604ZM598.722 146.813C597.764 146.068 596.592 145.727 595.278 145.727V147.727C596.237 147.727 596.952 147.97 597.494 148.392L598.722 146.813ZM595.278 145.727C594.012 145.727 592.875 146.051 591.931 146.755L593.126 148.359C593.666 147.956 594.363 147.727 595.278 147.727V145.727ZM591.936 146.751C591.018 147.425 590.35 148.357 589.913 149.493L591.78 150.211C592.1 149.378 592.554 148.779 593.12 148.363L591.936 146.751ZM589.914 149.491C589.481 150.608 589.278 151.875 589.278 153.273H591.278C591.278 152.064 591.454 151.051 591.779 150.214L589.914 149.491ZM616.653 168.432L616.862 167.454C616.855 167.452 616.848 167.451 616.841 167.45L616.653 168.432ZM615.915 168.227L614.954 167.95C614.82 168.413 615.036 168.906 615.468 169.122L615.915 168.227ZM616.597 165.864L616.844 164.895C616.321 164.761 615.786 165.067 615.636 165.586L616.597 165.864ZM618.324 166.045L618.233 165.05L618.233 165.05L618.324 166.045ZM619.653 165.375L618.946 164.668C618.942 164.672 618.937 164.677 618.933 164.682L619.653 165.375ZM620.733 163.455L621.672 163.8L621.672 163.799L620.733 163.455ZM621.233 162.091L622.172 162.435C622.253 162.213 622.253 161.968 622.171 161.746L621.233 162.091ZM614.778 144.545V143.545C614.452 143.545 614.145 143.705 613.958 143.973C613.771 144.241 613.727 144.584 613.84 144.891L614.778 144.545ZM617.688 144.545L618.632 144.218C618.493 143.815 618.114 143.545 617.688 143.545V144.545ZM622.506 158.455L621.561 158.782C621.7 159.185 622.08 159.455 622.506 159.455V158.455ZM622.688 158.455V159.455C623.114 159.455 623.493 159.185 623.632 158.782L622.688 158.455ZM627.506 144.545V143.545C627.08 143.545 626.7 143.815 626.561 144.218L627.506 144.545ZM630.415 144.545L631.352 144.893C631.466 144.586 631.423 144.243 631.236 143.974C631.049 143.706 630.742 143.545 630.415 143.545V144.545ZM623.006 164.545L622.068 164.198L622.068 164.199L623.006 164.545ZM621.767 166.784L620.999 166.144L620.995 166.149L621.767 166.784ZM620.051 168.114L619.647 167.199L619.643 167.201L620.051 168.114ZM617.869 167.545C617.468 167.545 617.135 167.512 616.862 167.454L616.445 169.41C616.884 169.503 617.361 169.545 617.869 169.545V167.545ZM616.841 167.45C616.68 167.419 616.557 167.39 616.469 167.366C616.372 167.339 616.347 167.325 616.362 167.333L615.468 169.122C615.74 169.258 616.109 169.346 616.465 169.414L616.841 167.45ZM616.876 168.504L617.557 166.141L615.636 165.586L614.954 167.95L616.876 168.504ZM616.349 166.832C617.076 167.018 617.77 167.1 618.414 167.041L618.233 165.05C617.878 165.082 617.421 165.042 616.844 164.895L616.349 166.832ZM618.414 167.041C619.181 166.972 619.84 166.623 620.374 166.068L618.933 164.682C618.694 164.93 618.467 165.028 618.233 165.05L618.414 167.041ZM620.361 166.082C620.905 165.538 621.326 164.74 621.672 163.8L619.794 163.11C619.488 163.942 619.19 164.424 618.946 164.668L620.361 166.082ZM621.672 163.799L622.172 162.435L620.294 161.747L619.794 163.11L621.672 163.799ZM622.171 161.746L615.717 144.2L613.84 144.891L620.294 162.436L622.171 161.746ZM614.778 145.545H617.688V143.545H614.778V145.545ZM616.743 144.873L621.561 158.782L623.451 158.127L618.632 144.218L616.743 144.873ZM622.506 159.455H622.688V157.455H622.506V159.455ZM623.632 158.782L628.451 144.873L626.561 144.218L621.743 158.127L623.632 158.782ZM627.506 145.545H630.415V143.545H627.506V145.545ZM629.477 144.198L622.068 164.198L623.943 164.893L631.352 144.893L629.477 144.198ZM622.068 164.199C621.764 165.019 621.403 165.659 620.999 166.144L622.535 167.424C623.116 166.727 623.58 165.875 623.944 164.892L622.068 164.199ZM620.995 166.149C620.593 166.637 620.143 166.98 619.647 167.199L620.455 169.028C621.262 168.672 621.957 168.128 622.539 167.419L620.995 166.149ZM619.643 167.201C619.145 167.423 618.56 167.545 617.869 167.545V169.545C618.8 169.545 619.669 169.38 620.459 169.027L619.643 167.201ZM636.273 161.239L635.737 162.083L635.739 162.085L636.273 161.239ZM633.5 158.091L632.602 158.53L632.604 158.534L633.5 158.091ZM633.5 148.602L632.603 148.161L632.601 148.165L633.5 148.602ZM636.273 145.443L635.739 144.597L635.737 144.599L636.273 145.443ZM644.557 145.443L644.021 146.288L644.023 146.289L644.557 145.443ZM647.33 148.602L646.43 149.039L646.432 149.043L647.33 148.602ZM647.33 158.091L646.433 157.648L646.431 157.652L647.33 158.091ZM644.557 161.239L644.023 160.393L644.021 160.394L644.557 161.239ZM643.375 159.034L642.753 158.251L642.753 158.251L643.375 159.034ZM645.091 156.614L646.028 156.962L646.028 156.962L645.091 156.614ZM645.091 150.102L646.029 149.757L646.029 149.757L645.091 150.102ZM643.375 147.659L644.002 146.88L644.002 146.88L643.375 147.659ZM637.466 147.659L636.839 146.88L636.839 146.88L637.466 147.659ZM635.75 150.102L634.812 149.757L634.812 149.757L635.75 150.102ZM635.75 156.614L634.813 156.962L634.813 156.962L635.75 156.614ZM637.466 159.034L638.088 158.251L638.088 158.251L637.466 159.034ZM640.42 161.364C639.01 161.364 637.817 161.03 636.806 160.393L635.739 162.085C637.107 162.947 638.679 163.364 640.42 163.364V161.364ZM636.809 160.394C635.793 159.75 634.988 158.845 634.396 157.648L632.604 158.534C633.345 160.034 634.389 161.227 635.737 162.083L636.809 160.394ZM634.398 157.652C633.818 156.465 633.511 155.045 633.511 153.364H631.511C631.511 155.289 631.864 157.02 632.602 158.53L634.398 157.652ZM633.511 153.364C633.511 151.666 633.819 150.234 634.399 149.039L632.601 148.165C631.863 149.683 631.511 151.425 631.511 153.364H633.511ZM634.397 149.043C634.99 147.839 635.794 146.931 636.809 146.288L635.737 144.599C634.387 145.455 633.344 146.654 632.603 148.161L634.397 149.043ZM636.806 146.289C637.817 145.652 639.01 145.318 640.42 145.318V143.318C638.679 143.318 637.107 143.735 635.739 144.597L636.806 146.289ZM640.42 145.318C641.831 145.318 643.019 145.652 644.021 146.288L645.093 144.599C643.731 143.735 642.161 143.318 640.42 143.318V145.318ZM644.023 146.289C645.044 146.932 645.846 147.838 646.43 149.039L648.229 148.165C647.494 146.654 646.449 145.454 645.09 144.597L644.023 146.289ZM646.432 149.043C647.019 150.237 647.33 151.668 647.33 153.364H649.33C649.33 151.423 648.973 149.68 648.227 148.161L646.432 149.043ZM647.33 153.364C647.33 155.043 647.019 156.462 646.433 157.648L648.226 158.534C648.973 157.023 649.33 155.29 649.33 153.364H647.33ZM646.431 157.652C645.848 158.845 645.045 159.749 644.023 160.393L645.09 162.085C646.447 161.229 647.493 160.034 648.228 158.53L646.431 157.652ZM644.021 160.394C643.019 161.03 641.831 161.364 640.42 161.364V163.364C642.161 163.364 643.731 162.947 645.093 162.083L644.021 160.394ZM640.42 160.955C641.794 160.955 643.012 160.599 643.997 159.817L642.753 158.251C642.193 158.696 641.441 158.955 640.42 158.955V160.955ZM643.997 159.817C644.924 159.081 645.599 158.118 646.028 156.962L644.153 156.266C643.84 157.109 643.371 157.76 642.753 158.251L643.997 159.817ZM646.028 156.962C646.445 155.84 646.648 154.638 646.648 153.364H644.648C644.648 154.423 644.48 155.387 644.153 156.266L646.028 156.962ZM646.648 153.364C646.648 152.089 646.445 150.884 646.029 149.757L644.153 150.448C644.48 151.336 644.648 152.305 644.648 153.364H646.648ZM646.029 149.757C645.601 148.593 644.927 147.624 644.002 146.88L642.748 148.438C643.368 148.937 643.839 149.596 644.153 150.448L646.029 149.757ZM644.002 146.88C643.017 146.088 641.796 145.727 640.42 145.727V147.727C641.438 147.727 642.188 147.988 642.748 148.438L644.002 146.88ZM640.42 145.727C639.045 145.727 637.824 146.088 636.839 146.88L638.092 148.438C638.653 147.988 639.402 147.727 640.42 147.727V145.727ZM636.839 146.88C635.914 147.624 635.24 148.593 634.812 149.757L636.688 150.448C637.002 149.596 637.473 148.937 638.092 148.438L636.839 146.88ZM634.812 149.757C634.396 150.884 634.193 152.089 634.193 153.364H636.193C636.193 152.305 636.361 151.336 636.688 150.448L634.812 149.757ZM634.193 153.364C634.193 154.638 634.396 155.84 634.813 156.962L636.687 156.266C636.361 155.387 636.193 154.423 636.193 153.364H634.193ZM634.813 156.962C635.242 158.118 635.917 159.081 636.844 159.817L638.088 158.251C637.47 157.76 637.001 157.109 636.687 156.266L634.813 156.962ZM636.844 159.817C637.829 160.599 639.047 160.955 640.42 160.955V158.955C639.4 158.955 638.648 158.696 638.088 158.251L636.844 159.817ZM663.423 144.545V143.545C662.871 143.545 662.423 143.993 662.423 144.545H663.423ZM666.105 144.545H667.105C667.105 143.993 666.657 143.545 666.105 143.545V144.545ZM666.105 162V163C666.657 163 667.105 162.552 667.105 162H666.105ZM663.423 162H662.423C662.423 162.552 662.871 163 663.423 163V162ZM663.423 159.045H664.423C664.423 158.493 663.976 158.045 663.423 158.045V159.045ZM663.241 159.045V158.045C662.851 158.045 662.497 158.272 662.334 158.626L663.241 159.045ZM661.332 161.307L661.912 162.122L661.916 162.119L661.332 161.307ZM655.151 161.511L654.654 162.38L654.66 162.383L655.151 161.511ZM653.151 159.33L652.255 159.774L652.256 159.777L653.151 159.33ZM652.423 144.545V143.545C651.871 143.545 651.423 143.993 651.423 144.545H652.423ZM655.105 144.545H656.105C656.105 143.993 655.657 143.545 655.105 143.545V144.545ZM656.173 158.5L655.445 159.185L655.448 159.189L656.173 158.5ZM660.957 159.125L660.518 158.227L660.514 158.229L660.957 159.125ZM662.707 157.557L661.879 156.996L661.875 157.002L662.707 157.557ZM664.423 154.864V144.545H662.423V154.864H664.423ZM663.423 145.545H666.105V143.545H663.423V145.545ZM665.105 144.545V162H667.105V144.545H665.105ZM666.105 161H663.423V163H666.105V161ZM664.423 162V159.045H662.423V162H664.423ZM663.423 158.045H663.241V160.045H663.423V158.045ZM662.334 158.626C662.003 159.342 661.485 159.965 660.748 160.495L661.916 162.119C662.907 161.406 663.662 160.521 664.149 159.465L662.334 158.626ZM660.753 160.492C660.096 160.958 659.221 161.227 658.06 161.227V163.227C659.534 163.227 660.841 162.882 661.912 162.122L660.753 160.492ZM658.06 161.227C657.119 161.227 656.322 161.023 655.641 160.64L654.66 162.383C655.676 162.954 656.818 163.227 658.06 163.227V161.227ZM655.647 160.643C654.988 160.267 654.452 159.696 654.045 158.882L652.256 159.777C652.819 160.903 653.616 161.786 654.654 162.38L655.647 160.643ZM654.046 158.885C653.65 158.087 653.423 157.02 653.423 155.636H651.423C651.423 157.223 651.681 158.618 652.255 159.774L654.046 158.885ZM653.423 155.636V144.545H651.423V155.636H653.423ZM652.423 145.545H655.105V143.545H652.423V145.545ZM654.105 144.545V155.455H656.105V144.545H654.105ZM654.105 155.455C654.105 156.922 654.521 158.202 655.445 159.185L656.902 157.815C656.401 157.283 656.105 156.533 656.105 155.455H654.105ZM655.448 159.189C656.37 160.159 657.556 160.636 658.923 160.636V158.636C658.064 158.636 657.416 158.356 656.898 157.811L655.448 159.189ZM658.923 160.636C659.766 160.636 660.595 160.42 661.401 160.021L660.514 158.229C659.941 158.512 659.414 158.636 658.923 158.636V160.636ZM661.397 160.023C662.267 159.598 662.981 158.949 663.539 158.112L661.875 157.002C661.495 157.573 661.042 157.971 660.518 158.227L661.397 160.023ZM663.535 158.118C664.153 157.207 664.423 156.098 664.423 154.864H662.423C662.423 155.811 662.217 156.498 661.879 156.996L663.535 158.118ZM674.517 155.455H673.517C673.517 156.007 673.965 156.455 674.517 156.455V155.455ZM674.517 155.318L673.517 155.308V155.318H674.517ZM674.972 151.864L674.024 151.545L674.024 151.545L674.972 151.864ZM676.199 149.784L676.906 150.491L676.906 150.491L676.199 149.784ZM678.108 148.318L678.624 149.175L678.629 149.172L678.108 148.318ZM679.312 147.352L680.034 148.045L680.041 148.037L679.312 147.352ZM680.153 146.045L679.235 145.65L679.23 145.662L680.153 146.045ZM674.812 141.159L674.404 140.246L674.404 140.246L674.812 141.159ZM673.369 142.375L674.189 142.948L674.189 142.948L673.369 142.375ZM672.699 144.545V145.545C673.225 145.545 673.661 145.138 673.697 144.613L672.699 144.545ZM669.835 144.545L668.836 144.498C668.823 144.772 668.923 145.038 669.112 145.236C669.3 145.434 669.562 145.545 669.835 145.545V144.545ZM670.835 141.239L670.004 140.682L670.001 140.687L670.835 141.239ZM673.256 139.136L672.822 138.235L672.819 138.237L673.256 139.136ZM680.085 139.205L679.611 140.085L679.614 140.087L680.085 139.205ZM682.381 141.386L681.516 141.889L681.519 141.895L682.381 141.386ZM682.812 146.807L681.878 146.45L681.875 146.459L682.812 146.807ZM681.722 148.614L680.978 147.945L680.973 147.951L681.722 148.614ZM680.017 150.023L679.494 149.17L679.487 149.175L680.017 150.023ZM678.415 151.341L679.164 152.003L679.17 151.997L678.415 151.341ZM677.244 155.318L676.244 155.302C676.244 155.307 676.244 155.313 676.244 155.318H677.244ZM677.244 155.455V156.455C677.797 156.455 678.244 156.007 678.244 155.455H677.244ZM674.528 161.58L675.236 160.872L675.236 160.872L674.528 161.58ZM674.528 158.693L675.236 159.4L675.236 159.4L674.528 158.693ZM677.733 161.159L676.879 160.638C676.876 160.644 676.873 160.649 676.87 160.654L677.733 161.159ZM676.994 161.909L677.509 162.767L677.515 162.763L676.994 161.909ZM675.517 155.455V155.318H673.517V155.455H675.517ZM675.517 155.329C675.532 153.931 675.679 152.898 675.919 152.182L674.024 151.545C673.689 152.542 673.533 153.811 673.517 155.308L675.517 155.329ZM675.919 152.182C676.168 151.443 676.505 150.892 676.906 150.491L675.492 149.077C674.832 149.737 674.351 150.572 674.024 151.545L675.919 152.182ZM676.906 150.491C677.371 150.026 677.94 149.586 678.624 149.175L677.592 147.461C676.791 147.944 676.088 148.481 675.492 149.077L676.906 150.491ZM678.629 149.172C679.148 148.855 679.617 148.479 680.034 148.044L678.591 146.66C678.296 146.968 677.962 147.236 677.587 147.465L678.629 149.172ZM680.041 148.037C680.482 147.568 680.827 147.03 681.077 146.429L679.23 145.662C679.07 146.046 678.855 146.379 678.584 146.667L680.041 148.037ZM681.072 146.441C681.344 145.81 681.472 145.128 681.472 144.409H679.472C679.472 144.887 679.387 145.296 679.235 145.65L681.072 146.441ZM681.472 144.409C681.472 143.505 681.257 142.668 680.792 141.939L679.106 143.016C679.337 143.378 679.472 143.829 679.472 144.409H681.472ZM680.792 141.939C680.346 141.241 679.744 140.699 679.003 140.324L678.099 142.108C678.525 142.324 678.855 142.623 679.106 143.016L680.792 141.939ZM679.003 140.324C678.267 139.951 677.463 139.773 676.608 139.773V141.773C677.177 141.773 677.668 141.89 678.099 142.108L679.003 140.324ZM676.608 139.773C675.844 139.773 675.106 139.932 674.404 140.246L675.221 142.072C675.67 141.871 676.13 141.773 676.608 141.773V139.773ZM674.404 140.246C673.651 140.583 673.032 141.111 672.55 141.802L674.189 142.948C674.479 142.532 674.822 142.25 675.221 142.072L674.404 140.246ZM672.55 141.802C672.03 142.546 671.77 143.46 671.701 144.478L673.697 144.613C673.749 143.843 673.936 143.31 674.189 142.948L672.55 141.802ZM672.699 143.545H669.835V145.545H672.699V143.545ZM670.834 144.592C670.888 143.453 671.179 142.532 671.669 141.79L670.001 140.687C669.28 141.778 668.904 143.062 668.836 144.498L670.834 144.592ZM671.666 141.795C672.18 141.027 672.85 140.444 673.692 140.036L672.819 138.237C671.661 138.798 670.717 139.617 670.004 140.682L671.666 141.795ZM673.689 140.037C674.549 139.624 675.516 139.409 676.608 139.409V137.409C675.245 137.409 673.978 137.679 672.822 138.235L673.689 140.037ZM676.608 139.409C677.807 139.409 678.798 139.647 679.611 140.085L680.559 138.324C679.403 137.702 678.075 137.409 676.608 137.409V139.409ZM679.614 140.087C680.452 140.534 681.077 141.134 681.516 141.889L683.245 140.883C682.609 139.79 681.704 138.936 680.557 138.323L679.614 140.087ZM681.519 141.895C681.965 142.65 682.199 143.524 682.199 144.545H684.199C684.199 143.203 683.887 141.972 683.242 140.878L681.519 141.895ZM682.199 144.545C682.199 145.275 682.086 145.906 681.878 146.45L683.747 147.164C684.054 146.359 684.199 145.482 684.199 144.545H682.199ZM681.875 146.459C681.668 147.016 681.37 147.509 680.978 147.945L682.465 149.283C683.027 148.658 683.457 147.946 683.75 147.154L681.875 146.459ZM680.973 147.951C680.575 148.4 680.085 148.808 679.494 149.17L680.54 150.875C681.282 150.42 681.929 149.888 682.47 149.277L680.973 147.951ZM679.487 149.175C678.759 149.63 678.142 150.13 677.66 150.685L679.17 151.997C679.491 151.627 679.942 151.249 680.547 150.871L679.487 149.175ZM677.665 150.679C677.158 151.253 676.799 151.929 676.579 152.688L678.5 153.244C678.644 152.746 678.868 152.338 679.164 152.003L677.665 150.679ZM676.579 152.688C676.365 153.43 676.26 154.309 676.244 155.302L678.244 155.334C678.258 154.449 678.351 153.759 678.5 153.244L676.579 152.688ZM676.244 155.318V155.455H678.244V155.318H676.244ZM677.244 154.455H674.517V156.455H677.244V154.455ZM675.972 161.182C675.68 161.182 675.452 161.089 675.236 160.872L673.821 162.287C674.408 162.873 675.142 163.182 675.972 163.182V161.182ZM675.236 160.872C675.019 160.656 674.926 160.428 674.926 160.136H672.926C672.926 160.966 673.235 161.7 673.821 162.287L675.236 160.872ZM674.926 160.136C674.926 159.845 675.019 159.617 675.236 159.4L673.821 157.986C673.235 158.572 672.926 159.307 672.926 160.136H674.926ZM675.236 159.4C675.452 159.184 675.68 159.091 675.972 159.091V157.091C675.142 157.091 674.408 157.4 673.821 157.986L675.236 159.4ZM675.972 159.091C676.263 159.091 676.491 159.184 676.708 159.4L678.122 157.986C677.536 157.4 676.801 157.091 675.972 157.091V159.091ZM676.708 159.4C676.924 159.617 677.017 159.845 677.017 160.136H679.017C679.017 159.307 678.708 158.572 678.122 157.986L676.708 159.4ZM677.017 160.136C677.017 160.328 676.971 160.488 676.879 160.638L678.587 161.68C678.874 161.209 679.017 160.687 679.017 160.136H677.017ZM676.87 160.654C676.773 160.82 676.645 160.951 676.474 161.055L677.515 162.763C677.965 162.488 678.33 162.119 678.596 161.664L676.87 160.654ZM676.48 161.052C676.343 161.133 676.183 161.182 675.972 161.182V163.182C676.518 163.182 677.039 163.048 677.509 162.767L676.48 161.052Z" fill="#293728"/>
<defs>
<filter id="filter0_d_17_126" x="72.7017" y="9.45454" width="19.4702" height="22.5455" filterUnits="userSpaceOnUse" color-interpolation-filters="sRGB">
<feFlood flood-opacity="0" result="BackgroundImageFix"/>
<feColorMatrix in="SourceAlpha" type="matrix" values="0 0 0 0 0 0 0 0 0 0 0 0 0 0 0 0 0 0 127 0" result="hardAlpha"/>
<feOffset dy="4"/>
<feGaussianBlur stdDeviation="2"/>
<feComposite in2="hardAlpha" operator="out"/>
<feColorMatrix type="matrix" values="0 0 0 0 0 0 0 0 0 0 0 0 0 0 0 0 0 0 0.25 0"/>
<feBlend mode="normal" in2="BackgroundImageFix" result="effect1_dropShadow_17_126"/>
<feBlend mode="normal" in="SourceGraphic" in2="effect1_dropShadow_17_126" result="shape"/>
</filter>
<filter id="filter1_d_17_126" x="82.7017" y="25" width="19.4702" height="22.5455" filterUnits="userSpaceOnUse" color-interpolation-filters="sRGB">
<feFlood flood-opacity="0" result="BackgroundImageFix"/>
<feColorMatrix in="SourceAlpha" type="matrix" values="0 0 0 0 0 0 0 0 0 0 0 0 0 0 0 0 0 0 127 0" result="hardAlpha"/>
<feOffset dy="4"/>
<feGaussianBlur stdDeviation="2"/>
<feComposite in2="hardAlpha" operator="out"/>
<feColorMatrix type="matrix" values="0 0 0 0 0 0 0 0 0 0 0 0 0 0 0 0 0 0 0.25 0"/>
<feBlend mode="normal" in2="BackgroundImageFix" result="effect1_dropShadow_17_126"/>
<feBlend mode="normal" in="SourceGraphic" in2="effect1_dropShadow_17_126" result="shape"/>
</filter>
<filter id="filter2_d_17_126" x="224" y="65" width="582" height="512" filterUnits="userSpaceOnUse" color-interpolation-filters="sRGB">
<feFlood flood-opacity="0" result="BackgroundImageFix"/>
<feColorMatrix in="SourceAlpha" type="matrix" values="0 0 0 0 0 0 0 0 0 0 0 0 0 0 0 0 0 0 127 0" result="hardAlpha"/>
<feOffset dy="4"/>
<feGaussianBlur stdDeviation="2"/>
<feComposite in2="hardAlpha" operator="out"/>
<feColorMatrix type="matrix" values="0 0 0 0 0 0 0 0 0 0 0 0 0 0 0 0 0 0 0.25 0"/>
<feBlend mode="normal" in2="BackgroundImageFix" result="effect1_dropShadow_17_126"/>
<feBlend mode="normal" in="SourceGraphic" in2="effect1_dropShadow_17_126" result="shape"/>
</filter>
</defs>
</svg>
